SplineFontDB: 3.2
FontName: myuusunimuyo
FullName: myuusunimuyo
FamilyName: myuusunimuyo-v3
Weight: Regular
Copyright: Copyright (c) 2022, ark231
UComments: "2022-11-23: Created with FontForge (http://fontforge.org)"
Version: 001.000
ItalicAngle: 0
UnderlinePosition: -100
UnderlineWidth: 50
Ascent: 800
Descent: 200
InvalidEm: 0
LayerCount: 2
Layer: 0 0 "+gMyXYgAA" 1
Layer: 1 0 "+Uk2XYgAA" 0
XUID: [1021 707 -1884573640 11005345]
StyleMap: 0x0000
FSType: 0
OS2Version: 0
OS2_WeightWidthSlopeOnly: 0
OS2_UseTypoMetrics: 1
CreationTime: 1669164748
ModificationTime: 1671210885
OS2TypoAscent: 0
OS2TypoAOffset: 1
OS2TypoDescent: 0
OS2TypoDOffset: 1
OS2TypoLinegap: 90
OS2WinAscent: 0
OS2WinAOffset: 1
OS2WinDescent: 0
OS2WinDOffset: 1
HheadAscent: 0
HheadAOffset: 1
HheadDescent: 0
HheadDOffset: 1
OS2Vendor: 'PfEd'
Lookup: 4 0 0 "+VAhbVzB4MG5/bmPb in +MOkwxjDzZYdbVwAA lookup 0" { "+VAhbVzB4MG5/bmPb in +MOkwxjDzZYdbVwAA lookup 0-1"  } ['    ' ('DFLT' <'dflt' > 'latn' <'dflt' > ) 'liga' ('DFLT' <'dflt' > 'latn' <'dflt' > ) ]
MarkAttachClasses: 1
DEI: 91125
Encoding: ISO8859-1
UnicodeInterp: none
NameList: AGL For New Fonts
DisplaySize: -48
AntiAlias: 1
FitToEm: 0
WidthSeparation: 150
WinInfo: 0 38 14
BeginPrivate: 0
EndPrivate
BeginChars: 455 223

StartChar: i
Encoding: 105 105 0
Width: 595
Flags: W
HStem: 0 21G<459 526> 0 21G<459 526> 325 67<286.549 414.076> 608 67<44 213 287.004 414.02>
VStem: 175 66.875<435.943 563.33> 459 67<0 363 437.016 563.236>
LayerCount: 2
Fore
SplineSet
44 675 m 1xbc
 355 675 l 1
 450 673 526 595 526 500 c 2
 526 0 l 1
 459 0 l 1
 459 363 l 1
 429 339 392 325 351 325 c 0
 254 325 175 403 175 500 c 0
 175 541 189 578 213 608 c 1
 44 608 l 1
 44 675 l 1xbc
352 608 m 0
 288.315429688 608 241.875 556.84375 241.875 500.287109375 c 0
 241.875 482.24609375 246.600585938 463.655273438 257 446 c 0
 275 415 308 394 344 392 c 1
 351 392 l 2
 411.997070312 392 458.908203125 443.814453125 458.908203125 500.703125 c 0
 458.908203125 524.022460938 451.025390625 548.1953125 433 570 c 0
 426 579 398 608 352 608 c 0
EndSplineSet
Validated: 1
Ligature2: "+VAhbVzB4MG5/bmPb in +MOkwxjDzZYdbVwAA lookup 0-1" i
Ligature2: "+VAhbVzB4MG5/bmPb in +MOkwxjDzZYdbVwAA lookup 0-1" i
EndChar

StartChar: a
Encoding: 97 97 1
Width: 602
Flags: W
HStem: 0 21G<67 135> 0 21G<67 135> 312 64<178.288 309.833> 583 65<180.457 309.793 383 553>
VStem: 67 68<0 348 418.657 540.488> 353.896 67.1045<420.914 539.966>
LayerCount: 2
Fore
SplineSet
553 648 m 1xbc
 553 583 l 1
 383 583 l 1
 407 555 421 519 421 480 c 0
 421 387 342 312 244 312 c 0
 203 312 165 325 135 348 c 1
 135 0 l 1
 67 0 l 1
 67 478 l 1
 68 478 l 1
 68 480 l 2
 68 571 144 645 240 648 c 1
 553 648 l 1xbc
243 583 m 0
 189.370117188 583 134.884765625 541.10546875 134.884765625 480.243164062 c 0
 134.884765625 475.284179688 135.24609375 470.198242188 136 465 c 0
 145 407 198 376 244 376 c 0
 316.5703125 376 353.895507812 437.091796875 353.895507812 478.869140625 c 0
 353.895507812 484.297851562 353.264648438 489.400390625 352 494 c 1
 344 550 292 583 248 583 c 0
 246 583 245 583 243 583 c 0
EndSplineSet
Validated: 1
Ligature2: "+VAhbVzB4MG5/bmPb in +MOkwxjDzZYdbVwAA lookup 0-1" a
Ligature2: "+VAhbVzB4MG5/bmPb in +MOkwxjDzZYdbVwAA lookup 0-1" a
EndChar

StartChar: u
Encoding: 117 117 2
Width: 640
Flags: W
HStem: 0 21G<231 298> 0 21G<231 298> 357 67<47 232 343.757 471.089> 640 67<342.233 470.77>
VStem: 232 67.0615<0 357 468.91 594.495> 515.432 66.8242<468.038 595.787>
LayerCount: 2
Fore
SplineSet
407 707 m 0xbc
 408.154296875 707.025390625 409.30859375 707.037109375 410.462890625 707.037109375 c 0
 455.299804688 707.037109375 499.802734375 688.171875 531 656 c 0
 566.61328125 624.237304688 582.255859375 581.768554688 582.255859375 538.833007812 c 0
 582.255859375 448.924804688 513.661132812 356.966796875 416.197265625 356.966796875 c 0
 415.134765625 356.966796875 414.069335938 356.978515625 413 357 c 0
 375 357 337 357 299 357 c 1
 299 228 298 129 298 0 c 1
 231 0 l 1
 231 129 232 228 232 357 c 1
 47 357 l 1
 47 424 l 1
 232 424 l 1
 232 513 l 2
 231.536132812 518.049804688 231.30859375 523.10546875 231.30859375 528.151367188 c 0
 231.30859375 619.127929688 305.236328125 707.116210938 400.967773438 707.116210938 c 0
 402.96875 707.116210938 404.98046875 707.078125 407 707 c 0xbc
406.859375 423.431640625 m 0
 460.198242188 423.431640625 515.431640625 467.6875 515.431640625 533.336914062 c 0
 515.431640625 588.622070312 467.14453125 640.046875 410.923828125 640.046875 c 0
 409.952148438 640.046875 408.9765625 640.03125 408 640 c 0
 407.228515625 640.017578125 406.45703125 640.02734375 405.686523438 640.02734375 c 0
 347.594726562 640.02734375 299.061523438 591.004882812 299.061523438 533.819335938 c 0
 299.061523438 475.501953125 345.715820312 423.431640625 406.859375 423.431640625 c 0
EndSplineSet
Validated: 1
Ligature2: "+VAhbVzB4MG5/bmPb in +MOkwxjDzZYdbVwAA lookup 0-1" u
Ligature2: "+VAhbVzB4MG5/bmPb in +MOkwxjDzZYdbVwAA lookup 0-1" u
EndChar

StartChar: o
Encoding: 111 111 3
Width: 642
Flags: HW
HStem: 0 21G<334.812 401.812> 0 21G<334.812 401.812> 343 67<162.724 290.055 401.812 586.812> 626 67<163.041 291.58>
VStem: 52 66.3799<454.049 581.796> 334.812 67<0 343 454.91 580.495>
LayerCount: 2
Fore
SplineSet
226.8125 693 m 4xbc
 228.83203125 693.078125 230.842773438 693.116210938 232.844726562 693.116210938 c 4
 328.576171875 693.116210938 402.502929688 605.127929688 402.502929688 514.151367188 c 4
 402.502929688 509.10546875 402.276367188 504.049804688 401.8125 499 c 6
 401.8125 410 l 5
 586.8125 410 l 5
 586.8125 343 l 5
 401.8125 343 l 5
 401.8125 0 l 5
 334.8125 0 l 5
 334.8125 343 l 5
 296.8125 343 258.8125 343 220.8125 343 c 4
 219.743164062 342.978515625 218.677734375 342.966796875 217.615234375 342.966796875 c 4
 120.1484375 342.966796875 52 434.948242188 52 524.8671875 c 4
 52 567.791015625 67.529296875 610.245117188 102.8125 642 c 4
 134.008789062 674.171875 178.512695312 693.037109375 223.349609375 693.037109375 c 4
 224.50390625 693.037109375 225.658203125 693.025390625 226.8125 693 c 4xbc
334.75 519.819335938 m 4
 334.75 577.001953125 286.21875 626.02734375 228.125976562 626.02734375 c 4
 227.35546875 626.02734375 226.583984375 626.017578125 225.8125 626 c 4
 224.834960938 626.03125 223.860351562 626.046875 222.887695312 626.046875 c 4
 166.66796875 626.046875 118.379882812 574.622070312 118.379882812 519.336914062 c 4
 118.379882812 453.685546875 173.616210938 409.431640625 226.953125 409.431640625 c 4
 288.094726562 409.431640625 334.75 461.5 334.75 519.819335938 c 4
EndSplineSet
Ligature2: "+VAhbVzB4MG5/bmPb in +MOkwxjDzZYdbVwAA lookup 0-1" o
Ligature2: "+VAhbVzB4MG5/bmPb in +MOkwxjDzZYdbVwAA lookup 0-1" o
EndChar

StartChar: e
Encoding: 101 101 4
Width: 458
Flags: W
HStem: 0 21G<194 261> 0 21G<194 261> 302 69<157.587 194> 578 68<157.587 194> 663 20G<194 261>
VStem: 51 67.9531<408.527 539.449> 194 67<0 306.538 372 577 641.479 683> 334.125 66.875<409.443 539.5>
LayerCount: 2
Fore
SplineSet
194 683 m 1xbf
 261 683 l 1
 261 646 l 1
 341 630 401 559 401 474 c 0
 401 390 341 319 261 303 c 1
 261 0 l 1
 194 0 l 1
 194 302 l 1
 113 317 51 389 51 474 c 0
 51 560 113 631 194 646 c 1
 194 683 l 1xbf
194 578 m 1
 145.314453125 563.137695312 118.953125 518.073242188 118.953125 473.08984375 c 0
 118.953125 430.295898438 142.809570312 387.576171875 194 371 c 5
 194 578 l 1
261 577 m 1
 261 372 l 1
 309.874023438 388.458007812 334.125 431.528320312 334.125 474.54296875 c 0
 334.125 517.779296875 309.624023438 560.958984375 261 577 c 1
EndSplineSet
Validated: 1
Ligature2: "+VAhbVzB4MG5/bmPb in +MOkwxjDzZYdbVwAA lookup 0-1" e
Ligature2: "+VAhbVzB4MG5/bmPb in +MOkwxjDzZYdbVwAA lookup 0-1" e
EndChar

StartChar: k
Encoding: 107 107 5
Width: 439
Flags: W
HStem: 0 67<136 387>
VStem: 69 67<67 564>
LayerCount: 2
Fore
SplineSet
69 564 m 1
 136 564 l 1
 136 67 l 1
 387 67 l 1
 387 0 l 1
 281 0 175 0 69 0 c 1
 69 188 69 376 69 564 c 1
EndSplineSet
Validated: 1
EndChar

StartChar: s
Encoding: 115 115 6
Width: 444
Flags: HW
HStem: 0.280273 66.7197<69.4443 320> 148 68<136 320>
VStem: 69 67<216 587> 320 67<67 149>
LayerCount: 2
Fore
SplineSet
387 0 m 5
 69 0 l 5
 69 67 l 5
 320 67 l 5
 320 148 l 5
 69 148 l 5
 69 587 l 5
 136 587 l 5
 136 216 l 5
 387 216 l 5
 387 0 l 5
EndSplineSet
EndChar

StartChar: t
Encoding: 116 116 7
Width: 443
Flags: HW
HStem: 1 67<253 319> 144 67<123 186 253 319>
VStem: 56.4443 66.5557<-1 144> 186 67<68 144 211 586> 319 67<68 144>
LayerCount: 2
Fore
SplineSet
186 586 m 5
 253 586 l 5
 253 211 l 5
 386 211 l 5
 386 0 l 5
 186 0 l 5
 186 144 l 5
 165 144 144 144 123 144 c 5
 123 0 l 5
 56 0 l 5
 56 211 l 5
 186 211 l 5
 186 586 l 5
319 144 m 5
 297 144 275 144 253 144 c 5
 253 68 l 5
 319 68 l 5
 319 144 l 5
EndSplineSet
EndChar

StartChar: n
Encoding: 110 110 8
Width: 397
Flags: W
HStem: 0 65<143.152 254.081> 654 20G<163 230>
VStem: 50 66<92.5772 202.395> 163 67<283.544 674> 281 63<92.5772 202.48>
LayerCount: 2
Fore
SplineSet
163 674 m 5
 230 674 l 5
 230 290 l 5
 295 275 344 216 344 147 c 4
 344 66 278 0 197 0 c 4
 116 0 50 66 50 147 c 4
 50 216 98 274 163 290 c 5
 163 674 l 5
199 230 m 4
 153 230 116 193 116 147 c 4
 116 102 153 65 199 65 c 4
 244 65 281 102 281 147 c 4
 281 193 244 230 199 230 c 4
EndSplineSet
Validated: 1
EndChar

StartChar: h
Encoding: 104 104 9
Width: 445
Flags: W
HStem: 1 21G<69 136> 1 21G<69 136> 498 67<136 387>
VStem: 69 67<1 498>
LayerCount: 2
Fore
SplineSet
69 1 m 5xb0
 69 189 69 377 69 565 c 5
 175 565 281 565 387 565 c 5
 387 498 l 5
 136 498 l 5
 136 1 l 5
 69 1 l 5xb0
EndSplineSet
Validated: 1
EndChar

StartChar: m
Encoding: 109 109 10
Width: 450
Flags: HW
HStem: 0 21G<69 136> 0 21G<69 136> 371 67<136 320> 520 66.5557<69.4443 320>
VStem: 69 67<0 371> 320 67<438 520>
LayerCount: 2
Fore
SplineSet
69 0 m 5xbc
 69 146 69 292 69 438 c 1
 320 438 l 1
 320 520 l 1
 69 520 l 1
 69 587 l 1
 387 587 l 1
 387 371 l 1
 136 371 l 1
 136 0 l 1
 69 0 l 5xbc
EndSplineSet
EndChar

StartChar: r
Encoding: 114 114 11
Width: 449
Flags: HW
HStem: 0 21G<186 253> 0 21G<186 253> 375 67<123 186 253 319> 517 67<253 319>
VStem: 56.4443 66.5557<442 587> 186 67<0 375 442 517 584 585> 319 67<442 517 584 585>
LayerCount: 2
Fore
SplineSet
186 -0 m 1xbe
 186 375 l 1
 56 375 l 1
 56 587 l 1
 123 587 l 1
 123 442 l 1
 144 442 165 442 186 442 c 1
 186 585 l 1
 386 585 l 1
 386 375 l 1
 253 375 l 1
 253 -0 l 1
 186 -0 l 1xbe
319 442 m 1
 319 467 319 492 319 517 c 1
 253 517 l 1
 253 442 l 1
 275 442 297 442 319 442 c 1
EndSplineSet
EndChar

StartChar: p
Encoding: 112 112 12
Width: 401
Flags: W
HStem: 0 21G<164 231> 0 21G<164 231> 609 65<144.152 255.081>
VStem: 51 66<471.227 581.348> 164 67<0 390.425> 282 63<471.227 581.348>
LayerCount: 2
Fore
SplineSet
164 0 m 1xbc
 164 384 l 1
 99 399 51 457 51 527 c 0
 51 608 117 674 198 674 c 0
 279 674 345 608 345 527 c 0
 345 457 296 399 231 384 c 1
 231 0 l 1
 164 0 l 1xbc
200 444 m 0
 245 444 282 481 282 526 c 0
 282 572 245 609 200 609 c 0
 154 609 117 572 117 526 c 0
 117 481 154 444 200 444 c 0
EndSplineSet
Validated: 1
EndChar

StartChar: vocalize
Encoding: 256 -1 13
Width: 1000
HStem: 550.867 191.175
LayerCount: 2
Fore
SplineSet
358.02734375 742.041992188 m 1
 421.477539062 678.3125 485.288085938 614.59375 549.008789062 550.8671875 c 1
 483.616210938 550.8671875 l 1
 441.721679688 592.76171875 399.826171875 634.65625 357.931640625 676.55078125 c 1
 316.037109375 634.65625 274.143554688 592.76171875 232.25 550.8671875 c 1
 166.852539062 550.8671875 l 1
 230.577148438 614.591796875 294.302734375 678.317382812 358.02734375 742.041992188 c 1
EndSplineSet
Validated: 1
EndChar

StartChar: lonely_w
Encoding: 257 -1 22
Width: 333
Flags: W
HStem: -199 33<128.117 202.495> -63 33<128.189 202.931>
VStem: 81 33<-150.623 -77.1431 -48 -29> 218 32<-149.005 -78.8774 -48 -28>
LayerCount: 2
Fore
SplineSet
218 -28 m 1
 250 -28 l 1
 250 -114 l 2
 250 -161 212 -199 166 -199 c 0
 120 -199 83 -162 81 -117 c 1
 81 -29 l 1
 114 -29 l 1
 114 -48 l 1
 128 -36 146 -30 166 -30 c 0
 185 -30 203 -36 218 -48 c 1
 218 -28 l 1
165 -63 m 0
 137 -63 114 -86 114 -114 c 0
 114 -142 137 -166 165 -166 c 0
 194 -166 217 -142 217 -114 c 0
 217 -86 194 -63 165 -63 c 0
EndSplineSet
Validated: 1
EndChar

StartChar: lonely_y
Encoding: 258 -1 23
Width: 478
Flags: W
HStem: -198 33<201.005 274.866> -61 33<81 172 201.125 274 305 395>
VStem: 154 32<-149.688 -76.6098> 289 34<-150.557 -75.3722>
LayerCount: 2
Fore
SplineSet
81 -28 m 1
 395 -28 l 1
 395 -61 l 1
 305 -61 l 1
 316 -75 323 -94 323 -113 c 0
 323 -160 285 -198 238 -198 c 0
 192 -198 154 -160 154 -113 c 0
 154 -94 161 -75 172 -61 c 1
 81 -61 l 1
 81 -28 l 1
238 -62 m 0
 209 -62 186 -85 186 -113 c 0
 186 -141 209 -165 238 -165 c 0
 266 -165 289 -141 289 -113 c 0
 289 -85 266 -62 238 -62 c 0
EndSplineSet
Validated: 1
EndChar

StartChar: comma
Encoding: 44 44 24
Width: 217
Flags: W
HStem: 0 21G<73 140.016> 0 21G<73 140.016> 619 20G<73 140.016>
VStem: 73 67.0156<0 639>
LayerCount: 2
Fore
SplineSet
73 639 m 1xb0
 140.015625 639 l 1
 140.015625 0 l 1
 73 0 l 1
 73 639 l 1xb0
EndSplineSet
Validated: 1
EndChar

StartChar: hyphen
Encoding: 45 45 25
Width: 302
Flags: W
VStem: 55.4121 191.176
LayerCount: 2
Fore
SplineSet
246.587890625 332.981445312 m 5
 182.857421875 269.53125 119.138671875 205.720703125 55.412109375 142 c 5
 55.412109375 207.392578125 l 5
 97.306640625 249.287109375 139.201171875 291.182617188 181.095703125 333.077148438 c 5
 139.201171875 374.971679688 97.306640625 416.865234375 55.412109375 458.758789062 c 5
 55.412109375 524.15625 l 5
 119.13671875 460.431640625 182.86328125 396.706054688 246.587890625 332.981445312 c 5
EndSplineSet
Validated: 1
EndChar

StartChar: period
Encoding: 46 46 26
Width: 519
Flags: W
HStem: 148.676 312.738
LayerCount: 2
Fore
SplineSet
393.73828125 461.4140625 m 5
 465.09375 461.4140625 l 5
 351.265625 148.67578125 l 5
 279.91015625 148.67578125 l 5
 347.7265625 335 l 5
 125.78515625 149.767578125 l 5
 125.26171875 148.328125 l 5
 124.072265625 148.328125 l 5
 123.556640625 147.897460938 l 5
 123.1953125 148.328125 l 5
 53.90625 148.328125 l 5
 167.208984375 459.626953125 l 5
 238.564453125 459.626953125 l 5
 171.126953125 274.34375 l 5
 392.55859375 460.147460938 l 5
 393.060546875 459.55078125 l 5
 393.73828125 461.4140625 l 5
EndSplineSet
Validated: 1
EndChar

StartChar: k_i
Encoding: 259 -1 27
Width: 842
Flags: W
HStem: 0 67<529 780> 325 67<289.651 417.076> 608 67<47 216 290.004 417.02>
VStem: 178 66.875<435.933 563.33> 462 67<67 363 437.016 563.134>
LayerCount: 2
Fore
SplineSet
461.908203125 500.703125 m 0
 461.908203125 555.850991229 416.470899725 608 355 608 c 0
 291.315429688 608 244.875 556.84375 244.875 500.287109375 c 0
 244.875 444.664756119 290.029461876 395.165029896 347 392 c 1
 354 392 l 2
 414.997070312 392 461.908203125 443.814453125 461.908203125 500.703125 c 0
47 675 m 1
 358 675 l 1
 453 673 529 595 529 500 c 0
 529 355.666666667 529 211.333333333 529 67 c 1
 780 67 l 1
 780 0 l 1
 674 -0 568 0 462 0 c 1
 462 121 462 242 462 363 c 1
 432 339 395 325 354 325 c 0
 257 325 178 403 178 500 c 0
 178 541 192 578 216 608 c 1
 47 608 l 1
 47 675 l 1
EndSplineSet
Validated: 1
LCarets2: 1 491
Ligature2: "+VAhbVzB4MG5/bmPb in +MOkwxjDzZYdbVwAA lookup 0-1" k i
EndChar

StartChar: k_a
Encoding: 260 -1 28
Width: 611
VWidth: 0
Flags: W
HStem: 0 67<137 387> 312 64<179.89 311.833> 583 65<182.457 313.348 385 555>
VStem: 69 68<67 348 417.458 540.488> 355.896 67.1045<420.914 539.866>
LayerCount: 2
Fore
SplineSet
355.895507812 478.869140625 m 0
 355.895507812 531.922862805 308.458824661 583 250 583 c 0
 248 583 247 583 245 583 c 0
 191.370117188 583 136.884765625 541.10546875 136.884765625 480.243164062 c 0
 136.884765625 417.063108387 192.089150406 376 246 376 c 0
 318.5703125 376 355.895507812 437.091796875 355.895507812 478.869140625 c 0
555 648 m 1
 555 583 l 1
 385 583 l 1
 409 555 423 519 423 480 c 0
 423 387 344 312 246 312 c 0
 205 312 167 325 137 348 c 1
 137 67 l 1
 387 67 l 1
 387 0 l 1
 281 -0 175 0 69 0 c 1
 69 478 l 1
 70 478 l 1
 70 480 l 2
 70 571 146 645 242 648 c 1
 555 648 l 1
EndSplineSet
Validated: 1
LCarets2: 1 106
Ligature2: "+VAhbVzB4MG5/bmPb in +MOkwxjDzZYdbVwAA lookup 0-1" k a
EndChar

StartChar: k_u
Encoding: 261 -1 29
Width: 691
VWidth: 0
Flags: W
HStem: 0 67<319.085 570> 357 67<68 253 364.757 492.089> 640 67<363.233 491.77>
VStem: 252.309 67.7529<67 357 468.91 594.495> 536.432 66.8242<468.038 595.787>
LayerCount: 2
Fore
SplineSet
427.859375 423.431640625 m 0
 481.198242188 423.431640625 536.431640625 467.6875 536.431640625 533.336914062 c 0
 536.431640625 588.622070312 488.14453125 640.046875 431.923828125 640.046875 c 0
 430.952148438 640.046875 429.9765625 640.03125 429 640 c 0
 428.228515625 640.017578125 427.45703125 640.02734375 426.686523438 640.02734375 c 0
 368.594726562 640.02734375 320.061523438 591.004882812 320.061523438 533.819335938 c 0
 320.061523438 475.501953125 366.715820312 423.431640625 427.859375 423.431640625 c 0
428 707 m 0
 429.154296875 707.025390625 430.30859375 707.037109375 431.462890625 707.037109375 c 0
 476.299804688 707.037109375 520.802734375 688.171875 552 656 c 0
 587.61328125 624.237304688 603.255859375 581.768554688 603.255859375 538.833007812 c 0
 603.255859375 448.924804688 534.661132812 356.966796875 437.197265625 356.966796875 c 0
 436.134765625 356.966796875 435.069335938 356.978515625 434 357 c 0
 396 357 358 357 320 357 c 1
 320 251.186523438 319.327148438 165.557617188 319.084960938 67 c 1
 570 67 l 1
 570 0 l 1
 464 0 358 0 252 0 c 1
 252 188 252 82 252 270 c 1
 252.859375 270 l 1
 252.944335938 297.857421875 253 326.595703125 253 357 c 1
 68 357 l 1
 68 424 l 1
 253 424 l 1
 253 513 l 2
 252.536132812 518.049804688 252.30859375 523.10546875 252.30859375 528.151367188 c 0
 252.30859375 619.127929688 326.236328125 707.116210938 421.967773438 707.116210938 c 0
 423.96875 707.116210938 425.98046875 707.078125 428 707 c 0
EndSplineSet
Validated: 1
LCarets2: 1 286
Ligature2: "+VAhbVzB4MG5/bmPb in +MOkwxjDzZYdbVwAA lookup 0-1" k u
EndChar

StartChar: k_o
Encoding: 262 -1 30
Width: 743
VWidth: 0
Flags: W
HStem: 0 67<415 666> 343 67<175.912 303.242 415 600> 626.047 66.9902<176.229 304.767>
VStem: 65.1875 66.3799<454.049 581.796> 347.938 67.7529<67 343 454.91 580.495>
LayerCount: 2
Fore
SplineSet
347.9375 519.819335938 m 0
 347.9375 577.001953125 299.40625 626.02734375 241.313476562 626.02734375 c 0
 240.54296875 626.02734375 239.771484375 626.017578125 239 626 c 0
 238.022460938 626.03125 237.047851562 626.046875 236.075195312 626.046875 c 0
 179.85546875 626.046875 131.567382812 574.622070312 131.567382812 519.336914062 c 0
 131.567382812 453.685546875 186.803710938 409.431640625 240.140625 409.431640625 c 0
 301.282226562 409.431640625 347.9375 461.5 347.9375 519.819335938 c 0
240 693 m 0
 242.01953125 693.078125 244.030273438 693.116210938 246.032226562 693.116210938 c 0
 341.763671875 693.116210938 415.690429688 605.127929688 415.690429688 514.151367188 c 0
 415.690429688 509.10546875 415.463867188 504.049804688 415 499 c 2
 415 410 l 1
 600 410 l 1
 600 343 l 1
 415 343 l 1
 415 67 l 1
 666 67 l 1
 666 0 l 1
 560 0 454 0 348 0 c 1
 348 188 347 58 347 246 c 1
 348 246 l 1
 348 343 l 1
 310 343 272 343 234 343 c 0
 232.930664062 342.978515625 231.865234375 342.966796875 230.802734375 342.966796875 c 0
 133.3359375 342.966796875 65.1875 434.948242188 65.1875 524.8671875 c 0
 65.1875 567.791015625 80.716796875 610.245117188 116 642 c 0
 147.196289062 674.171875 191.700195312 693.037109375 236.537109375 693.037109375 c 0
 237.69140625 693.037109375 238.845703125 693.025390625 240 693 c 0
EndSplineSet
Validated: 1
LCarets2: 1 379
Ligature2: "+VAhbVzB4MG5/bmPb in +MOkwxjDzZYdbVwAA lookup 0-1" k o
EndChar

StartChar: k_e
Encoding: 263 -1 31
Width: 604
VWidth: 0
Flags: W
HStem: 0 67<274 525> 302 69<170.587 207> 578 68<170.587 207> 663 20G<207 274>
VStem: 64 67.9531<408.527 539.449> 207 67<67 306.538 372 577 641.479 683> 347.125 66.875<409.443 539.5>
LayerCount: 2
Fore
SplineSet
274 577 m 1
 274 372 l 1
 322.874023438 388.458007812 347.125 431.528320312 347.125 474.54296875 c 0
 347.125 517.779296875 322.624023438 560.958984375 274 577 c 1
207 578 m 1
 158.314453125 563.137695312 131.953125 518.073242188 131.953125 473.08984375 c 0
 131.953125 430.295898438 155.809570312 387.576171875 207 371 c 1
 207 578 l 1
207 683 m 1
 274 683 l 1
 274 646 l 1
 354 630 414 559 414 474 c 0
 414 390 354 319 274 303 c 1
 274 67 l 1
 525 67 l 1
 525 0 l 1
 419 0 313 0 207 0 c 1
 207 302 l 1
 126 317 64 389 64 474 c 0
 64 560 126 631 207 646 c 1
 207 683 l 1
EndSplineSet
Validated: 1
LCarets2: 1 239
Ligature2: "+VAhbVzB4MG5/bmPb in +MOkwxjDzZYdbVwAA lookup 0-1" k e
EndChar

StartChar: s_i
Encoding: 289 -1 37
Width: 813
VWidth: 0
Flags: W
HStem: 0 67<454 705> 148 68<521 705> 325 67<281.651 409.076> 608 67<39 208 282.004 409.02>
VStem: 170 66.875<435.933 563.33> 454 67<216 363 437.016 563.134> 705 67<67 148>
LayerCount: 2
Fore
SplineSet
453.908203125 500.703125 m 0
 453.908203125 555.850585938 408.470703125 608 347 608 c 0
 283.315429688 608 236.875 556.84375 236.875 500.287109375 c 0
 236.875 444.665039062 282.029296875 395.165039062 339 392 c 1
 346 392 l 2
 406.997070312 392 453.908203125 443.814453125 453.908203125 500.703125 c 0
39 675 m 1
 350 675 l 1
 445 673 521 594.995117188 521 500 c 2
 521 216 l 1
 772 216 l 1
 772 0 l 1
 454 0 l 1
 454 67 l 1
 705 67 l 1
 705 148 l 1
 454 148 l 1
 454 363 l 1
 424 339 387 325 346 325 c 0
 249 325 170 403 170 500 c 0
 170 541 184 578 208 608 c 1
 39 608 l 1
 39 675 l 1
EndSplineSet
Validated: 1
LCarets2: 1 489
Ligature2: "+VAhbVzB4MG5/bmPb in +MOkwxjDzZYdbVwAA lookup 0-1" s i
EndChar

StartChar: s_a
Encoding: 290 -1 38
Width: 619
VWidth: 0
Flags: HW
HStem: 0.280273 66.7197<69.4443 320> 148 68<136 320> 312 64<622.288 753.833> 583 65<624.457 753.793 827 997>
VStem: 69 67<216 587> 320 67<67 149> 511 68<0 348 418.657 540.488> 797.896 67.1045<420.914 539.966>
LayerCount: 2
Fore
SplineSet
555 648 m 1
 555 583 l 1
 385 583 l 1
 409 555 423 519 423 480 c 0
 423 387 344 312 246 312 c 0
 205 312 166 325 136 348 c 1
 136.66 216 l 1
 387 216 l 1
 387 0 l 1
 69 0 l 1
 69 67 l 1
 320 67 l 1
 320 148 l 1
 236.333333333 148 152.666666667 148 69 148 c 1
 69 258 69 368 69 478 c 1
 70 478 l 1
 70 480 l 2
 70 571 146 645 242 648 c 1
 555 648 l 1
355.895507812 478.869140625 m 0
 355.895507812 531.922862803 308.458824662 583 250 583 c 2
 245 583 l 2
 191.370117188 583 136.884765625 541.10546875 136.884765625 480.243164062 c 0
 136.884765625 417.063108387 192.089150406 376 246 376 c 0
 318.5703125 376 355.895507812 437.091796875 355.895507812 478.869140625 c 0
EndSplineSet
LCarets2: 1 0
Ligature2: "+VAhbVzB4MG5/bmPb in +MOkwxjDzZYdbVwAA lookup 0-1" s a
EndChar

StartChar: s_u
Encoding: 291 -1 39
Width: 673
VWidth: 0
Flags: HW
HStem: 0.280273 66.7197<256.444 507> 148 68<323 507> 357 67<678 863 974.757 1102.09> 640 67<973.233 1101.77>
VStem: 256 67<216 587> 507 67<67 149> 863 67.0615<0 357 468.91 594.495> 1146.43 66.8242<468.038 595.787>
LayerCount: 2
Fore
SplineSet
431 707 m 0
 432.154296875 707.025390625 433.30859375 707.037109375 434.462890625 707.037109375 c 0
 479.299804688 707.037109375 523.802734375 688.171875 555 656 c 0
 590.61328125 624.237304688 606.255859375 581.768554688 606.255859375 538.833007812 c 0
 606.255859375 448.924804688 537.661132812 356.966796875 440.197265625 356.966796875 c 0
 439.134765625 356.966796875 438.069335938 356.978515625 437 357 c 0
 399 357 361 357 323 357 c 1
 323 216 l 1
 574 216 l 1
 574 0 l 1
 256 0 l 1
 256 67 l 1
 507 67 l 1
 507 148 l 1
 256 148 l 1
 256 357 l 1
 71 357 l 1
 71 424 l 1
 256 424 l 1
 256 513 l 2
 255.536132812 518.049804688 255.30859375 523.10546875 255.30859375 528.151367188 c 0
 255.30859375 619.127929688 329.236328125 707.116210938 424.967773438 707.116210938 c 0
 426.96875 707.116210938 428.98046875 707.078125 431 707 c 0
430.859375 423.431640625 m 0
 484.198242188 423.431640625 539.431640625 467.6875 539.431640625 533.336914062 c 0
 539.431640625 588.622070312 491.14453125 640.046875 434.923828125 640.046875 c 0
 433.952148438 640.046875 432.9765625 640.03125 432 640 c 0
 431.228515625 640.017578125 430.45703125 640.02734375 429.686523438 640.02734375 c 0
 371.594726562 640.02734375 323.061523438 591.004882812 323.061523438 533.819335938 c 0
 323.061523438 475.501953125 369.715820312 423.431640625 430.859375 423.431640625 c 0
EndSplineSet
LCarets2: 1 0
Ligature2: "+VAhbVzB4MG5/bmPb in +MOkwxjDzZYdbVwAA lookup 0-1" s u
EndChar

StartChar: s_o
Encoding: 292 -1 40
Width: 739
VWidth: 0
Flags: HW
HStem: 0.280273 66.7197<353.501 604.057> 148 68<420.057 604.057> 343 67<890.781 1018.11 1129.87 1314.87> 626 67<891.098 1019.64>
VStem: 353.057 67<216 587> 604.057 67<67 149> 780.057 66.3799<454.049 581.796> 1062.87 67<0 343 454.91 580.495>
LayerCount: 2
Fore
SplineSet
244.8125 693 m 0
 246.83203125 693.078125 248.842773438 693.116210938 250.844726562 693.116210938 c 0
 346.576171875 693.116210938 420.502929688 605.127929688 420.502929688 514.151367188 c 0
 420.502929688 509.10546875 420.276367188 504.049804688 419.8125 499 c 2
 419.8125 410 l 1
 604.8125 410 l 1
 604.8125 343 l 1
 420 343 l 1
 420 216 l 1
 671 216 l 1
 671 0 l 1
 353 0 l 1
 353 67 l 1
 604 67 l 1
 604 148 l 1
 353 148 l 1
 353 221 l 1
 352.8125 343 l 1
 238.8125 343 l 2
 237.743164062 343 236.677734375 342.966796875 235.615234375 342.966796875 c 0
 138.1484375 342.966796875 70 434.948242188 70 524.8671875 c 0
 70 567.791015625 85.529296875 610.245117188 120.8125 642 c 0
 152.008789062 674.171875 196.512695312 693.037109375 241.349609375 693.037109375 c 0
 242.50390625 693.037109375 243.658203125 693.025390625 244.8125 693 c 0
352.75 519.819335938 m 0
 352.75 577.001953125 304.21875 626.02734375 246.125976562 626.02734375 c 0
 245.35546875 626.02734375 244.583984375 626.017578125 243.8125 626 c 0
 242.834960938 626.03125 241.860351562 626.046875 240.887695312 626.046875 c 0
 184.66796875 626.046875 136.379882812 574.622070312 136.379882812 519.336914062 c 0
 136.379882812 453.685546875 191.616210938 409.431640625 244.953125 409.431640625 c 0
 306.094726562 409.431640625 352.75 461.5 352.75 519.819335938 c 0
EndSplineSet
LCarets2: 1 0
Ligature2: "+VAhbVzB4MG5/bmPb in +MOkwxjDzZYdbVwAA lookup 0-1" s o
EndChar

StartChar: s_e
Encoding: 293 -1 41
Width: 602
VWidth: 0
Flags: HW
HStem: 0.280273 66.7197<216.444 467> 148 68<283 467> 302 69<748.587 785> 578 68<748.587 785> 663 20G<785 852>
VStem: 216 67<216 587> 467 67<67 149> 642 67.9531<408.527 539.449> 785 67<0 306.538 372 577 641.479 683> 925.125 66.875<409.443 539.5>
LayerCount: 2
Fore
SplineSet
283 576 m 1
 283 371 l 1
 331.874023438 387.458007812 356.125 430.528320312 356.125 473.54296875 c 0
 356.125 516.779296875 331.624023438 559.958984375 283 576 c 1
216 577 m 1
 167.314453125 562.137695312 140.953125 517.073242188 140.953125 472.08984375 c 0
 140.953125 429.295898438 164.809570312 386.576171875 216 370 c 1
 216 577 l 1
216 682 m 1
 283 682 l 1
 283 645 l 1
 363 629 423 558 423 473 c 0
 423 389 363 318 283 302 c 1
 283 216 l 1
 534 216 l 1
 534 0 l 1
 216 0 l 1
 216 67 l 1
 467 67 l 1
 467 148 l 1
 216 148 l 1
 216 301 l 1
 135 316 73 388 73 473 c 0
 73 559 135 630 216 645 c 1
 216 682 l 1
EndSplineSet
LCarets2: 1 0
Ligature2: "+VAhbVzB4MG5/bmPb in +MOkwxjDzZYdbVwAA lookup 0-1" s e
EndChar

StartChar: t_i
Encoding: 319 -1 67
Width: 730
VWidth: 0
Flags: HW
HStem: 1 67<535 601> 144 67<405 468 535 601> 325 67<1011.55 1139.08> 608 67<769 938 1012 1139.02>
VStem: 338.444 66.5557<-1 144> 468 67<68 144 211 586> 601 67<68 144> 900 66.875<435.943 563.33> 1184 67<0 363 437.016 563.236>
LayerCount: 2
Fore
SplineSet
467.908203125 500.703125 m 0
 467.908203125 555.850585938 422.470703125 608 361 608 c 0
 297.315429688 608 250.875 556.84375 250.875 500.287109375 c 0
 250.875 444.665039062 296.029296875 395.165039062 353 392 c 1
 360 392 l 2
 420.997070312 392 467.908203125 443.814453125 467.908203125 500.703125 c 0
53 675 m 1
 364 675 l 1
 459 673 535 594.953125 535 500 c 2
 535 211 l 1
 668 211 l 1
 668 0 l 1
 468 0 l 1
 468 144 l 1
 447 144 426 144 405 144 c 1
 405 0 l 1
 338 0 l 1
 338 211 l 1
 468 211 l 1
 468 363 l 1
 438 339 401 325 360 325 c 0
 263 325 184 403 184 500 c 0
 184 541 198 578 222 608 c 1
 53 608 l 1
 53 675 l 1
601 144 m 1
 579 144 557 144 535 144 c 1
 535 68 l 1
 601 68 l 1
 601 144 l 1
EndSplineSet
LCarets2: 1 0
Ligature2: "+VAhbVzB4MG5/bmPb in +MOkwxjDzZYdbVwAA lookup 0-1" t i
EndChar

StartChar: t_a
Encoding: 320 -1 68
Width: 731
VWidth: 0
Flags: HW
HStem: 1 67<253 319> 144 67<123 186 253 319> 312 64<621.288 752.833> 583 65<623.457 752.793 826 996>
VStem: 56.4443 66.5557<-1 144> 186 67<68 144 211 586> 319 67<68 144> 510 68<0 348 418.657 540.488> 796.896 67.1045<420.914 539.966>
LayerCount: 2
Fore
SplineSet
472 480 m 0
 472 530.396484375 426.529296875 584 366 584 c 2
 361 584 l 2
 307 584 253 542 253 481 c 0
 253 416.201171875 309.98828125 377 362 377 c 0
 435 377 472 438 472 480 c 0
671 649 m 1
 671 584 l 1
 501 584 l 1
 525 556 539 520 539 481 c 0
 539 388 460 313 362 313 c 0
 321 313 283 326 253 349 c 1
 253 211 l 1
 386 211 l 1
 386 0 l 1
 186 0 l 1
 186 144 l 1
 165 144 144 144 123 144 c 1
 123 0 l 1
 56 0 l 1
 56 211 l 1
 186 211 l 1
 186 481 l 2
 186 572 262 646 358 649 c 1
 671 649 l 1
319 144 m 1
 297 144 275 144 253 144 c 1
 253 68 l 1
 319 68 l 1
 319 144 l 1
EndSplineSet
LCarets2: 1 0
Ligature2: "+VAhbVzB4MG5/bmPb in +MOkwxjDzZYdbVwAA lookup 0-1" t a
EndChar

StartChar: t_u
Encoding: 321 -1 69
Width: 650
VWidth: 0
Flags: HW
HStem: 1 67<253 319> 144 67<123 186 253 319> 357 67<490 675 786.757 914.089> 640 67<785.233 913.77>
VStem: 56.4443 66.5557<-1 144> 186 67<68 144 211 586> 319 67<68 144> 675 67.0615<0 357 468.91 594.495> 958.432 66.8242<468.038 595.787>
LayerCount: 2
Fore
SplineSet
416 638 m 2
 411 638 l 2
 353 638 304 589 304 532 c 0
 304 474 351 421 412 421 c 0
 465 421 520 465 520 531 c 0
 520 586 472 638 416 638 c 2
406 705 m 2
 415 705 l 2
 460 705 505 686 536 654 c 0
 572 622 587 580 587 537 c 0
 587 447 518 355 421 355 c 2
 304 355 l 1
 304 210 l 1
 437 210 l 1
 437 0 l 1
 237 0 l 1
 237 143 l 1
 216 143 195 143 174 143 c 1
 174 0 l 5
 107 0 l 5
 107 210 l 1
 237 210 l 1
 237 355 l 1
 52 355 l 1
 52 422 l 1
 237 422 l 1
 237 511 l 2
 237 516 236 521 236 526 c 0
 236 617 310 705 406 705 c 2
370 143 m 1
 348 143 326 143 304 143 c 1
 304 67 l 1
 370 67 l 1
 370 143 l 1
EndSplineSet
LCarets2: 1 0
Ligature2: "+VAhbVzB4MG5/bmPb in +MOkwxjDzZYdbVwAA lookup 0-1" t u
EndChar

StartChar: t_o
Encoding: 322 -1 70
Width: 621
VWidth: 0
Flags: HW
HStem: 1 67<390 456> 144 67<260 323 390 456> 343 67<742.724 870.055 981.812 1166.81> 626 67<743.041 871.58>
VStem: 193.444 66.5557<-1 144> 323 67<68 144 211 586> 456 67<68 144> 632 66.3799<454.049 581.796> 914.812 67<0 343 454.91 580.495>
LayerCount: 2
Fore
SplineSet
216 626 m 2
 211 626 l 2
 155 626 106 574 106 519 c 0
 106 453 162 409 215 409 c 0
 276 409 323 462 323 520 c 0
 323 577 274 626 216 626 c 2
211 693 m 2
 221 693 l 2
 317 693 391 605 391 514 c 0
 391 509 390 504 390 499 c 2
 390 410 l 1
 575 410 l 1
 575 343 l 1
 390 343 l 1
 390 211 l 1
 523 211 l 1
 523 0 l 1
 323 0 l 1
 323 144 l 1
 302 144 281 144 260 144 c 1
 260 0 l 1
 193 0 l 1
 193 211 l 1
 323 211 l 1
 323 343 l 1
 206 343 l 2
 109 343 40 435 40 525 c 0
 40 568 56 610 91 642 c 0
 122 674 166 693 211 693 c 2
456 144 m 1
 434 144 412 144 390 144 c 1
 390 68 l 1
 456 68 l 1
 456 144 l 1
EndSplineSet
LCarets2: 1 0
Ligature2: "+VAhbVzB4MG5/bmPb in +MOkwxjDzZYdbVwAA lookup 0-1" t o
EndChar

StartChar: t_e
Encoding: 323 -1 71
Width: 440
VWidth: 0
Flags: HW
HStem: 1 67<253 319> 144 67<123 186 253 319> 302 69<600.587 637> 578 68<600.587 637> 663 20G<637 704>
VStem: 56.4443 66.5557<-1 144> 186 67<68 144 211 586> 319 67<68 144> 494 67.9531<408.527 539.449> 637 67<0 306.538 372 577 641.479 683> 777.125 66.875<409.443 539.5>
LayerCount: 2
Fore
SplineSet
253 576 m 1
 253 371 l 1
 302 387 326 431 326 474 c 0
 326 517 302 560 253 576 c 1
186 577 m 1
 137 562 111 517 111 472 c 0
 111 429 135 387 186 370 c 1
 186 577 l 1
186 682 m 1
 253 682 l 1
 253 645 l 1
 333 629 393 558 393 473 c 0
 393 389 333 318 253 302 c 1
 253 211 l 1
 386 211 l 1
 386 0 l 1
 186 0 l 1
 186 144 l 1
 165 144 144 144 123 144 c 1
 123 0 l 1
 56 0 l 1
 56 211 l 1
 186 211 l 1
 186 301 l 1
 105 316 43 388 43 473 c 0
 43 559 105 630 186 645 c 1
 186 682 l 1
319 144 m 1
 297 144 275 144 253 144 c 1
 253 68 l 1
 319 68 l 1
 319 144 l 1
EndSplineSet
LCarets2: 1 0
Ligature2: "+VAhbVzB4MG5/bmPb in +MOkwxjDzZYdbVwAA lookup 0-1" t e
EndChar

StartChar: n_i
Encoding: 349 -1 97
Width: 693
VWidth: 0
Flags: HW
HStem: 0 65<444.152 555.081> 325 67<984.549 1112.08> 608 67<742 911 985.004 1112.02>
VStem: 351 66<92.5772 202.395> 464 67<283.544 674> 582 63<92.5772 202.48> 873 66.875<435.943 563.33> 1157 67<0 363 437.016 563.236>
LayerCount: 2
Fore
SplineSet
463.908203125 500.703125 m 0
 463.908203125 555.850585938 418.470703125 608 357 608 c 0
 293.315429688 608 246.875 556.84375 246.875 500.287109375 c 0
 246.875 444.665039062 292.029296875 395.165039062 349 392 c 1
 356 392 l 2
 416.997070312 392 463.908203125 443.814453125 463.908203125 500.703125 c 0
49 675 m 1
 360 675 l 1
 455 673 531 594.96484375 531 500 c 2
 531 290 l 1
 596 275 645 216 645 147 c 0
 645 66 579 0 498 0 c 0
 417 0 351 66 351 147 c 0
 351 216 399 274 464 290 c 1
 464 363 l 1
 434 339 397 325 356 325 c 0
 259 325 180 403 180 500 c 0
 180 541 194 578 218 608 c 1
 49 608 l 1
 49 675 l 1
500 230 m 0
 454 230 417 193 417 147 c 0
 417 102 454 65 500 65 c 0
 545 65 582 102 582 147 c 0
 582 193 545 230 500 230 c 0
EndSplineSet
LCarets2: 1 0
Ligature2: "+VAhbVzB4MG5/bmPb in +MOkwxjDzZYdbVwAA lookup 0-1" n i
EndChar

StartChar: n_a
Encoding: 350 -1 98
Width: 707
VWidth: 0
Flags: HW
HStem: 0 65<143.152 254.081> 312 64<575.288 706.833> 583 65<577.457 706.793 780 950> 654 20G<163 230>
VStem: 50 66<92.5772 202.395> 163 67<283.544 674> 281 63<92.5772 202.48> 464 68<0 348 418.657 540.488> 750.896 67.1045<420.914 539.966>
LayerCount: 2
Fore
SplineSet
448.895507812 479.869140625 m 0
 448.895507812 532.922862803 401.458824662 584 343 584 c 0
 341 584 340 584 338 584 c 0
 284.370117188 584 229.884765625 542.10546875 229.884765625 481.243164062 c 0
 229.884765625 418.063108387 285.089150406 377 339 377 c 0
 411.5703125 377 448.895507812 438.091796875 448.895507812 479.869140625 c 0
648 649 m 1
 648 584 l 1
 478 584 l 1
 502 556 516 520 516 481 c 0
 516 388 437 313 339 313 c 0
 298 313 260 326 230 349 c 1
 230 290 l 1
 295 275 344 216 344 147 c 0
 344 66 278 0 197 0 c 0
 116 0 50 66 50 147 c 0
 50 216 98 274 163 290 c 1
 163 481 l 2
 163 572 239 646 335 649 c 1
 648 649 l 1
199 230 m 0
 153 230 116 193 116 147 c 0
 116 102 153 65 199 65 c 0
 244 65 281 102 281 147 c 0
 281 193 244 230 199 230 c 0
EndSplineSet
LCarets2: 1 197
Ligature2: "+VAhbVzB4MG5/bmPb in +MOkwxjDzZYdbVwAA lookup 0-1" n a
EndChar

StartChar: n_u
Encoding: 351 -1 99
Width: 630
VWidth: 0
Flags: HW
HStem: 0 65<215.152 326.081> 357 67<516 701 812.757 940.089> 640 67<811.233 939.77> 654 20G<235 302>
VStem: 122 66<92.5772 202.395> 235 67<283.544 674> 353 63<92.5772 202.48> 701 67.0615<0 357 468.91 594.495> 984.432 66.8242<468.038 595.787>
LayerCount: 2
Fore
SplineSet
271 230 m 0
 225 230 188 193 188 147 c 0
 188 102 225 65 271 65 c 0
 316 65 353 102 353 147 c 0
 353 193 316 230 271 230 c 0
50 357 m 1
 50 424 l 1
 235 424 l 1
 235 513 l 2
 234.536132812 518.049804688 234.30859375 523.10546875 234.30859375 528.151367188 c 0
 234.30859375 619.127929688 308.236328125 707.116210938 403.967773438 707.116210938 c 0
 405.96875 707.116210938 407.98046875 707.078125 410 707 c 0
 411.154296875 707.025390625 412.30859375 707.037109375 413.462890625 707.037109375 c 0
 458.299804688 707.037109375 502.802734375 688.171875 534 656 c 0
 569.61328125 624.237304688 585.255859375 581.768554688 585.255859375 538.833007812 c 0
 585.255859375 448.924804688 516.661132812 356.966796875 419.197265625 356.966796875 c 0
 418.134765625 356.966796875 417.069335938 356.978515625 416 357 c 0
 378 357 340 357 302 357 c 1
 302 290 l 1
 367 275 416 216 416 147 c 0
 416 66 350 0 269 0 c 0
 188 0 122 66 122 147 c 0
 122 216 170 274 235 290 c 1
 235 357 l 1
 50 357 l 1
409.859375 423.431640625 m 0
 463.198242188 423.431640625 518.431640625 467.6875 518.431640625 533.336914062 c 0
 518.431640625 588.622070312 470.14453125 640.046875 413.923828125 640.046875 c 0
 412.952148438 640.046875 411.9765625 640.03125 411 640 c 0
 410.228515625 640.017578125 409.45703125 640.02734375 408.686523438 640.02734375 c 0
 350.594726562 640.02734375 302.061523438 591.004882812 302.061523438 533.819335938 c 0
 302.061523438 475.501953125 348.715820312 423.431640625 409.859375 423.431640625 c 0
EndSplineSet
LCarets2: 1 267
Ligature2: "+VAhbVzB4MG5/bmPb in +MOkwxjDzZYdbVwAA lookup 0-1" n u
EndChar

StartChar: n_o
Encoding: 352 -1 100
Width: 621
VWidth: 0
Flags: HW
HStem: 0 65<310.152 421.081> 343 67<726.724 854.055 965.812 1150.81> 626 67<727.041 855.58> 654 20G<330 397>
VStem: 217 66<92.5772 202.395> 330 67<283.544 674> 448 63<92.5772 202.48> 616 66.3799<454.049 581.796> 898.812 67<0 343 454.91 580.495>
LayerCount: 2
Fore
SplineSet
366 230 m 0
 320 230 283 193 283 147 c 0
 283 102 320 65 366 65 c 0
 411 65 448 102 448 147 c 0
 448 193 411 230 366 230 c 0
221.8125 693 m 0
 223.83203125 693.078125 225.842773438 693.116210938 227.844726562 693.116210938 c 0
 323.576171875 693.116210938 397.502929688 605.127929688 397.502929688 514.151367188 c 0
 397.502929688 509.10546875 397.276367188 504.049804688 396.8125 499 c 2
 396.8125 410 l 1
 581.8125 410 l 1
 581.8125 343 l 1
 396.961914062 343 l 1
 397 290 l 1
 462 275 511 216 511 147 c 0
 511 66 445 0 364 0 c 0
 283 0 217 66 217 147 c 0
 217 215.967773438 264.955078125 273.946289062 329.909179688 289.977539062 c 1
 329.8125 343 l 1
 291.8125 343 253.8125 343 215.8125 343 c 0
 214.743164062 342.978515625 213.677734375 342.966796875 212.615234375 342.966796875 c 0
 115.1484375 342.966796875 47 434.948242188 47 524.8671875 c 0
 47 567.791015625 62.529296875 610.245117188 97.8125 642 c 0
 129.008789062 674.171875 173.512695312 693.037109375 218.349609375 693.037109375 c 0
 219.50390625 693.037109375 220.658203125 693.025390625 221.8125 693 c 0
329.75 519.819335938 m 0
 329.75 577.001953125 281.21875 626.02734375 223.125976562 626.02734375 c 0
 222.35546875 626.02734375 221.583984375 626.017578125 220.8125 626 c 0
 219.834960938 626.03125 218.860351562 626.046875 217.887695312 626.046875 c 0
 161.66796875 626.046875 113.379882812 574.622070312 113.379882812 519.336914062 c 0
 113.379882812 453.685546875 168.616210938 409.431640625 221.953125 409.431640625 c 0
 283.094726562 409.431640625 329.75 461.5 329.75 519.819335938 c 0
EndSplineSet
LCarets2: 1 364
Ligature2: "+VAhbVzB4MG5/bmPb in +MOkwxjDzZYdbVwAA lookup 0-1" n o
EndChar

StartChar: n_e
Encoding: 353 -1 101
Width: 423
VWidth: 0
Flags: HW
HStem: 0 65<156.152 267.081> 302 69<567.587 604> 578 68<567.587 604> 654 20G<176 243 604 671>
VStem: 63 66<92.5772 202.395> 176 67<283.544 674> 294 63<92.5772 202.48> 461 67.9531<408.527 539.449> 604 67<0 306.538 372 577 641.479 683> 744.125 66.875<409.443 539.5>
LayerCount: 2
Fore
SplineSet
212 230 m 0
 166 230 129 193 129 147 c 0
 129 102 166 65 212 65 c 0
 257 65 294 102 294 147 c 0
 294 193 257 230 212 230 c 0
176 293 m 1
 95 308 33 380 33 465 c 0
 33 551 95 622 176 637 c 1
 176 674 l 1
 243 674 l 1
 243 637 l 1
 323 621 383 550 383 465 c 0
 383 381 323 310 243 294 c 1
 243 290 l 1
 308 275 357 216 357 147 c 0
 357 66 291 0 210 0 c 0
 129 0 63 66 63 147 c 0
 63 216 111 274 176 290 c 1
 176 293 l 1
176 362 m 1
 176 569 l 1
 127.314453125 554.137695312 100.953125 509.073242188 100.953125 464.08984375 c 0
 100.953125 421.295898438 124.809570312 378.576171875 176 362 c 1
243 363 m 1
 291.874023438 379.458007812 316.125 422.528320312 316.125 465.54296875 c 0
 316.125 508.779296875 291.624023438 551.958984375 243 568 c 1
 243 363 l 1
EndSplineSet
LCarets2: 1 208
Ligature2: "+VAhbVzB4MG5/bmPb in +MOkwxjDzZYdbVwAA lookup 0-1" n e
EndChar

StartChar: h_i
Encoding: 364 -1 112
Width: 1040
VWidth: 0
HStem: 1 21G<69 136 904 971> 1 21G<69 136 904 971> 325 67<731.549 859.076> 498 67<136 387> 608 67<489 658 732.004 859.02>
VStem: 69 67<1 498> 620 66.875<435.943 563.33> 904 67<0 363 437.016 563.236>
LayerCount: 2
Fore
SplineSet
69 1 m 5xbf
 69 189 69 377 69 565 c 5
 175 565 281 565 387 565 c 5
 387 498 l 5
 136 498 l 5
 136 1 l 5
 69 1 l 5xbf
489 675 m 1
 800 675 l 1
 895 673 971 595 971 500 c 2
 971 0 l 1
 904 0 l 1
 904 363 l 1
 874 339 837 325 796 325 c 0
 699 325 620 403 620 500 c 0
 620 541 634 578 658 608 c 1
 489 608 l 1
 489 675 l 1
797 608 m 0
 733.315429688 608 686.875 556.84375 686.875 500.287109375 c 0
 686.875 482.24609375 691.600585938 463.655273438 702 446 c 0
 720 415 753 394 789 392 c 1
 796 392 l 2
 856.997070312 392 903.908203125 443.814453125 903.908203125 500.703125 c 0
 903.908203125 524.022460938 896.025390625 548.1953125 878 570 c 0
 871 579 843 608 797 608 c 0
EndSplineSet
Validated: 1
Ligature2: "+VAhbVzB4MG5/bmPb in +MOkwxjDzZYdbVwAA lookup 0-1" h i
EndChar

StartChar: h_a
Encoding: 365 -1 113
Width: 1047
VWidth: 0
HStem: 0 22G<69 136 512 580> 0 22G<69 136 512 580> 312 64<623.288 754.833> 498 67<136 387> 583 65<625.457 754.793 828 998>
VStem: 69 67<1 498> 512 68<0 348 418.657 540.488> 798.896 67.1045<420.914 539.966>
LayerCount: 2
Fore
SplineSet
69 1 m 5x3f
 69 189 69 377 69 565 c 5
 175 565 281 565 387 565 c 5
 387 498 l 5
 136 498 l 5
 136 1 l 5
 69 1 l 5x3f
998 648 m 1
 998 583 l 1
 828 583 l 1
 852 555 866 519 866 480 c 0
 866 387 787 312 689 312 c 0
 648 312 610 325 580 348 c 1
 580 0 l 1
 512 0 l 1xbf
 512 478 l 1
 513 478 l 1
 513 480 l 2
 513 571 589 645 685 648 c 1
 998 648 l 1
688 583 m 0
 634.370117188 583 579.884765625 541.10546875 579.884765625 480.243164062 c 0
 579.884765625 475.284179688 580.24609375 470.198242188 581 465 c 0
 590 407 643 376 689 376 c 4
 761.5703125 376 798.895507812 437.091796875 798.895507812 478.869140625 c 4
 798.895507812 484.297851562 798.264648438 489.400390625 797 494 c 1
 789 550 737 583 693 583 c 0
 691 583 690 583 688 583 c 0
EndSplineSet
Validated: 1
Ligature2: "+VAhbVzB4MG5/bmPb in +MOkwxjDzZYdbVwAA lookup 0-1" h a
EndChar

StartChar: h_u
Encoding: 366 -1 114
Width: 1085
VWidth: 0
HStem: 1 21G<69 136 676 743> 1 21G<69 136 676 743> 357 67<492 677 788.757 916.089> 498 67<136 387> 640 67<787.233 915.77>
VStem: 69 67<1 498> 677 67.0615<0 357 468.91 594.495> 960.432 66.8242<468.038 595.787>
LayerCount: 2
Fore
SplineSet
69 1 m 5xbf
 69 189 69 377 69 565 c 5
 175 565 281 565 387 565 c 5
 387 498 l 5
 136 498 l 5
 136 1 l 5
 69 1 l 5xbf
852 707 m 0
 853.154296875 707.025390625 854.30859375 707.037109375 855.462890625 707.037109375 c 0
 900.299804688 707.037109375 944.802734375 688.171875 976 656 c 0
 1011.61328125 624.237304688 1027.25585938 581.768554688 1027.25585938 538.833007812 c 0
 1027.25585938 448.924804688 958.661132812 356.966796875 861.197265625 356.966796875 c 0
 860.134765625 356.966796875 859.069335938 356.978515625 858 357 c 0
 820 357 782 357 744 357 c 1
 744 228 743 129 743 0 c 1
 676 0 l 1
 676 129 677 228 677 357 c 1
 492 357 l 1
 492 424 l 1
 677 424 l 1
 677 513 l 2
 676.536132812 518.049804688 676.30859375 523.10546875 676.30859375 528.151367188 c 0
 676.30859375 619.127929688 750.236328125 707.116210938 845.967773438 707.116210938 c 0
 847.96875 707.116210938 849.98046875 707.078125 852 707 c 0
851.859375 423.431640625 m 0
 905.198242188 423.431640625 960.431640625 467.6875 960.431640625 533.336914062 c 0
 960.431640625 588.622070312 912.14453125 640.046875 855.923828125 640.046875 c 0
 854.952148438 640.046875 853.9765625 640.03125 853 640 c 0
 852.228515625 640.017578125 851.45703125 640.02734375 850.686523438 640.02734375 c 0
 792.594726562 640.02734375 744.061523438 591.004882812 744.061523438 533.819335938 c 0
 744.061523438 475.501953125 790.715820312 423.431640625 851.859375 423.431640625 c 0
EndSplineSet
Validated: 1
Ligature2: "+VAhbVzB4MG5/bmPb in +MOkwxjDzZYdbVwAA lookup 0-1" h u
EndChar

StartChar: h_o
Encoding: 367 -1 115
Width: 1087
VWidth: 0
HStem: 1 21G<69 136 779.812 846.812> 1 21G<69 136 779.812 846.812> 343 67<607.724 735.055 846.812 1031.81> 498 67<136 387> 626 67<608.041 736.58>
VStem: 69 67<1 498> 497 66.3799<454.049 581.796> 779.812 67<0 343 454.91 580.495>
LayerCount: 2
Fore
SplineSet
69 1 m 5xbf
 69 189 69 377 69 565 c 5
 175 565 281 565 387 565 c 5
 387 498 l 5
 136 498 l 5
 136 1 l 5
 69 1 l 5xbf
671.8125 693 m 4
 673.83203125 693.078125 675.842773438 693.116210938 677.844726562 693.116210938 c 4
 773.576171875 693.116210938 847.502929688 605.127929688 847.502929688 514.151367188 c 4
 847.502929688 509.10546875 847.276367188 504.049804688 846.8125 499 c 6
 846.8125 410 l 5
 1031.8125 410 l 5
 1031.8125 343 l 5
 846.8125 343 l 5
 846.8125 0 l 5
 779.8125 0 l 5
 779.8125 343 l 5
 741.8125 343 703.8125 343 665.8125 343 c 4
 664.743164062 342.978515625 663.677734375 342.966796875 662.615234375 342.966796875 c 4
 565.1484375 342.966796875 497 434.948242188 497 524.8671875 c 4
 497 567.791015625 512.529296875 610.245117188 547.8125 642 c 4
 579.008789062 674.171875 623.512695312 693.037109375 668.349609375 693.037109375 c 4
 669.50390625 693.037109375 670.658203125 693.025390625 671.8125 693 c 4
779.75 519.819335938 m 4
 779.75 577.001953125 731.21875 626.02734375 673.125976562 626.02734375 c 4
 672.35546875 626.02734375 671.583984375 626.017578125 670.8125 626 c 4
 669.834960938 626.03125 668.860351562 626.046875 667.887695312 626.046875 c 4
 611.66796875 626.046875 563.379882812 574.622070312 563.379882812 519.336914062 c 4
 563.379882812 453.685546875 618.616210938 409.431640625 671.953125 409.431640625 c 4
 733.094726562 409.431640625 779.75 461.5 779.75 519.819335938 c 4
EndSplineSet
Validated: 1
Ligature2: "+VAhbVzB4MG5/bmPb in +MOkwxjDzZYdbVwAA lookup 0-1" h o
EndChar

StartChar: h_e
Encoding: 368 -1 116
Width: 903
VWidth: 0
HStem: 1 21G<69 136 639 706> 1 21G<69 136 639 706> 302 69<602.587 639> 498 67<136 387> 578 68<602.587 639> 663 20G<639 706>
VStem: 69 67<1 498> 496 67.9531<408.527 539.449> 639 67<0 306.538 372 577 641.479 683> 779.125 66.875<409.443 539.5>
LayerCount: 2
Fore
SplineSet
69 1 m 5xbfc0
 69 189 69 377 69 565 c 5
 175 565 281 565 387 565 c 5
 387 498 l 5
 136 498 l 5
 136 1 l 5
 69 1 l 5xbfc0
639 683 m 1
 706 683 l 1
 706 646 l 1
 786 630 846 559 846 474 c 0
 846 390 786 319 706 303 c 1
 706 0 l 1
 639 0 l 1
 639 302 l 1
 558 317 496 389 496 474 c 0
 496 560 558 631 639 646 c 1
 639 683 l 1
639 578 m 1
 590.314453125 563.137695312 563.953125 518.073242188 563.953125 473.08984375 c 0
 563.953125 430.295898438 587.809570312 387.576171875 639 371 c 5
 639 578 l 1
706 577 m 1
 706 372 l 1
 754.874023438 388.458007812 779.125 431.528320312 779.125 474.54296875 c 0
 779.125 517.779296875 754.624023438 560.958984375 706 577 c 1
EndSplineSet
Validated: 1
Ligature2: "+VAhbVzB4MG5/bmPb in +MOkwxjDzZYdbVwAA lookup 0-1" h e
EndChar

StartChar: h_w_i
Encoding: 369 -1 117
Width: 1297
VWidth: 0
HStem: -199 33<535.117 609.495> -63 33<535.189 609.931> 0 22G<69 136 539 606.016 1161 1228> 0 22G<69 136 539 606.016 1161 1228> 325 67<988.549 1116.08> 498 67<136 387> 608 67<746 915 989.004 1116.02> 619 20G<539 606.016>
VStem: 69 67<1 498> 488 33<-150.623 -77.1431 -48 -29> 539 67.0156<0 639> 625 32<-149.005 -78.8774 -48 -28> 877 66.875<435.943 563.33> 1161 67<0 363 437.016 563.236>
LayerCount: 2
Fore
SplineSet
69 1 m 5xccfc
 69 189 69 377 69 565 c 5
 175 565 281 565 387 565 c 5
 387 498 l 5
 136 498 l 5
 136 1 l 5
 69 1 l 5xccfc
539 639 m 1xedfc
 606.015625 639 l 1
 606.015625 0 l 1
 539 0 l 1
 539 639 l 1xedfc
625 -28 m 5
 657 -28 l 5
 657 -114 l 6
 657 -161 619 -199 573 -199 c 4
 527 -199 490 -162 488 -117 c 5
 488 -29 l 5
 521 -29 l 5
 521 -48 l 5
 535 -36 553 -30 573 -30 c 4
 592 -30 610 -36 625 -48 c 5
 625 -28 l 5
572 -63 m 4
 544 -63 521 -86 521 -114 c 4
 521 -142 544 -166 572 -166 c 4
 601 -166 624 -142 624 -114 c 4
 624 -86 601 -63 572 -63 c 4
746 675 m 1xeefc
 1057 675 l 1
 1152 673 1228 595 1228 500 c 2
 1228 0 l 1
 1161 0 l 1
 1161 363 l 1
 1131 339 1094 325 1053 325 c 0
 956 325 877 403 877 500 c 0
 877 541 891 578 915 608 c 1
 746 608 l 1
 746 675 l 1xeefc
1054 608 m 0
 990.315429688 608 943.875 556.84375 943.875 500.287109375 c 0
 943.875 482.24609375 948.600585938 463.655273438 959 446 c 0
 977 415 1010 394 1046 392 c 1
 1053 392 l 2
 1113.99707031 392 1160.90820312 443.814453125 1160.90820312 500.703125 c 0
 1160.90820312 524.022460938 1153.02539062 548.1953125 1135 570 c 0
 1128 579 1100 608 1054 608 c 0
EndSplineSet
Validated: 1
Ligature2: "+VAhbVzB4MG5/bmPb in +MOkwxjDzZYdbVwAA lookup 0-1" h w i
EndChar

StartChar: h_w_a
Encoding: 370 -1 118
Width: 1304
VWidth: 0
HStem: -199 33<535.117 609.495> -63 33<535.189 609.931> 0 22G<69 136 539 606.016 769 837> 0 22G<69 136 539 606.016 769 837> 312 64<880.288 1011.83> 498 67<136 387> 583 65<882.457 1011.79 1085 1255> 619 20G<539 606.016>
VStem: 69 67<1 498> 488 33<-150.623 -77.1431 -48 -29> 539 67.0156<0 639> 625 32<-149.005 -78.8774 -48 -28> 769 68<0 348 418.657 540.488> 1055.9 67.1045<420.914 539.966>
LayerCount: 2
Fore
SplineSet
69 1 m 5xccfc
 69 189 69 377 69 565 c 5
 175 565 281 565 387 565 c 5
 387 498 l 5
 136 498 l 5
 136 1 l 5
 69 1 l 5xccfc
539 639 m 1xedfc
 606.015625 639 l 1
 606.015625 0 l 1
 539 0 l 1
 539 639 l 1xedfc
625 -28 m 5
 657 -28 l 5
 657 -114 l 6
 657 -161 619 -199 573 -199 c 4
 527 -199 490 -162 488 -117 c 5
 488 -29 l 5
 521 -29 l 5
 521 -48 l 5
 535 -36 553 -30 573 -30 c 4
 592 -30 610 -36 625 -48 c 5
 625 -28 l 5
572 -63 m 4
 544 -63 521 -86 521 -114 c 4
 521 -142 544 -166 572 -166 c 4
 601 -166 624 -142 624 -114 c 4
 624 -86 601 -63 572 -63 c 4
1255 648 m 1xeefc
 1255 583 l 1
 1085 583 l 1
 1109 555 1123 519 1123 480 c 0
 1123 387 1044 312 946 312 c 0
 905 312 867 325 837 348 c 1
 837 0 l 1
 769 0 l 1
 769 478 l 1
 770 478 l 1
 770 480 l 2
 770 571 846 645 942 648 c 1
 1255 648 l 1xeefc
945 583 m 0
 891.370117188 583 836.884765625 541.10546875 836.884765625 480.243164062 c 0
 836.884765625 475.284179688 837.24609375 470.198242188 838 465 c 0
 847 407 900 376 946 376 c 4
 1018.5703125 376 1055.89550781 437.091796875 1055.89550781 478.869140625 c 4
 1055.89550781 484.297851562 1055.26464844 489.400390625 1054 494 c 1
 1046 550 994 583 950 583 c 0
 948 583 947 583 945 583 c 0
EndSplineSet
Validated: 1
Ligature2: "+VAhbVzB4MG5/bmPb in +MOkwxjDzZYdbVwAA lookup 0-1" h w a
EndChar

StartChar: h_w_u
Encoding: 371 -1 119
Width: 1342
VWidth: 0
HStem: -199 33<535.117 609.495> -63 33<535.189 609.931> 0 22G<69 136 539 606.016 933 1000> 0 22G<69 136 539 606.016 933 1000> 357 67<749 934 1045.76 1173.09> 498 67<136 387> 619 20G<539 606.016> 640 67<1044.23 1172.77>
VStem: 69 67<1 498> 488 33<-150.623 -77.1431 -48 -29> 539 67.0156<0 639> 625 32<-149.005 -78.8774 -48 -28> 934 67.0615<0 357 468.91 594.495> 1217.43 66.8242<468.038 595.787>
LayerCount: 2
Fore
SplineSet
69 1 m 5xcffc
 69 189 69 377 69 565 c 5
 175 565 281 565 387 565 c 5
 387 498 l 5
 136 498 l 5
 136 1 l 5
 69 1 l 5xcffc
539 639 m 1
 606.015625 639 l 1
 606.015625 0 l 1
 539 0 l 1xeffc
 539 639 l 1
625 -28 m 5
 657 -28 l 5
 657 -114 l 6
 657 -161 619 -199 573 -199 c 4
 527 -199 490 -162 488 -117 c 5
 488 -29 l 5
 521 -29 l 5
 521 -48 l 5
 535 -36 553 -30 573 -30 c 4
 592 -30 610 -36 625 -48 c 5
 625 -28 l 5
572 -63 m 4
 544 -63 521 -86 521 -114 c 4
 521 -142 544 -166 572 -166 c 4
 601 -166 624 -142 624 -114 c 4
 624 -86 601 -63 572 -63 c 4
1109 707 m 0
 1110.15429688 707.025390625 1111.30859375 707.037109375 1112.46289062 707.037109375 c 0
 1157.29980469 707.037109375 1201.80273438 688.171875 1233 656 c 0
 1268.61328125 624.237304688 1284.25585938 581.768554688 1284.25585938 538.833007812 c 0
 1284.25585938 448.924804688 1215.66113281 356.966796875 1118.19726562 356.966796875 c 0
 1117.13476562 356.966796875 1116.06933594 356.978515625 1115 357 c 0
 1077 357 1039 357 1001 357 c 1
 1001 228 1000 129 1000 0 c 1
 933 0 l 1
 933 129 934 228 934 357 c 1
 749 357 l 1
 749 424 l 1
 934 424 l 1
 934 513 l 2
 933.536132812 518.049804688 933.30859375 523.10546875 933.30859375 528.151367188 c 0
 933.30859375 619.127929688 1007.23632812 707.116210938 1102.96777344 707.116210938 c 0
 1104.96875 707.116210938 1106.98046875 707.078125 1109 707 c 0
1108.859375 423.431640625 m 0
 1162.19824219 423.431640625 1217.43164062 467.6875 1217.43164062 533.336914062 c 0
 1217.43164062 588.622070312 1169.14453125 640.046875 1112.92382812 640.046875 c 0
 1111.95214844 640.046875 1110.9765625 640.03125 1110 640 c 0
 1109.22851562 640.017578125 1108.45703125 640.02734375 1107.68652344 640.02734375 c 0
 1049.59472656 640.02734375 1001.06152344 591.004882812 1001.06152344 533.819335938 c 0
 1001.06152344 475.501953125 1047.71582031 423.431640625 1108.859375 423.431640625 c 0
EndSplineSet
Validated: 1
Ligature2: "+VAhbVzB4MG5/bmPb in +MOkwxjDzZYdbVwAA lookup 0-1" h w u
EndChar

StartChar: h_w_o
Encoding: 372 -1 120
Width: 1344
VWidth: 0
HStem: -199 33<535.117 609.495> -63 33<535.189 609.931> 0 22G<69 136 539 606.016 1036.81 1103.81> 0 22G<69 136 539 606.016 1036.81 1103.81> 343 67<864.724 992.055 1103.81 1288.81> 498 67<136 387> 619 20G<539 606.016> 626 67<865.041 993.58>
VStem: 69 67<1 498> 488 33<-150.623 -77.1431 -48 -29> 539 67.0156<0 639> 625 32<-149.005 -78.8774 -48 -28> 754 66.3799<454.049 581.796> 1036.81 67<0 343 454.91 580.495>
LayerCount: 2
Fore
SplineSet
69 1 m 5xccfc
 69 189 69 377 69 565 c 5
 175 565 281 565 387 565 c 5
 387 498 l 5
 136 498 l 5
 136 1 l 5
 69 1 l 5xccfc
539 639 m 1xeefc
 606.015625 639 l 1
 606.015625 0 l 1
 539 0 l 1
 539 639 l 1xeefc
625 -28 m 5
 657 -28 l 5
 657 -114 l 6
 657 -161 619 -199 573 -199 c 4
 527 -199 490 -162 488 -117 c 5
 488 -29 l 5
 521 -29 l 5
 521 -48 l 5
 535 -36 553 -30 573 -30 c 4
 592 -30 610 -36 625 -48 c 5
 625 -28 l 5
572 -63 m 4
 544 -63 521 -86 521 -114 c 4
 521 -142 544 -166 572 -166 c 4
 601 -166 624 -142 624 -114 c 4
 624 -86 601 -63 572 -63 c 4
928.8125 693 m 4xedfc
 930.83203125 693.078125 932.842773438 693.116210938 934.844726562 693.116210938 c 4
 1030.57617188 693.116210938 1104.50292969 605.127929688 1104.50292969 514.151367188 c 4
 1104.50292969 509.10546875 1104.27636719 504.049804688 1103.8125 499 c 6
 1103.8125 410 l 5
 1288.8125 410 l 5
 1288.8125 343 l 5
 1103.8125 343 l 5
 1103.8125 0 l 5
 1036.8125 0 l 5
 1036.8125 343 l 5
 998.8125 343 960.8125 343 922.8125 343 c 4
 921.743164062 342.978515625 920.677734375 342.966796875 919.615234375 342.966796875 c 4
 822.1484375 342.966796875 754 434.948242188 754 524.8671875 c 4
 754 567.791015625 769.529296875 610.245117188 804.8125 642 c 4
 836.008789062 674.171875 880.512695312 693.037109375 925.349609375 693.037109375 c 4
 926.50390625 693.037109375 927.658203125 693.025390625 928.8125 693 c 4xedfc
1036.75 519.819335938 m 4
 1036.75 577.001953125 988.21875 626.02734375 930.125976562 626.02734375 c 4
 929.35546875 626.02734375 928.583984375 626.017578125 927.8125 626 c 4
 926.834960938 626.03125 925.860351562 626.046875 924.887695312 626.046875 c 4
 868.66796875 626.046875 820.379882812 574.622070312 820.379882812 519.336914062 c 4
 820.379882812 453.685546875 875.616210938 409.431640625 928.953125 409.431640625 c 4
 990.094726562 409.431640625 1036.75 461.5 1036.75 519.819335938 c 4
EndSplineSet
Validated: 1
Ligature2: "+VAhbVzB4MG5/bmPb in +MOkwxjDzZYdbVwAA lookup 0-1" h w o
EndChar

StartChar: h_w_e
Encoding: 373 -1 121
Width: 1160
VWidth: 0
HStem: -199 33<535.117 609.495> -63 33<535.189 609.931> 0 22G<69 136 539 606.016 896 963> 0 22G<69 136 539 606.016 896 963> 302 69<859.587 896> 498 67<136 387> 578 68<859.587 896> 619 20G<539 606.016 896 963>
VStem: 69 67<1 498> 488 33<-150.623 -77.1431 -48 -29> 539 67.0156<0 639> 625 32<-149.005 -78.8774 -48 -28> 753 67.9531<408.527 539.449> 896 67<0 306.538 372 577 641.479 683> 1036.12 66.875<409.443 539.5>
LayerCount: 2
Fore
SplineSet
69 1 m 5xccfe
 69 189 69 377 69 565 c 5
 175 565 281 565 387 565 c 5
 387 498 l 5
 136 498 l 5
 136 1 l 5
 69 1 l 5xccfe
539 639 m 1xedfe
 606.015625 639 l 1
 606.015625 0 l 1
 539 0 l 1
 539 639 l 1xedfe
625 -28 m 5
 657 -28 l 5
 657 -114 l 6
 657 -161 619 -199 573 -199 c 4
 527 -199 490 -162 488 -117 c 5
 488 -29 l 5
 521 -29 l 5
 521 -48 l 5
 535 -36 553 -30 573 -30 c 4
 592 -30 610 -36 625 -48 c 5
 625 -28 l 5
572 -63 m 4
 544 -63 521 -86 521 -114 c 4
 521 -142 544 -166 572 -166 c 4
 601 -166 624 -142 624 -114 c 4
 624 -86 601 -63 572 -63 c 4
896 683 m 1
 963 683 l 1
 963 646 l 1
 1043 630 1103 559 1103 474 c 0
 1103 390 1043 319 963 303 c 1
 963 0 l 1
 896 0 l 1
 896 302 l 1
 815 317 753 389 753 474 c 0
 753 560 815 631 896 646 c 1xeefe
 896 683 l 1
896 578 m 1
 847.314453125 563.137695312 820.953125 518.073242188 820.953125 473.08984375 c 0
 820.953125 430.295898438 844.809570312 387.576171875 896 371 c 5
 896 578 l 1
963 577 m 1
 963 372 l 1
 1011.87402344 388.458007812 1036.125 431.528320312 1036.125 474.54296875 c 0
 1036.125 517.779296875 1011.62402344 560.958984375 963 577 c 1
EndSplineSet
Validated: 1
Ligature2: "+VAhbVzB4MG5/bmPb in +MOkwxjDzZYdbVwAA lookup 0-1" h w e
EndChar

StartChar: h_y_i
Encoding: 374 -1 122
Width: 1440
VWidth: 0
HStem: -198 33<608.005 681.866> -61 33<488 579 608.125 681 712 802> 0 22G<69 136 610 677.016 1304 1371> 0 22G<69 136 610 677.016 1304 1371> 325 67<1131.55 1259.08> 498 67<136 387> 608 67<889 1058 1132 1259.02> 619 20G<610 677.016>
VStem: 69 67<1 498> 561 32<-149.688 -76.6098> 610 67.0156<0 639> 696 34<-150.557 -75.3722> 1020 66.875<435.943 563.33> 1304 67<0 363 437.016 563.236>
LayerCount: 2
Fore
SplineSet
69 1 m 5xccfc
 69 189 69 377 69 565 c 5
 175 565 281 565 387 565 c 5
 387 498 l 5
 136 498 l 5
 136 1 l 5
 69 1 l 5xccfc
610 639 m 1xedfc
 677.015625 639 l 1
 677.015625 0 l 1
 610 0 l 1
 610 639 l 1xedfc
488 -28 m 5
 802 -28 l 5
 802 -61 l 5
 712 -61 l 5
 723 -75 730 -94 730 -113 c 4
 730 -160 692 -198 645 -198 c 4
 599 -198 561 -160 561 -113 c 4
 561 -94 568 -75 579 -61 c 5
 488 -61 l 5
 488 -28 l 5
645 -62 m 4
 616 -62 593 -85 593 -113 c 4
 593 -141 616 -165 645 -165 c 4
 673 -165 696 -141 696 -113 c 4
 696 -85 673 -62 645 -62 c 4
889 675 m 1xeefc
 1200 675 l 1
 1295 673 1371 595 1371 500 c 2
 1371 0 l 1
 1304 0 l 1
 1304 363 l 1
 1274 339 1237 325 1196 325 c 0
 1099 325 1020 403 1020 500 c 0
 1020 541 1034 578 1058 608 c 1
 889 608 l 1
 889 675 l 1xeefc
1197 608 m 0
 1133.31542969 608 1086.875 556.84375 1086.875 500.287109375 c 0
 1086.875 482.24609375 1091.60058594 463.655273438 1102 446 c 0
 1120 415 1153 394 1189 392 c 1
 1196 392 l 2
 1256.99707031 392 1303.90820312 443.814453125 1303.90820312 500.703125 c 0
 1303.90820312 524.022460938 1296.02539062 548.1953125 1278 570 c 0
 1271 579 1243 608 1197 608 c 0
EndSplineSet
Validated: 1
Ligature2: "+VAhbVzB4MG5/bmPb in +MOkwxjDzZYdbVwAA lookup 0-1" h y i
EndChar

StartChar: h_y_a
Encoding: 375 -1 123
Width: 1447
VWidth: 0
HStem: -198 33<608.005 681.866> -61 33<488 579 608.125 681 712 802> 0 22G<69 136 610 677.016 912 980> 0 22G<69 136 610 677.016 912 980> 312 64<1023.29 1154.83> 498 67<136 387> 583 65<1025.46 1154.79 1228 1398> 619 20G<610 677.016>
VStem: 69 67<1 498> 561 32<-149.688 -76.6098> 610 67.0156<0 639> 696 34<-150.557 -75.3722> 912 68<0 348 418.657 540.488> 1198.9 67.1045<420.914 539.966>
LayerCount: 2
Fore
SplineSet
69 1 m 5xccfc
 69 189 69 377 69 565 c 5
 175 565 281 565 387 565 c 5
 387 498 l 5
 136 498 l 5
 136 1 l 5
 69 1 l 5xccfc
610 639 m 1xedfc
 677.015625 639 l 1
 677.015625 0 l 1
 610 0 l 1
 610 639 l 1xedfc
488 -28 m 5
 802 -28 l 5
 802 -61 l 5
 712 -61 l 5
 723 -75 730 -94 730 -113 c 4
 730 -160 692 -198 645 -198 c 4
 599 -198 561 -160 561 -113 c 4
 561 -94 568 -75 579 -61 c 5
 488 -61 l 5
 488 -28 l 5
645 -62 m 4
 616 -62 593 -85 593 -113 c 4
 593 -141 616 -165 645 -165 c 4
 673 -165 696 -141 696 -113 c 4
 696 -85 673 -62 645 -62 c 4
1398 648 m 1xeefc
 1398 583 l 1
 1228 583 l 1
 1252 555 1266 519 1266 480 c 0
 1266 387 1187 312 1089 312 c 0
 1048 312 1010 325 980 348 c 1
 980 0 l 1
 912 0 l 1
 912 478 l 1
 913 478 l 1
 913 480 l 2
 913 571 989 645 1085 648 c 1
 1398 648 l 1xeefc
1088 583 m 0
 1034.37011719 583 979.884765625 541.10546875 979.884765625 480.243164062 c 0
 979.884765625 475.284179688 980.24609375 470.198242188 981 465 c 0
 990 407 1043 376 1089 376 c 4
 1161.5703125 376 1198.89550781 437.091796875 1198.89550781 478.869140625 c 4
 1198.89550781 484.297851562 1198.26464844 489.400390625 1197 494 c 1
 1189 550 1137 583 1093 583 c 0
 1091 583 1090 583 1088 583 c 0
EndSplineSet
Validated: 1
Ligature2: "+VAhbVzB4MG5/bmPb in +MOkwxjDzZYdbVwAA lookup 0-1" h y a
EndChar

StartChar: h_y_u
Encoding: 376 -1 124
Width: 1485
VWidth: 0
HStem: -198 33<608.005 681.866> -61 33<488 579 608.125 681 712 802> 0 22G<69 136 610 677.016 1076 1143> 0 22G<69 136 610 677.016 1076 1143> 357 67<892 1077 1188.76 1316.09> 498 67<136 387> 619 20G<610 677.016> 640 67<1187.23 1315.77>
VStem: 69 67<1 498> 561 32<-149.688 -76.6098> 610 67.0156<0 639> 696 34<-150.557 -75.3722> 1077 67.0615<0 357 468.91 594.495> 1360.43 66.8242<468.038 595.787>
LayerCount: 2
Fore
SplineSet
69 1 m 5xcffc
 69 189 69 377 69 565 c 5
 175 565 281 565 387 565 c 5
 387 498 l 5
 136 498 l 5
 136 1 l 5
 69 1 l 5xcffc
610 639 m 1
 677.015625 639 l 1
 677.015625 0 l 1
 610 0 l 1xeffc
 610 639 l 1
488 -28 m 5
 802 -28 l 5
 802 -61 l 5
 712 -61 l 5
 723 -75 730 -94 730 -113 c 4
 730 -160 692 -198 645 -198 c 4
 599 -198 561 -160 561 -113 c 4
 561 -94 568 -75 579 -61 c 5
 488 -61 l 5
 488 -28 l 5
645 -62 m 4
 616 -62 593 -85 593 -113 c 4
 593 -141 616 -165 645 -165 c 4
 673 -165 696 -141 696 -113 c 4
 696 -85 673 -62 645 -62 c 4
1252 707 m 0
 1253.15429688 707.025390625 1254.30859375 707.037109375 1255.46289062 707.037109375 c 0
 1300.29980469 707.037109375 1344.80273438 688.171875 1376 656 c 0
 1411.61328125 624.237304688 1427.25585938 581.768554688 1427.25585938 538.833007812 c 0
 1427.25585938 448.924804688 1358.66113281 356.966796875 1261.19726562 356.966796875 c 0
 1260.13476562 356.966796875 1259.06933594 356.978515625 1258 357 c 0
 1220 357 1182 357 1144 357 c 1
 1144 228 1143 129 1143 0 c 1
 1076 0 l 1
 1076 129 1077 228 1077 357 c 1
 892 357 l 1
 892 424 l 1
 1077 424 l 1
 1077 513 l 2
 1076.53613281 518.049804688 1076.30859375 523.10546875 1076.30859375 528.151367188 c 0
 1076.30859375 619.127929688 1150.23632812 707.116210938 1245.96777344 707.116210938 c 0
 1247.96875 707.116210938 1249.98046875 707.078125 1252 707 c 0
1251.859375 423.431640625 m 0
 1305.19824219 423.431640625 1360.43164062 467.6875 1360.43164062 533.336914062 c 0
 1360.43164062 588.622070312 1312.14453125 640.046875 1255.92382812 640.046875 c 0
 1254.95214844 640.046875 1253.9765625 640.03125 1253 640 c 0
 1252.22851562 640.017578125 1251.45703125 640.02734375 1250.68652344 640.02734375 c 0
 1192.59472656 640.02734375 1144.06152344 591.004882812 1144.06152344 533.819335938 c 0
 1144.06152344 475.501953125 1190.71582031 423.431640625 1251.859375 423.431640625 c 0
EndSplineSet
Validated: 1
Ligature2: "+VAhbVzB4MG5/bmPb in +MOkwxjDzZYdbVwAA lookup 0-1" h y u
EndChar

StartChar: h_y_o
Encoding: 377 -1 125
Width: 1487
VWidth: 0
HStem: -198 33<608.005 681.866> -61 33<488 579 608.125 681 712 802> 0 22G<69 136 610 677.016 1179.81 1246.81> 0 22G<69 136 610 677.016 1179.81 1246.81> 343 67<1007.72 1135.05 1246.81 1431.81> 498 67<136 387> 619 20G<610 677.016> 626 67<1008.04 1136.58>
VStem: 69 67<1 498> 561 32<-149.688 -76.6098> 610 67.0156<0 639> 696 34<-150.557 -75.3722> 897 66.3799<454.049 581.796> 1179.81 67<0 343 454.91 580.495>
LayerCount: 2
Fore
SplineSet
69 1 m 5xccfc
 69 189 69 377 69 565 c 5
 175 565 281 565 387 565 c 5
 387 498 l 5
 136 498 l 5
 136 1 l 5
 69 1 l 5xccfc
610 639 m 1xeefc
 677.015625 639 l 1
 677.015625 0 l 1
 610 0 l 1
 610 639 l 1xeefc
488 -28 m 5
 802 -28 l 5
 802 -61 l 5
 712 -61 l 5
 723 -75 730 -94 730 -113 c 4
 730 -160 692 -198 645 -198 c 4
 599 -198 561 -160 561 -113 c 4
 561 -94 568 -75 579 -61 c 5
 488 -61 l 5
 488 -28 l 5
645 -62 m 4
 616 -62 593 -85 593 -113 c 4
 593 -141 616 -165 645 -165 c 4
 673 -165 696 -141 696 -113 c 4
 696 -85 673 -62 645 -62 c 4
1071.8125 693 m 4xedfc
 1073.83203125 693.078125 1075.84277344 693.116210938 1077.84472656 693.116210938 c 4
 1173.57617188 693.116210938 1247.50292969 605.127929688 1247.50292969 514.151367188 c 4
 1247.50292969 509.10546875 1247.27636719 504.049804688 1246.8125 499 c 6
 1246.8125 410 l 5
 1431.8125 410 l 5
 1431.8125 343 l 5
 1246.8125 343 l 5
 1246.8125 0 l 5
 1179.8125 0 l 5
 1179.8125 343 l 5
 1141.8125 343 1103.8125 343 1065.8125 343 c 4
 1064.74316406 342.978515625 1063.67773438 342.966796875 1062.61523438 342.966796875 c 4
 965.1484375 342.966796875 897 434.948242188 897 524.8671875 c 4
 897 567.791015625 912.529296875 610.245117188 947.8125 642 c 4
 979.008789062 674.171875 1023.51269531 693.037109375 1068.34960938 693.037109375 c 4
 1069.50390625 693.037109375 1070.65820312 693.025390625 1071.8125 693 c 4xedfc
1179.75 519.819335938 m 4
 1179.75 577.001953125 1131.21875 626.02734375 1073.12597656 626.02734375 c 4
 1072.35546875 626.02734375 1071.58398438 626.017578125 1070.8125 626 c 4
 1069.83496094 626.03125 1068.86035156 626.046875 1067.88769531 626.046875 c 4
 1011.66796875 626.046875 963.379882812 574.622070312 963.379882812 519.336914062 c 4
 963.379882812 453.685546875 1018.61621094 409.431640625 1071.953125 409.431640625 c 4
 1133.09472656 409.431640625 1179.75 461.5 1179.75 519.819335938 c 4
EndSplineSet
Validated: 1
Ligature2: "+VAhbVzB4MG5/bmPb in +MOkwxjDzZYdbVwAA lookup 0-1" h y o
EndChar

StartChar: h_y_e
Encoding: 378 -1 126
Width: 1303
VWidth: 0
HStem: -198 33<608.005 681.866> -61 33<488 579 608.125 681 712 802> 0 22G<69 136 610 677.016 1039 1106> 0 22G<69 136 610 677.016 1039 1106> 302 69<1002.59 1039> 498 67<136 387> 578 68<1002.59 1039> 619 20G<610 677.016 1039 1106>
VStem: 69 67<1 498> 561 32<-149.688 -76.6098> 610 67.0156<0 639> 696 34<-150.557 -75.3722> 896 67.9531<408.527 539.449> 1039 67<0 306.538 372 577 641.479 683> 1179.12 66.875<409.443 539.5>
LayerCount: 2
Fore
SplineSet
69 1 m 5xccfe
 69 189 69 377 69 565 c 5
 175 565 281 565 387 565 c 5
 387 498 l 5
 136 498 l 5
 136 1 l 5
 69 1 l 5xccfe
610 639 m 1xedfe
 677.015625 639 l 1
 677.015625 0 l 1
 610 0 l 1
 610 639 l 1xedfe
488 -28 m 5
 802 -28 l 5
 802 -61 l 5
 712 -61 l 5
 723 -75 730 -94 730 -113 c 4
 730 -160 692 -198 645 -198 c 4
 599 -198 561 -160 561 -113 c 4
 561 -94 568 -75 579 -61 c 5
 488 -61 l 5
 488 -28 l 5
645 -62 m 4
 616 -62 593 -85 593 -113 c 4
 593 -141 616 -165 645 -165 c 4
 673 -165 696 -141 696 -113 c 4
 696 -85 673 -62 645 -62 c 4
1039 683 m 1
 1106 683 l 1
 1106 646 l 1
 1186 630 1246 559 1246 474 c 0
 1246 390 1186 319 1106 303 c 1
 1106 0 l 1
 1039 0 l 1
 1039 302 l 1
 958 317 896 389 896 474 c 0
 896 560 958 631 1039 646 c 1xeefe
 1039 683 l 1
1039 578 m 1
 990.314453125 563.137695312 963.953125 518.073242188 963.953125 473.08984375 c 0
 963.953125 430.295898438 987.809570312 387.576171875 1039 371 c 5
 1039 578 l 1
1106 577 m 1
 1106 372 l 1
 1154.87402344 388.458007812 1179.125 431.528320312 1179.125 474.54296875 c 0
 1179.125 517.779296875 1154.62402344 560.958984375 1106 577 c 1
EndSplineSet
Validated: 1
Ligature2: "+VAhbVzB4MG5/bmPb in +MOkwxjDzZYdbVwAA lookup 0-1" h y e
EndChar

StartChar: m_i
Encoding: 379 -1 127
Width: 1045
VWidth: 0
HStem: 0 21G<69 136 909 976> 0 21G<69 136 909 976> 325 67<736.549 864.076> 371 67<136 320> 520 66.5557<69.4443 320> 608 67<494 663 737.004 864.02>
VStem: 69 67<0 371> 320 67<438 520> 625 66.875<435.943 563.33> 909 67<0 363 437.016 563.236>
LayerCount: 2
Fore
SplineSet
69 0 m 5x9fc0
 69 146 69 292 69 438 c 5
 320 438 l 5
 320 520 l 5
 69 520 l 5
 69 534 69.4443359375 552.444335938 69.4443359375 567.629882812 c 4
 69.4443359375 575.22265625 69.3330078125 582 69 587 c 5
 103.666992188 586.666992188 139.111328125 586.555664062 174.77734375 586.555664062 c 4
 246.111328125 586.555664062 318.333007812 587 387 587 c 5
 387 371 l 5
 136 371 l 5
 136 0 l 5
 69 0 l 5x9fc0
494 675 m 1
 805 675 l 1
 900 673 976 595 976 500 c 2
 976 0 l 1
 909 0 l 1
 909 363 l 1
 879 339 842 325 801 325 c 0xafc0
 704 325 625 403 625 500 c 0
 625 541 639 578 663 608 c 1
 494 608 l 1
 494 675 l 1
802 608 m 0
 738.315429688 608 691.875 556.84375 691.875 500.287109375 c 0
 691.875 482.24609375 696.600585938 463.655273438 707 446 c 0
 725 415 758 394 794 392 c 1
 801 392 l 2
 861.997070312 392 908.908203125 443.814453125 908.908203125 500.703125 c 0
 908.908203125 524.022460938 901.025390625 548.1953125 883 570 c 0
 876 579 848 608 802 608 c 0
EndSplineSet
Validated: 1
Ligature2: "+VAhbVzB4MG5/bmPb in +MOkwxjDzZYdbVwAA lookup 0-1" m i
EndChar

StartChar: m_a
Encoding: 380 -1 128
Width: 1052
VWidth: 0
HStem: 0 21G<69 136 517 585> 0 21G<69 136 517 585> 312 64<628.288 759.833> 371 67<136 320> 520 66.5557<69.4443 320> 583 65<630.457 759.793 833 1003>
VStem: 69 67<0 371> 320 67<438 520> 517 68<0 348 418.657 540.488> 803.896 67.1045<420.914 539.966>
LayerCount: 2
Fore
SplineSet
69 0 m 5x9bc0
 69 146 69 292 69 438 c 5
 320 438 l 5
 320 520 l 5
 69 520 l 5
 69 534 69.4443359375 552.444335938 69.4443359375 567.629882812 c 4
 69.4443359375 575.22265625 69.3330078125 582 69 587 c 5
 103.666992188 586.666992188 139.111328125 586.555664062 174.77734375 586.555664062 c 4
 246.111328125 586.555664062 318.333007812 587 387 587 c 5
 387 371 l 5
 136 371 l 5
 136 0 l 5
 69 0 l 5x9bc0
1003 648 m 1xa7c0
 1003 583 l 1
 833 583 l 1
 857 555 871 519 871 480 c 0
 871 387 792 312 694 312 c 0
 653 312 615 325 585 348 c 1
 585 0 l 1
 517 0 l 1
 517 478 l 1
 518 478 l 1
 518 480 l 2
 518 571 594 645 690 648 c 1
 1003 648 l 1xa7c0
693 583 m 0
 639.370117188 583 584.884765625 541.10546875 584.884765625 480.243164062 c 0
 584.884765625 475.284179688 585.24609375 470.198242188 586 465 c 0
 595 407 648 376 694 376 c 4
 766.5703125 376 803.895507812 437.091796875 803.895507812 478.869140625 c 4
 803.895507812 484.297851562 803.264648438 489.400390625 802 494 c 1
 794 550 742 583 698 583 c 0
 696 583 695 583 693 583 c 0
EndSplineSet
Validated: 1
Ligature2: "+VAhbVzB4MG5/bmPb in +MOkwxjDzZYdbVwAA lookup 0-1" m a
EndChar

StartChar: m_u
Encoding: 381 -1 129
Width: 1090
VWidth: 0
HStem: 0 21G<69 136 681 748> 0 21G<69 136 681 748> 357 67<497 682 793.757 921.089> 371 67<136 320> 520 66.5557<69.4443 320> 640 67<792.233 920.77>
VStem: 69 67<0 371> 320 67<438 520> 682 67.0615<0 357 468.91 594.495> 965.432 66.8242<468.038 595.787>
LayerCount: 2
Fore
SplineSet
69 0 m 5x9fc0
 69 146 69 292 69 438 c 5
 320 438 l 5
 320 520 l 5
 69 520 l 5
 69 534 69.4443359375 552.444335938 69.4443359375 567.629882812 c 4
 69.4443359375 575.22265625 69.3330078125 582 69 587 c 5
 103.666992188 586.666992188 139.111328125 586.555664062 174.77734375 586.555664062 c 4
 246.111328125 586.555664062 318.333007812 587 387 587 c 5
 387 371 l 5
 136 371 l 5
 136 0 l 5
 69 0 l 5x9fc0
857 707 m 0
 858.154296875 707.025390625 859.30859375 707.037109375 860.462890625 707.037109375 c 0
 905.299804688 707.037109375 949.802734375 688.171875 981 656 c 0
 1016.61328125 624.237304688 1032.25585938 581.768554688 1032.25585938 538.833007812 c 0
 1032.25585938 448.924804688 963.661132812 356.966796875 866.197265625 356.966796875 c 0
 865.134765625 356.966796875 864.069335938 356.978515625 863 357 c 0
 825 357 787 357 749 357 c 1
 749 228 748 129 748 0 c 1
 681 0 l 1
 681 129 682 228 682 357 c 1
 497 357 l 1
 497 424 l 1
 682 424 l 1xafc0
 682 513 l 2
 681.536132812 518.049804688 681.30859375 523.10546875 681.30859375 528.151367188 c 0
 681.30859375 619.127929688 755.236328125 707.116210938 850.967773438 707.116210938 c 0
 852.96875 707.116210938 854.98046875 707.078125 857 707 c 0
856.859375 423.431640625 m 0
 910.198242188 423.431640625 965.431640625 467.6875 965.431640625 533.336914062 c 0
 965.431640625 588.622070312 917.14453125 640.046875 860.923828125 640.046875 c 0
 859.952148438 640.046875 858.9765625 640.03125 858 640 c 0
 857.228515625 640.017578125 856.45703125 640.02734375 855.686523438 640.02734375 c 0
 797.594726562 640.02734375 749.061523438 591.004882812 749.061523438 533.819335938 c 0
 749.061523438 475.501953125 795.715820312 423.431640625 856.859375 423.431640625 c 0
EndSplineSet
Validated: 1
Ligature2: "+VAhbVzB4MG5/bmPb in +MOkwxjDzZYdbVwAA lookup 0-1" m u
EndChar

StartChar: m_o
Encoding: 382 -1 130
Width: 1092
VWidth: 0
HStem: 0 21G<69 136 784.812 851.812> 0 21G<69 136 784.812 851.812> 343 67<612.724 740.055 851.812 1036.81> 371 67<136 320> 520 66.5557<69.4443 320> 626 67<613.041 741.58>
VStem: 69 67<0 371> 320 67<438 520> 502 66.3799<454.049 581.796> 784.812 67<0 343 454.91 580.495>
LayerCount: 2
Fore
SplineSet
69 0 m 5x9fc0
 69 146 69 292 69 438 c 5
 320 438 l 5
 320 520 l 5
 69 520 l 5
 69 534 69.4443359375 552.444335938 69.4443359375 567.629882812 c 4
 69.4443359375 575.22265625 69.3330078125 582 69 587 c 5
 103.666992188 586.666992188 139.111328125 586.555664062 174.77734375 586.555664062 c 4
 246.111328125 586.555664062 318.333007812 587 387 587 c 5
 387 371 l 5
 136 371 l 5
 136 0 l 5
 69 0 l 5x9fc0
676.8125 693 m 4
 678.83203125 693.078125 680.842773438 693.116210938 682.844726562 693.116210938 c 4
 778.576171875 693.116210938 852.502929688 605.127929688 852.502929688 514.151367188 c 4
 852.502929688 509.10546875 852.276367188 504.049804688 851.8125 499 c 6
 851.8125 410 l 5
 1036.8125 410 l 5
 1036.8125 343 l 5
 851.8125 343 l 5
 851.8125 0 l 5
 784.8125 0 l 5
 784.8125 343 l 5
 746.8125 343 708.8125 343 670.8125 343 c 4xafc0
 669.743164062 342.978515625 668.677734375 342.966796875 667.615234375 342.966796875 c 4
 570.1484375 342.966796875 502 434.948242188 502 524.8671875 c 4
 502 567.791015625 517.529296875 610.245117188 552.8125 642 c 4
 584.008789062 674.171875 628.512695312 693.037109375 673.349609375 693.037109375 c 4
 674.50390625 693.037109375 675.658203125 693.025390625 676.8125 693 c 4
784.75 519.819335938 m 4
 784.75 577.001953125 736.21875 626.02734375 678.125976562 626.02734375 c 4
 677.35546875 626.02734375 676.583984375 626.017578125 675.8125 626 c 4
 674.834960938 626.03125 673.860351562 626.046875 672.887695312 626.046875 c 4
 616.66796875 626.046875 568.379882812 574.622070312 568.379882812 519.336914062 c 4
 568.379882812 453.685546875 623.616210938 409.431640625 676.953125 409.431640625 c 4
 738.094726562 409.431640625 784.75 461.5 784.75 519.819335938 c 4
EndSplineSet
Validated: 1
Ligature2: "+VAhbVzB4MG5/bmPb in +MOkwxjDzZYdbVwAA lookup 0-1" m o
EndChar

StartChar: m_e
Encoding: 383 -1 131
Width: 908
VWidth: 0
HStem: 0 21G<69 136 644 711> 0 21G<69 136 644 711> 302 69<607.587 644> 371 67<136 320> 520 66.5557<69.4443 320> 578 68<607.587 644> 663 20G<644 711>
VStem: 69 67<0 371> 320 67<438 520> 501 67.9531<408.527 539.449> 644 67<0 306.538 372 577 641.479 683> 784.125 66.875<409.443 539.5>
LayerCount: 2
Fore
SplineSet
69 0 m 5x9bf0
 69 146 69 292 69 438 c 5
 320 438 l 5
 320 520 l 5
 69 520 l 5
 69 534 69.4443359375 552.444335938 69.4443359375 567.629882812 c 4
 69.4443359375 575.22265625 69.3330078125 582 69 587 c 5
 103.666992188 586.666992188 139.111328125 586.555664062 174.77734375 586.555664062 c 4
 246.111328125 586.555664062 318.333007812 587 387 587 c 5
 387 371 l 5
 136 371 l 5
 136 0 l 5
 69 0 l 5x9bf0
644 683 m 1
 711 683 l 1
 711 646 l 1
 791 630 851 559 851 474 c 0
 851 390 791 319 711 303 c 1
 711 0 l 1
 644 0 l 1
 644 302 l 1
 563 317 501 389 501 474 c 0
 501 560 563 631 644 646 c 1xa7f0
 644 683 l 1
644 578 m 1
 595.314453125 563.137695312 568.953125 518.073242188 568.953125 473.08984375 c 0
 568.953125 430.295898438 592.809570312 387.576171875 644 371 c 5
 644 578 l 1
711 577 m 1
 711 372 l 1
 759.874023438 388.458007812 784.125 431.528320312 784.125 474.54296875 c 0
 784.125 517.779296875 759.624023438 560.958984375 711 577 c 1
EndSplineSet
Validated: 1
Ligature2: "+VAhbVzB4MG5/bmPb in +MOkwxjDzZYdbVwAA lookup 0-1" m e
EndChar

StartChar: m_w_i
Encoding: 384 -1 132
Width: 1302
VWidth: 0
HStem: -199 33<540.117 614.495> -63 33<540.189 614.931> 0 21G<69 136 544 611.016 1166 1233> 0 21G<69 136 544 611.016 1166 1233> 325 67<993.549 1121.08> 371 67<136 320> 520 66.5557<69.4443 320> 608 67<751 920 994.004 1121.02> 619 20G<544 611.016>
VStem: 69 67<0 371> 320 67<438 520> 493 33<-150.623 -77.1431 -48 -29> 544 67.0156<0 639> 630 32<-149.005 -78.8774 -48 -28> 882 66.875<435.943 563.33> 1166 67<0 363 437.016 563.236>
LayerCount: 2
Fore
SplineSet
69 0 m 5xe67f
 69 146 69 292 69 438 c 5
 320 438 l 5
 320 520 l 5
 69 520 l 5
 69 534 69.4443359375 552.444335938 69.4443359375 567.629882812 c 4
 69.4443359375 575.22265625 69.3330078125 582 69 587 c 5
 103.666992188 586.666992188 139.111328125 586.555664062 174.77734375 586.555664062 c 4
 246.111328125 586.555664062 318.333007812 587 387 587 c 5
 387 371 l 5
 136 371 l 5
 136 0 l 5
 69 0 l 5xe67f
544 639 m 1xe2ff
 611.015625 639 l 1
 611.015625 0 l 1
 544 0 l 1
 544 639 l 1xe2ff
630 -28 m 5
 662 -28 l 5
 662 -114 l 6
 662 -161 624 -199 578 -199 c 4
 532 -199 495 -162 493 -117 c 5
 493 -29 l 5
 526 -29 l 5
 526 -48 l 5
 540 -36 558 -30 578 -30 c 4
 597 -30 615 -36 630 -48 c 5
 630 -28 l 5
577 -63 m 4
 549 -63 526 -86 526 -114 c 4
 526 -142 549 -166 577 -166 c 4
 606 -166 629 -142 629 -114 c 4
 629 -86 606 -63 577 -63 c 4
751 675 m 1xeb7f
 1062 675 l 1
 1157 673 1233 595 1233 500 c 2
 1233 0 l 1
 1166 0 l 1
 1166 363 l 1
 1136 339 1099 325 1058 325 c 0
 961 325 882 403 882 500 c 0
 882 541 896 578 920 608 c 1
 751 608 l 1
 751 675 l 1xeb7f
1059 608 m 0
 995.315429688 608 948.875 556.84375 948.875 500.287109375 c 0
 948.875 482.24609375 953.600585938 463.655273438 964 446 c 0
 982 415 1015 394 1051 392 c 1
 1058 392 l 2
 1118.99707031 392 1165.90820312 443.814453125 1165.90820312 500.703125 c 0
 1165.90820312 524.022460938 1158.02539062 548.1953125 1140 570 c 0
 1133 579 1105 608 1059 608 c 0
EndSplineSet
Validated: 1
Ligature2: "+VAhbVzB4MG5/bmPb in +MOkwxjDzZYdbVwAA lookup 0-1" m w i
EndChar

StartChar: m_w_a
Encoding: 385 -1 133
Width: 1309
VWidth: 0
HStem: -199 33<540.117 614.495> -63 33<540.189 614.931> 0 21G<69 136 544 611.016 774 842> 0 21G<69 136 544 611.016 774 842> 312 64<885.288 1016.83> 371 67<136 320> 520 66.5557<69.4443 320> 583 65<887.457 1016.79 1090 1260> 619 20G<544 611.016>
VStem: 69 67<0 371> 320 67<438 520> 493 33<-150.623 -77.1431 -48 -29> 544 67.0156<0 639> 630 32<-149.005 -78.8774 -48 -28> 774 68<0 348 418.657 540.488> 1060.9 67.1045<420.914 539.966>
LayerCount: 2
Fore
SplineSet
69 0 m 5xe67f
 69 146 69 292 69 438 c 5
 320 438 l 5
 320 520 l 5
 69 520 l 5
 69 534 69.4443359375 552.444335938 69.4443359375 567.629882812 c 4
 69.4443359375 575.22265625 69.3330078125 582 69 587 c 5
 103.666992188 586.666992188 139.111328125 586.555664062 174.77734375 586.555664062 c 4
 246.111328125 586.555664062 318.333007812 587 387 587 c 5
 387 371 l 5
 136 371 l 5
 136 0 l 5
 69 0 l 5xe67f
544 639 m 1xe0ff
 611.015625 639 l 1
 611.015625 0 l 1
 544 0 l 1
 544 639 l 1xe0ff
630 -28 m 5
 662 -28 l 5
 662 -114 l 6
 662 -161 624 -199 578 -199 c 4
 532 -199 495 -162 493 -117 c 5
 493 -29 l 5
 526 -29 l 5
 526 -48 l 5
 540 -36 558 -30 578 -30 c 4
 597 -30 615 -36 630 -48 c 5
 630 -28 l 5
577 -63 m 4
 549 -63 526 -86 526 -114 c 4
 526 -142 549 -166 577 -166 c 4
 606 -166 629 -142 629 -114 c 4
 629 -86 606 -63 577 -63 c 4
1260 648 m 1xe97f
 1260 583 l 1
 1090 583 l 1
 1114 555 1128 519 1128 480 c 0
 1128 387 1049 312 951 312 c 0
 910 312 872 325 842 348 c 1
 842 0 l 1
 774 0 l 1
 774 478 l 1
 775 478 l 1
 775 480 l 2
 775 571 851 645 947 648 c 1
 1260 648 l 1xe97f
950 583 m 0
 896.370117188 583 841.884765625 541.10546875 841.884765625 480.243164062 c 0
 841.884765625 475.284179688 842.24609375 470.198242188 843 465 c 0
 852 407 905 376 951 376 c 4
 1023.5703125 376 1060.89550781 437.091796875 1060.89550781 478.869140625 c 4
 1060.89550781 484.297851562 1060.26464844 489.400390625 1059 494 c 1
 1051 550 999 583 955 583 c 0
 953 583 952 583 950 583 c 0
EndSplineSet
Validated: 1
Ligature2: "+VAhbVzB4MG5/bmPb in +MOkwxjDzZYdbVwAA lookup 0-1" m w a
EndChar

StartChar: m_w_u
Encoding: 386 -1 134
Width: 1347
VWidth: 0
HStem: -199 33<540.117 614.495> -63 33<540.189 614.931> 0 21G<69 136 544 611.016 938 1005> 0 21G<69 136 544 611.016 938 1005> 357 67<754 939 1050.76 1178.09> 371 67<136 320> 520 66.5557<69.4443 320> 619 20G<544 611.016> 640 67<1049.23 1177.77>
VStem: 69 67<0 371> 320 67<438 520> 493 33<-150.623 -77.1431 -48 -29> 544 67.0156<0 639> 630 32<-149.005 -78.8774 -48 -28> 939 67.0615<0 357 468.91 594.495> 1222.43 66.8242<468.038 595.787>
LayerCount: 2
Fore
SplineSet
69 0 m 5xe7ff
 69 146 69 292 69 438 c 5
 320 438 l 5
 320 520 l 5
 69 520 l 5
 69 534 69.4443359375 552.444335938 69.4443359375 567.629882812 c 4
 69.4443359375 575.22265625 69.3330078125 582 69 587 c 5
 103.666992188 586.666992188 139.111328125 586.555664062 174.77734375 586.555664062 c 4
 246.111328125 586.555664062 318.333007812 587 387 587 c 5
 387 371 l 5
 136 371 l 5
 136 0 l 5
 69 0 l 5xe7ff
544 639 m 1
 611.015625 639 l 1
 611.015625 0 l 1
 544 0 l 1
 544 639 l 1
630 -28 m 5
 662 -28 l 5
 662 -114 l 6
 662 -161 624 -199 578 -199 c 4
 532 -199 495 -162 493 -117 c 5
 493 -29 l 5
 526 -29 l 5
 526 -48 l 5
 540 -36 558 -30 578 -30 c 4
 597 -30 615 -36 630 -48 c 5
 630 -28 l 5
577 -63 m 4
 549 -63 526 -86 526 -114 c 4
 526 -142 549 -166 577 -166 c 4
 606 -166 629 -142 629 -114 c 4
 629 -86 606 -63 577 -63 c 4
1114 707 m 0
 1115.15429688 707.025390625 1116.30859375 707.037109375 1117.46289062 707.037109375 c 0
 1162.29980469 707.037109375 1206.80273438 688.171875 1238 656 c 0
 1273.61328125 624.237304688 1289.25585938 581.768554688 1289.25585938 538.833007812 c 0
 1289.25585938 448.924804688 1220.66113281 356.966796875 1123.19726562 356.966796875 c 0
 1122.13476562 356.966796875 1121.06933594 356.978515625 1120 357 c 0
 1082 357 1044 357 1006 357 c 1
 1006 228 1005 129 1005 0 c 1
 938 0 l 1
 938 129 939 228 939 357 c 1
 754 357 l 1
 754 424 l 1
 939 424 l 1xebff
 939 513 l 2
 938.536132812 518.049804688 938.30859375 523.10546875 938.30859375 528.151367188 c 0
 938.30859375 619.127929688 1012.23632812 707.116210938 1107.96777344 707.116210938 c 0
 1109.96875 707.116210938 1111.98046875 707.078125 1114 707 c 0
1113.859375 423.431640625 m 0
 1167.19824219 423.431640625 1222.43164062 467.6875 1222.43164062 533.336914062 c 0
 1222.43164062 588.622070312 1174.14453125 640.046875 1117.92382812 640.046875 c 0
 1116.95214844 640.046875 1115.9765625 640.03125 1115 640 c 0
 1114.22851562 640.017578125 1113.45703125 640.02734375 1112.68652344 640.02734375 c 0
 1054.59472656 640.02734375 1006.06152344 591.004882812 1006.06152344 533.819335938 c 0
 1006.06152344 475.501953125 1052.71582031 423.431640625 1113.859375 423.431640625 c 0
EndSplineSet
Validated: 1
Ligature2: "+VAhbVzB4MG5/bmPb in +MOkwxjDzZYdbVwAA lookup 0-1" m w u
EndChar

StartChar: m_w_o
Encoding: 387 -1 135
Width: 1349
VWidth: 0
HStem: -199 33<540.117 614.495> -63 33<540.189 614.931> 0 21G<69 136 544 611.016 1041.81 1108.81> 0 21G<69 136 544 611.016 1041.81 1108.81> 343 67<869.724 997.055 1108.81 1293.81> 371 67<136 320> 520 66.5557<69.4443 320> 619 20G<544 611.016> 626 67<870.041 998.58>
VStem: 69 67<0 371> 320 67<438 520> 493 33<-150.623 -77.1431 -48 -29> 544 67.0156<0 639> 630 32<-149.005 -78.8774 -48 -28> 759 66.3799<454.049 581.796> 1041.81 67<0 343 454.91 580.495>
LayerCount: 2
Fore
SplineSet
69 0 m 5xe67f
 69 146 69 292 69 438 c 5
 320 438 l 5
 320 520 l 5
 69 520 l 5
 69 534 69.4443359375 552.444335938 69.4443359375 567.629882812 c 4
 69.4443359375 575.22265625 69.3330078125 582 69 587 c 5
 103.666992188 586.666992188 139.111328125 586.555664062 174.77734375 586.555664062 c 4
 246.111328125 586.555664062 318.333007812 587 387 587 c 5
 387 371 l 5
 136 371 l 5
 136 0 l 5
 69 0 l 5xe67f
544 639 m 1xe37f
 611.015625 639 l 1
 611.015625 0 l 1
 544 0 l 1
 544 639 l 1xe37f
630 -28 m 5
 662 -28 l 5
 662 -114 l 6
 662 -161 624 -199 578 -199 c 4
 532 -199 495 -162 493 -117 c 5
 493 -29 l 5
 526 -29 l 5
 526 -48 l 5
 540 -36 558 -30 578 -30 c 4
 597 -30 615 -36 630 -48 c 5
 630 -28 l 5
577 -63 m 4
 549 -63 526 -86 526 -114 c 4
 526 -142 549 -166 577 -166 c 4
 606 -166 629 -142 629 -114 c 4
 629 -86 606 -63 577 -63 c 4
933.8125 693 m 4xeaff
 935.83203125 693.078125 937.842773438 693.116210938 939.844726562 693.116210938 c 4
 1035.57617188 693.116210938 1109.50292969 605.127929688 1109.50292969 514.151367188 c 4
 1109.50292969 509.10546875 1109.27636719 504.049804688 1108.8125 499 c 6
 1108.8125 410 l 5
 1293.8125 410 l 5
 1293.8125 343 l 5
 1108.8125 343 l 5
 1108.8125 0 l 5
 1041.8125 0 l 5
 1041.8125 343 l 5
 1003.8125 343 965.8125 343 927.8125 343 c 4
 926.743164062 342.978515625 925.677734375 342.966796875 924.615234375 342.966796875 c 4
 827.1484375 342.966796875 759 434.948242188 759 524.8671875 c 4
 759 567.791015625 774.529296875 610.245117188 809.8125 642 c 4
 841.008789062 674.171875 885.512695312 693.037109375 930.349609375 693.037109375 c 4
 931.50390625 693.037109375 932.658203125 693.025390625 933.8125 693 c 4xeaff
1041.75 519.819335938 m 4
 1041.75 577.001953125 993.21875 626.02734375 935.125976562 626.02734375 c 4
 934.35546875 626.02734375 933.583984375 626.017578125 932.8125 626 c 4
 931.834960938 626.03125 930.860351562 626.046875 929.887695312 626.046875 c 4
 873.66796875 626.046875 825.379882812 574.622070312 825.379882812 519.336914062 c 4
 825.379882812 453.685546875 880.616210938 409.431640625 933.953125 409.431640625 c 4
 995.094726562 409.431640625 1041.75 461.5 1041.75 519.819335938 c 4
EndSplineSet
Validated: 1
Ligature2: "+VAhbVzB4MG5/bmPb in +MOkwxjDzZYdbVwAA lookup 0-1" m w o
EndChar

StartChar: m_w_e
Encoding: 388 -1 136
Width: 1165
VWidth: 0
HStem: -199 33<540.117 614.495> -63 33<540.189 614.931> 0 21G<69 136 544 611.016 901 968> 0 21G<69 136 544 611.016 901 968> 302 69<864.587 901> 371 67<136 320> 520 66.5557<69.4443 320> 578 68<864.587 901> 619 20G<544 611.016 901 968>
VStem: 69 67<0 371> 320 67<438 520> 493 33<-150.623 -77.1431 -48 -29> 544 67.0156<0 639> 630 32<-149.005 -78.8774 -48 -28> 758 67.9531<408.527 539.449> 901 67<0 306.538 372 577 641.479 683> 1041.12 66.875<409.443 539.5>
LayerCount: 2
Fore
SplineSet
69 0 m 5xe67f80
 69 146 69 292 69 438 c 5
 320 438 l 5
 320 520 l 5
 69 520 l 5
 69 534 69.4443359375 552.444335938 69.4443359375 567.629882812 c 4
 69.4443359375 575.22265625 69.3330078125 582 69 587 c 5
 103.666992188 586.666992188 139.111328125 586.555664062 174.77734375 586.555664062 c 4
 246.111328125 586.555664062 318.333007812 587 387 587 c 5
 387 371 l 5
 136 371 l 5
 136 0 l 5
 69 0 l 5xe67f80
544 639 m 1xe0ff80
 611.015625 639 l 1
 611.015625 0 l 1
 544 0 l 1
 544 639 l 1xe0ff80
630 -28 m 5
 662 -28 l 5
 662 -114 l 6
 662 -161 624 -199 578 -199 c 4
 532 -199 495 -162 493 -117 c 5
 493 -29 l 5
 526 -29 l 5
 526 -48 l 5
 540 -36 558 -30 578 -30 c 4
 597 -30 615 -36 630 -48 c 5
 630 -28 l 5
577 -63 m 4
 549 -63 526 -86 526 -114 c 4
 526 -142 549 -166 577 -166 c 4
 606 -166 629 -142 629 -114 c 4
 629 -86 606 -63 577 -63 c 4
901 683 m 1
 968 683 l 1
 968 646 l 1
 1048 630 1108 559 1108 474 c 0
 1108 390 1048 319 968 303 c 1
 968 0 l 1
 901 0 l 1
 901 302 l 1
 820 317 758 389 758 474 c 0
 758 560 820 631 901 646 c 1xe97f80
 901 683 l 1
901 578 m 1
 852.314453125 563.137695312 825.953125 518.073242188 825.953125 473.08984375 c 0
 825.953125 430.295898438 849.809570312 387.576171875 901 371 c 5
 901 578 l 1
968 577 m 1
 968 372 l 1
 1016.87402344 388.458007812 1041.125 431.528320312 1041.125 474.54296875 c 0
 1041.125 517.779296875 1016.62402344 560.958984375 968 577 c 1
EndSplineSet
Validated: 1
Ligature2: "+VAhbVzB4MG5/bmPb in +MOkwxjDzZYdbVwAA lookup 0-1" m w e
EndChar

StartChar: m_y_i
Encoding: 389 -1 137
Width: 1445
VWidth: 0
HStem: -198 33<613.005 686.866> -61 33<493 584 613.125 686 717 807> 0 21G<69 136 615 682.016 1309 1376> 0 21G<69 136 615 682.016 1309 1376> 325 67<1136.55 1264.08> 371 67<136 320> 520 66.5557<69.4443 320> 608 67<894 1063 1137 1264.02> 619 20G<615 682.016>
VStem: 69 67<0 371> 320 67<438 520> 566 32<-149.688 -76.6098> 615 67.0156<0 639> 701 34<-150.557 -75.3722> 1025 66.875<435.943 563.33> 1309 67<0 363 437.016 563.236>
LayerCount: 2
Fore
SplineSet
69 0 m 5xe67f
 69 146 69 292 69 438 c 5
 320 438 l 5
 320 520 l 5
 69 520 l 5
 69 534 69.4443359375 552.444335938 69.4443359375 567.629882812 c 4
 69.4443359375 575.22265625 69.3330078125 582 69 587 c 5
 103.666992188 586.666992188 139.111328125 586.555664062 174.77734375 586.555664062 c 4
 246.111328125 586.555664062 318.333007812 587 387 587 c 5
 387 371 l 5
 136 371 l 5
 136 0 l 5
 69 0 l 5xe67f
615 639 m 1xe2ff
 682.015625 639 l 1
 682.015625 0 l 1
 615 0 l 1
 615 639 l 1xe2ff
493 -28 m 5
 807 -28 l 5
 807 -61 l 5
 717 -61 l 5
 728 -75 735 -94 735 -113 c 4
 735 -160 697 -198 650 -198 c 4
 604 -198 566 -160 566 -113 c 4
 566 -94 573 -75 584 -61 c 5
 493 -61 l 5
 493 -28 l 5
650 -62 m 4
 621 -62 598 -85 598 -113 c 4
 598 -141 621 -165 650 -165 c 4
 678 -165 701 -141 701 -113 c 4
 701 -85 678 -62 650 -62 c 4
894 675 m 1xeb7f
 1205 675 l 1
 1300 673 1376 595 1376 500 c 2
 1376 0 l 1
 1309 0 l 1
 1309 363 l 1
 1279 339 1242 325 1201 325 c 0
 1104 325 1025 403 1025 500 c 0
 1025 541 1039 578 1063 608 c 1
 894 608 l 1
 894 675 l 1xeb7f
1202 608 m 0
 1138.31542969 608 1091.875 556.84375 1091.875 500.287109375 c 0
 1091.875 482.24609375 1096.60058594 463.655273438 1107 446 c 0
 1125 415 1158 394 1194 392 c 1
 1201 392 l 2
 1261.99707031 392 1308.90820312 443.814453125 1308.90820312 500.703125 c 0
 1308.90820312 524.022460938 1301.02539062 548.1953125 1283 570 c 0
 1276 579 1248 608 1202 608 c 0
EndSplineSet
Validated: 1
Ligature2: "+VAhbVzB4MG5/bmPb in +MOkwxjDzZYdbVwAA lookup 0-1" m y i
EndChar

StartChar: m_y_a
Encoding: 390 -1 138
Width: 1452
VWidth: 0
HStem: -198 33<613.005 686.866> -61 33<493 584 613.125 686 717 807> 0 21G<69 136 615 682.016 917 985> 0 21G<69 136 615 682.016 917 985> 312 64<1028.29 1159.83> 371 67<136 320> 520 66.5557<69.4443 320> 583 65<1030.46 1159.79 1233 1403> 619 20G<615 682.016>
VStem: 69 67<0 371> 320 67<438 520> 566 32<-149.688 -76.6098> 615 67.0156<0 639> 701 34<-150.557 -75.3722> 917 68<0 348 418.657 540.488> 1203.9 67.1045<420.914 539.966>
LayerCount: 2
Fore
SplineSet
69 0 m 5xe67f
 69 146 69 292 69 438 c 5
 320 438 l 5
 320 520 l 5
 69 520 l 5
 69 534 69.4443359375 552.444335938 69.4443359375 567.629882812 c 4
 69.4443359375 575.22265625 69.3330078125 582 69 587 c 5
 103.666992188 586.666992188 139.111328125 586.555664062 174.77734375 586.555664062 c 4
 246.111328125 586.555664062 318.333007812 587 387 587 c 5
 387 371 l 5
 136 371 l 5
 136 0 l 5
 69 0 l 5xe67f
615 639 m 1xe0ff
 682.015625 639 l 1
 682.015625 0 l 1
 615 0 l 1
 615 639 l 1xe0ff
493 -28 m 5
 807 -28 l 5
 807 -61 l 5
 717 -61 l 5
 728 -75 735 -94 735 -113 c 4
 735 -160 697 -198 650 -198 c 4
 604 -198 566 -160 566 -113 c 4
 566 -94 573 -75 584 -61 c 5
 493 -61 l 5
 493 -28 l 5
650 -62 m 4
 621 -62 598 -85 598 -113 c 4
 598 -141 621 -165 650 -165 c 4
 678 -165 701 -141 701 -113 c 4
 701 -85 678 -62 650 -62 c 4
1403 648 m 1xe97f
 1403 583 l 1
 1233 583 l 1
 1257 555 1271 519 1271 480 c 0
 1271 387 1192 312 1094 312 c 0
 1053 312 1015 325 985 348 c 1
 985 0 l 1
 917 0 l 1
 917 478 l 1
 918 478 l 1
 918 480 l 2
 918 571 994 645 1090 648 c 1
 1403 648 l 1xe97f
1093 583 m 0
 1039.37011719 583 984.884765625 541.10546875 984.884765625 480.243164062 c 0
 984.884765625 475.284179688 985.24609375 470.198242188 986 465 c 0
 995 407 1048 376 1094 376 c 4
 1166.5703125 376 1203.89550781 437.091796875 1203.89550781 478.869140625 c 4
 1203.89550781 484.297851562 1203.26464844 489.400390625 1202 494 c 1
 1194 550 1142 583 1098 583 c 0
 1096 583 1095 583 1093 583 c 0
EndSplineSet
Validated: 1
Ligature2: "+VAhbVzB4MG5/bmPb in +MOkwxjDzZYdbVwAA lookup 0-1" m y a
EndChar

StartChar: m_y_u
Encoding: 391 -1 139
Width: 1490
VWidth: 0
HStem: -198 33<613.005 686.866> -61 33<493 584 613.125 686 717 807> 0 21G<69 136 615 682.016 1081 1148> 0 21G<69 136 615 682.016 1081 1148> 357 67<897 1082 1193.76 1321.09> 371 67<136 320> 520 66.5557<69.4443 320> 619 20G<615 682.016> 640 67<1192.23 1320.77>
VStem: 69 67<0 371> 320 67<438 520> 566 32<-149.688 -76.6098> 615 67.0156<0 639> 701 34<-150.557 -75.3722> 1082 67.0615<0 357 468.91 594.495> 1365.43 66.8242<468.038 595.787>
LayerCount: 2
Fore
SplineSet
69 0 m 5xe7ff
 69 146 69 292 69 438 c 5
 320 438 l 5
 320 520 l 5
 69 520 l 5
 69 534 69.4443359375 552.444335938 69.4443359375 567.629882812 c 4
 69.4443359375 575.22265625 69.3330078125 582 69 587 c 5
 103.666992188 586.666992188 139.111328125 586.555664062 174.77734375 586.555664062 c 4
 246.111328125 586.555664062 318.333007812 587 387 587 c 5
 387 371 l 5
 136 371 l 5
 136 0 l 5
 69 0 l 5xe7ff
615 639 m 1
 682.015625 639 l 1
 682.015625 0 l 1
 615 0 l 1
 615 639 l 1
493 -28 m 5
 807 -28 l 5
 807 -61 l 5
 717 -61 l 5
 728 -75 735 -94 735 -113 c 4
 735 -160 697 -198 650 -198 c 4
 604 -198 566 -160 566 -113 c 4
 566 -94 573 -75 584 -61 c 5
 493 -61 l 5
 493 -28 l 5
650 -62 m 4
 621 -62 598 -85 598 -113 c 4
 598 -141 621 -165 650 -165 c 4
 678 -165 701 -141 701 -113 c 4
 701 -85 678 -62 650 -62 c 4
1257 707 m 0
 1258.15429688 707.025390625 1259.30859375 707.037109375 1260.46289062 707.037109375 c 0
 1305.29980469 707.037109375 1349.80273438 688.171875 1381 656 c 0
 1416.61328125 624.237304688 1432.25585938 581.768554688 1432.25585938 538.833007812 c 0
 1432.25585938 448.924804688 1363.66113281 356.966796875 1266.19726562 356.966796875 c 0
 1265.13476562 356.966796875 1264.06933594 356.978515625 1263 357 c 0
 1225 357 1187 357 1149 357 c 1
 1149 228 1148 129 1148 0 c 1
 1081 0 l 1
 1081 129 1082 228 1082 357 c 1
 897 357 l 1
 897 424 l 1
 1082 424 l 1xebff
 1082 513 l 2
 1081.53613281 518.049804688 1081.30859375 523.10546875 1081.30859375 528.151367188 c 0
 1081.30859375 619.127929688 1155.23632812 707.116210938 1250.96777344 707.116210938 c 0
 1252.96875 707.116210938 1254.98046875 707.078125 1257 707 c 0
1256.859375 423.431640625 m 0
 1310.19824219 423.431640625 1365.43164062 467.6875 1365.43164062 533.336914062 c 0
 1365.43164062 588.622070312 1317.14453125 640.046875 1260.92382812 640.046875 c 0
 1259.95214844 640.046875 1258.9765625 640.03125 1258 640 c 0
 1257.22851562 640.017578125 1256.45703125 640.02734375 1255.68652344 640.02734375 c 0
 1197.59472656 640.02734375 1149.06152344 591.004882812 1149.06152344 533.819335938 c 0
 1149.06152344 475.501953125 1195.71582031 423.431640625 1256.859375 423.431640625 c 0
EndSplineSet
Validated: 1
Ligature2: "+VAhbVzB4MG5/bmPb in +MOkwxjDzZYdbVwAA lookup 0-1" m y u
EndChar

StartChar: m_y_o
Encoding: 392 -1 140
Width: 1492
VWidth: 0
HStem: -198 33<613.005 686.866> -61 33<493 584 613.125 686 717 807> 0 21G<69 136 615 682.016 1184.81 1251.81> 0 21G<69 136 615 682.016 1184.81 1251.81> 343 67<1012.72 1140.05 1251.81 1436.81> 371 67<136 320> 520 66.5557<69.4443 320> 619 20G<615 682.016> 626 67<1013.04 1141.58>
VStem: 69 67<0 371> 320 67<438 520> 566 32<-149.688 -76.6098> 615 67.0156<0 639> 701 34<-150.557 -75.3722> 902 66.3799<454.049 581.796> 1184.81 67<0 343 454.91 580.495>
LayerCount: 2
Fore
SplineSet
69 0 m 5xe67f
 69 146 69 292 69 438 c 5
 320 438 l 5
 320 520 l 5
 69 520 l 5
 69 534 69.4443359375 552.444335938 69.4443359375 567.629882812 c 4
 69.4443359375 575.22265625 69.3330078125 582 69 587 c 5
 103.666992188 586.666992188 139.111328125 586.555664062 174.77734375 586.555664062 c 4
 246.111328125 586.555664062 318.333007812 587 387 587 c 5
 387 371 l 5
 136 371 l 5
 136 0 l 5
 69 0 l 5xe67f
615 639 m 1xe37f
 682.015625 639 l 1
 682.015625 0 l 1
 615 0 l 1
 615 639 l 1xe37f
493 -28 m 5
 807 -28 l 5
 807 -61 l 5
 717 -61 l 5
 728 -75 735 -94 735 -113 c 4
 735 -160 697 -198 650 -198 c 4
 604 -198 566 -160 566 -113 c 4
 566 -94 573 -75 584 -61 c 5
 493 -61 l 5
 493 -28 l 5
650 -62 m 4
 621 -62 598 -85 598 -113 c 4
 598 -141 621 -165 650 -165 c 4
 678 -165 701 -141 701 -113 c 4
 701 -85 678 -62 650 -62 c 4
1076.8125 693 m 4xeaff
 1078.83203125 693.078125 1080.84277344 693.116210938 1082.84472656 693.116210938 c 4
 1178.57617188 693.116210938 1252.50292969 605.127929688 1252.50292969 514.151367188 c 4
 1252.50292969 509.10546875 1252.27636719 504.049804688 1251.8125 499 c 6
 1251.8125 410 l 5
 1436.8125 410 l 5
 1436.8125 343 l 5
 1251.8125 343 l 5
 1251.8125 0 l 5
 1184.8125 0 l 5
 1184.8125 343 l 5
 1146.8125 343 1108.8125 343 1070.8125 343 c 4
 1069.74316406 342.978515625 1068.67773438 342.966796875 1067.61523438 342.966796875 c 4
 970.1484375 342.966796875 902 434.948242188 902 524.8671875 c 4
 902 567.791015625 917.529296875 610.245117188 952.8125 642 c 4
 984.008789062 674.171875 1028.51269531 693.037109375 1073.34960938 693.037109375 c 4
 1074.50390625 693.037109375 1075.65820312 693.025390625 1076.8125 693 c 4xeaff
1184.75 519.819335938 m 4
 1184.75 577.001953125 1136.21875 626.02734375 1078.12597656 626.02734375 c 4
 1077.35546875 626.02734375 1076.58398438 626.017578125 1075.8125 626 c 4
 1074.83496094 626.03125 1073.86035156 626.046875 1072.88769531 626.046875 c 4
 1016.66796875 626.046875 968.379882812 574.622070312 968.379882812 519.336914062 c 4
 968.379882812 453.685546875 1023.61621094 409.431640625 1076.953125 409.431640625 c 4
 1138.09472656 409.431640625 1184.75 461.5 1184.75 519.819335938 c 4
EndSplineSet
Validated: 1
Ligature2: "+VAhbVzB4MG5/bmPb in +MOkwxjDzZYdbVwAA lookup 0-1" m y o
EndChar

StartChar: m_y_e
Encoding: 393 -1 141
Width: 1308
VWidth: 0
HStem: -198 33<613.005 686.866> -61 33<493 584 613.125 686 717 807> 0 21G<69 136 615 682.016 1044 1111> 0 21G<69 136 615 682.016 1044 1111> 302 69<1007.59 1044> 371 67<136 320> 520 66.5557<69.4443 320> 578 68<1007.59 1044> 619 20G<615 682.016 1044 1111>
VStem: 69 67<0 371> 320 67<438 520> 566 32<-149.688 -76.6098> 615 67.0156<0 639> 701 34<-150.557 -75.3722> 901 67.9531<408.527 539.449> 1044 67<0 306.538 372 577 641.479 683> 1184.12 66.875<409.443 539.5>
LayerCount: 2
Fore
SplineSet
69 0 m 5xe67f80
 69 146 69 292 69 438 c 5
 320 438 l 5
 320 520 l 5
 69 520 l 5
 69 534 69.4443359375 552.444335938 69.4443359375 567.629882812 c 4
 69.4443359375 575.22265625 69.3330078125 582 69 587 c 5
 103.666992188 586.666992188 139.111328125 586.555664062 174.77734375 586.555664062 c 4
 246.111328125 586.555664062 318.333007812 587 387 587 c 5
 387 371 l 5
 136 371 l 5
 136 0 l 5
 69 0 l 5xe67f80
615 639 m 1xe0ff80
 682.015625 639 l 1
 682.015625 0 l 1
 615 0 l 1
 615 639 l 1xe0ff80
493 -28 m 5
 807 -28 l 5
 807 -61 l 5
 717 -61 l 5
 728 -75 735 -94 735 -113 c 4
 735 -160 697 -198 650 -198 c 4
 604 -198 566 -160 566 -113 c 4
 566 -94 573 -75 584 -61 c 5
 493 -61 l 5
 493 -28 l 5
650 -62 m 4
 621 -62 598 -85 598 -113 c 4
 598 -141 621 -165 650 -165 c 4
 678 -165 701 -141 701 -113 c 4
 701 -85 678 -62 650 -62 c 4
1044 683 m 1
 1111 683 l 1
 1111 646 l 1
 1191 630 1251 559 1251 474 c 0
 1251 390 1191 319 1111 303 c 1
 1111 0 l 1
 1044 0 l 1
 1044 302 l 1
 963 317 901 389 901 474 c 0
 901 560 963 631 1044 646 c 1xe97f80
 1044 683 l 1
1044 578 m 1
 995.314453125 563.137695312 968.953125 518.073242188 968.953125 473.08984375 c 0
 968.953125 430.295898438 992.809570312 387.576171875 1044 371 c 5
 1044 578 l 1
1111 577 m 1
 1111 372 l 1
 1159.87402344 388.458007812 1184.125 431.528320312 1184.125 474.54296875 c 0
 1184.125 517.779296875 1159.62402344 560.958984375 1111 577 c 1
EndSplineSet
Validated: 1
Ligature2: "+VAhbVzB4MG5/bmPb in +MOkwxjDzZYdbVwAA lookup 0-1" m y e
EndChar

StartChar: r_i
Encoding: 394 -1 142
Width: 1044
VWidth: 0
HStem: 0 21G<186 253 908 975> 0 21G<186 253 908 975> 325 67<735.549 863.076> 375 67<123 186 253 319> 517 67<253 319> 608 67<493 662 736.004 863.02>
VStem: 56.4443 66.5557<442 587> 186 67<0 375 442 517 584 585> 319 67<442 517 584 585> 624 66.875<435.943 563.33> 908 67<0 363 437.016 563.236>
LayerCount: 2
Fore
SplineSet
186 0 m 1x9fe0
 186 375 l 1
 56 375 l 1
 56.3330078125 398.333007812 56.4443359375 421.77734375 56.4443359375 445.295898438 c 0
 56.4443359375 492.333007812 56 539.666992188 56 587 c 1
 123 587 l 1
 123 442 l 1
 144 442 165 442 186 442 c 1
 186 585 l 1
 208.333007812 585 230.666992188 585 253 585 c 1
 253 584 l 1
 275 584 297 584 319 584 c 1
 319 585 l 1
 386 585 l 1
 386 375 l 1
 341.666992188 375 297.333007812 375 253 375 c 1
 253 0 l 1
 186 0 l 1x9fe0
319 442 m 1
 319 467 319 492 319 517 c 1
 253 517 l 1
 253 442 l 1
 275 442 297 442 319 442 c 1
493 675 m 1
 804 675 l 1
 899 673 975 595 975 500 c 2
 975 0 l 1
 908 0 l 1
 908 363 l 1
 878 339 841 325 800 325 c 0xafe0
 703 325 624 403 624 500 c 0
 624 541 638 578 662 608 c 1
 493 608 l 1
 493 675 l 1
801 608 m 0
 737.315429688 608 690.875 556.84375 690.875 500.287109375 c 0
 690.875 482.24609375 695.600585938 463.655273438 706 446 c 0
 724 415 757 394 793 392 c 1
 800 392 l 2
 860.997070312 392 907.908203125 443.814453125 907.908203125 500.703125 c 0
 907.908203125 524.022460938 900.025390625 548.1953125 882 570 c 0
 875 579 847 608 801 608 c 0
EndSplineSet
Validated: 1
Ligature2: "+VAhbVzB4MG5/bmPb in +MOkwxjDzZYdbVwAA lookup 0-1" r i
EndChar

StartChar: r_a
Encoding: 395 -1 143
Width: 1051
VWidth: 0
HStem: 0 21G<186 253 516 584> 0 21G<186 253 516 584> 312 64<627.288 758.833> 375 67<123 186 253 319> 517 67<253 319> 583 65<629.457 758.793 832 1002>
VStem: 56.4443 66.5557<442 587> 186 67<0 375 442 517 584 585> 319 67<442 517 584 585> 516 68<0 348 418.657 540.488> 802.896 67.1045<420.914 539.966>
LayerCount: 2
Fore
SplineSet
186 0 m 1x9be0
 186 375 l 1
 56 375 l 1
 56.3330078125 398.333007812 56.4443359375 421.77734375 56.4443359375 445.295898438 c 0
 56.4443359375 492.333007812 56 539.666992188 56 587 c 1
 123 587 l 1
 123 442 l 1
 144 442 165 442 186 442 c 1
 186 585 l 1
 208.333007812 585 230.666992188 585 253 585 c 1
 253 584 l 1
 275 584 297 584 319 584 c 1
 319 585 l 1
 386 585 l 1
 386 375 l 1
 341.666992188 375 297.333007812 375 253 375 c 1
 253 0 l 1
 186 0 l 1x9be0
319 442 m 1
 319 467 319 492 319 517 c 1
 253 517 l 1
 253 442 l 1
 275 442 297 442 319 442 c 1
1002 648 m 1xa7e0
 1002 583 l 1
 832 583 l 1
 856 555 870 519 870 480 c 0
 870 387 791 312 693 312 c 0
 652 312 614 325 584 348 c 1
 584 0 l 1
 516 0 l 1
 516 478 l 1
 517 478 l 1
 517 480 l 2
 517 571 593 645 689 648 c 1
 1002 648 l 1xa7e0
692 583 m 0
 638.370117188 583 583.884765625 541.10546875 583.884765625 480.243164062 c 0
 583.884765625 475.284179688 584.24609375 470.198242188 585 465 c 0
 594 407 647 376 693 376 c 4
 765.5703125 376 802.895507812 437.091796875 802.895507812 478.869140625 c 4
 802.895507812 484.297851562 802.264648438 489.400390625 801 494 c 1
 793 550 741 583 697 583 c 0
 695 583 694 583 692 583 c 0
EndSplineSet
Validated: 1
Ligature2: "+VAhbVzB4MG5/bmPb in +MOkwxjDzZYdbVwAA lookup 0-1" r a
EndChar

StartChar: r_u
Encoding: 396 -1 144
Width: 1089
VWidth: 0
HStem: 0 21G<186 253 680 747> 0 21G<186 253 680 747> 357 67<496 681 792.757 920.089> 375 67<123 186 253 319> 517 67<253 319> 640 67<791.233 919.77>
VStem: 56.4443 66.5557<442 587> 186 67<0 375 442 517 584 585> 319 67<442 517 584 585> 681 67.0615<0 357 468.91 594.495> 964.432 66.8242<468.038 595.787>
LayerCount: 2
Fore
SplineSet
186 0 m 1x9fe0
 186 375 l 1
 56 375 l 1
 56.3330078125 398.333007812 56.4443359375 421.77734375 56.4443359375 445.295898438 c 0
 56.4443359375 492.333007812 56 539.666992188 56 587 c 1
 123 587 l 1
 123 442 l 1
 144 442 165 442 186 442 c 1
 186 585 l 1
 208.333007812 585 230.666992188 585 253 585 c 1
 253 584 l 1
 275 584 297 584 319 584 c 1
 319 585 l 1
 386 585 l 1
 386 375 l 1
 341.666992188 375 297.333007812 375 253 375 c 1
 253 0 l 1
 186 0 l 1x9fe0
319 442 m 1
 319 467 319 492 319 517 c 1
 253 517 l 1
 253 442 l 1
 275 442 297 442 319 442 c 1
856 707 m 0
 857.154296875 707.025390625 858.30859375 707.037109375 859.462890625 707.037109375 c 0
 904.299804688 707.037109375 948.802734375 688.171875 980 656 c 0
 1015.61328125 624.237304688 1031.25585938 581.768554688 1031.25585938 538.833007812 c 0
 1031.25585938 448.924804688 962.661132812 356.966796875 865.197265625 356.966796875 c 0
 864.134765625 356.966796875 863.069335938 356.978515625 862 357 c 0
 824 357 786 357 748 357 c 1
 748 228 747 129 747 0 c 1
 680 0 l 1
 680 129 681 228 681 357 c 1
 496 357 l 1
 496 424 l 1
 681 424 l 1xafe0
 681 513 l 2
 680.536132812 518.049804688 680.30859375 523.10546875 680.30859375 528.151367188 c 0
 680.30859375 619.127929688 754.236328125 707.116210938 849.967773438 707.116210938 c 0
 851.96875 707.116210938 853.98046875 707.078125 856 707 c 0
855.859375 423.431640625 m 0
 909.198242188 423.431640625 964.431640625 467.6875 964.431640625 533.336914062 c 0
 964.431640625 588.622070312 916.14453125 640.046875 859.923828125 640.046875 c 0
 858.952148438 640.046875 857.9765625 640.03125 857 640 c 0
 856.228515625 640.017578125 855.45703125 640.02734375 854.686523438 640.02734375 c 0
 796.594726562 640.02734375 748.061523438 591.004882812 748.061523438 533.819335938 c 0
 748.061523438 475.501953125 794.715820312 423.431640625 855.859375 423.431640625 c 0
EndSplineSet
Validated: 1
Ligature2: "+VAhbVzB4MG5/bmPb in +MOkwxjDzZYdbVwAA lookup 0-1" r u
EndChar

StartChar: r_o
Encoding: 397 -1 145
Width: 1091
VWidth: 0
HStem: 0 21G<186 253 783.812 850.812> 0 21G<186 253 783.812 850.812> 343 67<611.724 739.055 850.812 1035.81> 375 67<123 186 253 319> 517 67<253 319> 626 67<612.041 740.58>
VStem: 56.4443 66.5557<442 587> 186 67<0 375 442 517 584 585> 319 67<442 517 584 585> 501 66.3799<454.049 581.796> 783.812 67<0 343 454.91 580.495>
LayerCount: 2
Fore
SplineSet
186 0 m 1x9fe0
 186 375 l 1
 56 375 l 1
 56.3330078125 398.333007812 56.4443359375 421.77734375 56.4443359375 445.295898438 c 0
 56.4443359375 492.333007812 56 539.666992188 56 587 c 1
 123 587 l 1
 123 442 l 1
 144 442 165 442 186 442 c 1
 186 585 l 1
 208.333007812 585 230.666992188 585 253 585 c 1
 253 584 l 1
 275 584 297 584 319 584 c 1
 319 585 l 1
 386 585 l 1
 386 375 l 1
 341.666992188 375 297.333007812 375 253 375 c 1
 253 0 l 1
 186 0 l 1x9fe0
319 442 m 1
 319 467 319 492 319 517 c 1
 253 517 l 1
 253 442 l 1
 275 442 297 442 319 442 c 1
675.8125 693 m 4
 677.83203125 693.078125 679.842773438 693.116210938 681.844726562 693.116210938 c 4
 777.576171875 693.116210938 851.502929688 605.127929688 851.502929688 514.151367188 c 4
 851.502929688 509.10546875 851.276367188 504.049804688 850.8125 499 c 6
 850.8125 410 l 5
 1035.8125 410 l 5
 1035.8125 343 l 5
 850.8125 343 l 5
 850.8125 0 l 5
 783.8125 0 l 5
 783.8125 343 l 5
 745.8125 343 707.8125 343 669.8125 343 c 4xafe0
 668.743164062 342.978515625 667.677734375 342.966796875 666.615234375 342.966796875 c 4
 569.1484375 342.966796875 501 434.948242188 501 524.8671875 c 4
 501 567.791015625 516.529296875 610.245117188 551.8125 642 c 4
 583.008789062 674.171875 627.512695312 693.037109375 672.349609375 693.037109375 c 4
 673.50390625 693.037109375 674.658203125 693.025390625 675.8125 693 c 4
783.75 519.819335938 m 4
 783.75 577.001953125 735.21875 626.02734375 677.125976562 626.02734375 c 4
 676.35546875 626.02734375 675.583984375 626.017578125 674.8125 626 c 4
 673.834960938 626.03125 672.860351562 626.046875 671.887695312 626.046875 c 4
 615.66796875 626.046875 567.379882812 574.622070312 567.379882812 519.336914062 c 4
 567.379882812 453.685546875 622.616210938 409.431640625 675.953125 409.431640625 c 4
 737.094726562 409.431640625 783.75 461.5 783.75 519.819335938 c 4
EndSplineSet
Validated: 1
Ligature2: "+VAhbVzB4MG5/bmPb in +MOkwxjDzZYdbVwAA lookup 0-1" r o
EndChar

StartChar: r_e
Encoding: 398 -1 146
Width: 907
VWidth: 0
HStem: 0 21G<186 253 643 710> 0 21G<186 253 643 710> 302 69<606.587 643> 375 67<123 186 253 319> 517 67<253 319> 578 68<606.587 643> 663 20G<643 710>
VStem: 56.4443 66.5557<442 587> 186 67<0 375 442 517 584 585> 319 67<442 517 584 585> 500 67.9531<408.527 539.449> 643 67<0 306.538 372 577 641.479 683> 783.125 66.875<409.443 539.5>
LayerCount: 2
Fore
SplineSet
186 0 m 1xbbf8
 186 375 l 1
 56 375 l 1
 56.3330078125 398.333007812 56.4443359375 421.77734375 56.4443359375 445.295898438 c 0
 56.4443359375 492.333007812 56 539.666992188 56 587 c 1
 123 587 l 1
 123 442 l 1
 144 442 165 442 186 442 c 1
 186 585 l 1
 208.333007812 585 230.666992188 585 253 585 c 1
 253 584 l 1
 275 584 297 584 319 584 c 1
 319 585 l 1
 386 585 l 1
 386 375 l 1
 341.666992188 375 297.333007812 375 253 375 c 1
 253 0 l 1
 186 0 l 1xbbf8
319 442 m 1
 319 467 319 492 319 517 c 1
 253 517 l 1
 253 442 l 1
 275 442 297 442 319 442 c 1
643 683 m 1
 710 683 l 1
 710 646 l 1
 790 630 850 559 850 474 c 0
 850 390 790 319 710 303 c 1
 710 0 l 1
 643 0 l 1
 643 302 l 1
 562 317 500 389 500 474 c 0
 500 560 562 631 643 646 c 1xb7f8
 643 683 l 1
643 578 m 1
 594.314453125 563.137695312 567.953125 518.073242188 567.953125 473.08984375 c 0
 567.953125 430.295898438 591.809570312 387.576171875 643 371 c 5
 643 578 l 1
710 577 m 1
 710 372 l 1
 758.874023438 388.458007812 783.125 431.528320312 783.125 474.54296875 c 0
 783.125 517.779296875 758.624023438 560.958984375 710 577 c 1
EndSplineSet
Validated: 1
Ligature2: "+VAhbVzB4MG5/bmPb in +MOkwxjDzZYdbVwAA lookup 0-1" r e
EndChar

StartChar: r_w_i
Encoding: 399 -1 147
Width: 1301
VWidth: 0
HStem: -199 33<539.117 613.495> -63 33<539.189 613.931> 0 21G<186 253 543 610.016 1165 1232> 0 21G<186 253 543 610.016 1165 1232> 325 67<992.549 1120.08> 375 67<123 186 253 319> 517 67<253 319> 608 67<750 919 993.004 1120.02> 619 20G<543 610.016>
VStem: 56.4443 66.5557<442 587> 186 67<0 375 442 517 584 585> 319 67<442 517 584 585> 492 33<-150.623 -77.1431 -48 -29> 543 67.0156<0 639> 629 32<-149.005 -78.8774 -48 -28> 881 66.875<435.943 563.33> 1165 67<0 363 437.016 563.236>
LayerCount: 2
Fore
SplineSet
186 0 m 1xe67f80
 186 375 l 1
 56 375 l 1
 56.3330078125 398.333007812 56.4443359375 421.77734375 56.4443359375 445.295898438 c 0
 56.4443359375 492.333007812 56 539.666992188 56 587 c 1
 123 587 l 1
 123 442 l 1
 144 442 165 442 186 442 c 1
 186 585 l 1
 208.333007812 585 230.666992188 585 253 585 c 1
 253 584 l 1
 275 584 297 584 319 584 c 1
 319 585 l 1
 386 585 l 1
 386 375 l 1
 341.666992188 375 297.333007812 375 253 375 c 1
 253 0 l 1
 186 0 l 1xe67f80
319 442 m 1
 319 467 319 492 319 517 c 1
 253 517 l 1
 253 442 l 1
 275 442 297 442 319 442 c 1
543 639 m 1xe2ff80
 610.015625 639 l 1
 610.015625 0 l 1
 543 0 l 1
 543 639 l 1xe2ff80
629 -28 m 5
 661 -28 l 5
 661 -114 l 6
 661 -161 623 -199 577 -199 c 4
 531 -199 494 -162 492 -117 c 5
 492 -29 l 5
 525 -29 l 5
 525 -48 l 5
 539 -36 557 -30 577 -30 c 4
 596 -30 614 -36 629 -48 c 5
 629 -28 l 5
576 -63 m 4
 548 -63 525 -86 525 -114 c 4
 525 -142 548 -166 576 -166 c 4
 605 -166 628 -142 628 -114 c 4
 628 -86 605 -63 576 -63 c 4
750 675 m 1xeb7f80
 1061 675 l 1
 1156 673 1232 595 1232 500 c 2
 1232 0 l 1
 1165 0 l 1
 1165 363 l 1
 1135 339 1098 325 1057 325 c 0
 960 325 881 403 881 500 c 0
 881 541 895 578 919 608 c 1
 750 608 l 1
 750 675 l 1xeb7f80
1058 608 m 0
 994.315429688 608 947.875 556.84375 947.875 500.287109375 c 0
 947.875 482.24609375 952.600585938 463.655273438 963 446 c 0
 981 415 1014 394 1050 392 c 1
 1057 392 l 2
 1117.99707031 392 1164.90820312 443.814453125 1164.90820312 500.703125 c 0
 1164.90820312 524.022460938 1157.02539062 548.1953125 1139 570 c 0
 1132 579 1104 608 1058 608 c 0
EndSplineSet
Validated: 1
Ligature2: "+VAhbVzB4MG5/bmPb in +MOkwxjDzZYdbVwAA lookup 0-1" r w i
EndChar

StartChar: r_w_a
Encoding: 400 -1 148
Width: 1308
VWidth: 0
HStem: -199 33<539.117 613.495> -63 33<539.189 613.931> 0 21G<186 253 543 610.016 773 841> 0 21G<186 253 543 610.016 773 841> 312 64<884.288 1015.83> 375 67<123 186 253 319> 517 67<253 319> 583 65<886.457 1015.79 1089 1259> 619 20G<543 610.016>
VStem: 56.4443 66.5557<442 587> 186 67<0 375 442 517 584 585> 319 67<442 517 584 585> 492 33<-150.623 -77.1431 -48 -29> 543 67.0156<0 639> 629 32<-149.005 -78.8774 -48 -28> 773 68<0 348 418.657 540.488> 1059.9 67.1045<420.914 539.966>
LayerCount: 2
Fore
SplineSet
186 0 m 1xe67f80
 186 375 l 1
 56 375 l 1
 56.3330078125 398.333007812 56.4443359375 421.77734375 56.4443359375 445.295898438 c 0
 56.4443359375 492.333007812 56 539.666992188 56 587 c 1
 123 587 l 1
 123 442 l 1
 144 442 165 442 186 442 c 1
 186 585 l 1
 208.333007812 585 230.666992188 585 253 585 c 1
 253 584 l 1
 275 584 297 584 319 584 c 1
 319 585 l 1
 386 585 l 1
 386 375 l 1
 341.666992188 375 297.333007812 375 253 375 c 1
 253 0 l 1
 186 0 l 1xe67f80
319 442 m 1
 319 467 319 492 319 517 c 1
 253 517 l 1
 253 442 l 1
 275 442 297 442 319 442 c 1
543 639 m 1xe0ff80
 610.015625 639 l 1
 610.015625 0 l 1
 543 0 l 1
 543 639 l 1xe0ff80
629 -28 m 5
 661 -28 l 5
 661 -114 l 6
 661 -161 623 -199 577 -199 c 4
 531 -199 494 -162 492 -117 c 5
 492 -29 l 5
 525 -29 l 5
 525 -48 l 5
 539 -36 557 -30 577 -30 c 4
 596 -30 614 -36 629 -48 c 5
 629 -28 l 5
576 -63 m 4
 548 -63 525 -86 525 -114 c 4
 525 -142 548 -166 576 -166 c 4
 605 -166 628 -142 628 -114 c 4
 628 -86 605 -63 576 -63 c 4
1259 648 m 1xe97f80
 1259 583 l 1
 1089 583 l 1
 1113 555 1127 519 1127 480 c 0
 1127 387 1048 312 950 312 c 0
 909 312 871 325 841 348 c 1
 841 0 l 1
 773 0 l 1
 773 478 l 1
 774 478 l 1
 774 480 l 2
 774 571 850 645 946 648 c 1
 1259 648 l 1xe97f80
949 583 m 0
 895.370117188 583 840.884765625 541.10546875 840.884765625 480.243164062 c 0
 840.884765625 475.284179688 841.24609375 470.198242188 842 465 c 0
 851 407 904 376 950 376 c 4
 1022.5703125 376 1059.89550781 437.091796875 1059.89550781 478.869140625 c 4
 1059.89550781 484.297851562 1059.26464844 489.400390625 1058 494 c 1
 1050 550 998 583 954 583 c 0
 952 583 951 583 949 583 c 0
EndSplineSet
Validated: 1
Ligature2: "+VAhbVzB4MG5/bmPb in +MOkwxjDzZYdbVwAA lookup 0-1" r w a
EndChar

StartChar: r_w_u
Encoding: 401 -1 149
Width: 1346
VWidth: 0
HStem: -199 33<539.117 613.495> -63 33<539.189 613.931> 0 21G<186 253 543 610.016 937 1004> 0 21G<186 253 543 610.016 937 1004> 357 67<753 938 1049.76 1177.09> 375 67<123 186 253 319> 517 67<253 319> 619 20G<543 610.016> 640 67<1048.23 1176.77>
VStem: 56.4443 66.5557<442 587> 186 67<0 375 442 517 584 585> 319 67<442 517 584 585> 492 33<-150.623 -77.1431 -48 -29> 543 67.0156<0 639> 629 32<-149.005 -78.8774 -48 -28> 938 67.0615<0 357 468.91 594.495> 1221.43 66.8242<468.038 595.787>
LayerCount: 2
Fore
SplineSet
186 0 m 1xe7ff80
 186 375 l 1
 56 375 l 1
 56.3330078125 398.333007812 56.4443359375 421.77734375 56.4443359375 445.295898438 c 0
 56.4443359375 492.333007812 56 539.666992188 56 587 c 1
 123 587 l 1
 123 442 l 1
 144 442 165 442 186 442 c 1
 186 585 l 1
 208.333007812 585 230.666992188 585 253 585 c 1
 253 584 l 1
 275 584 297 584 319 584 c 1
 319 585 l 1
 386 585 l 1
 386 375 l 1
 341.666992188 375 297.333007812 375 253 375 c 1
 253 0 l 1
 186 0 l 1xe7ff80
319 442 m 1
 319 467 319 492 319 517 c 1
 253 517 l 1
 253 442 l 1
 275 442 297 442 319 442 c 1
543 639 m 1
 610.015625 639 l 1
 610.015625 0 l 1
 543 0 l 1
 543 639 l 1
629 -28 m 5
 661 -28 l 5
 661 -114 l 6
 661 -161 623 -199 577 -199 c 4
 531 -199 494 -162 492 -117 c 5
 492 -29 l 5
 525 -29 l 5
 525 -48 l 5
 539 -36 557 -30 577 -30 c 4
 596 -30 614 -36 629 -48 c 5
 629 -28 l 5
576 -63 m 4
 548 -63 525 -86 525 -114 c 4
 525 -142 548 -166 576 -166 c 4
 605 -166 628 -142 628 -114 c 4
 628 -86 605 -63 576 -63 c 4
1113 707 m 0
 1114.15429688 707.025390625 1115.30859375 707.037109375 1116.46289062 707.037109375 c 0
 1161.29980469 707.037109375 1205.80273438 688.171875 1237 656 c 0
 1272.61328125 624.237304688 1288.25585938 581.768554688 1288.25585938 538.833007812 c 0
 1288.25585938 448.924804688 1219.66113281 356.966796875 1122.19726562 356.966796875 c 0
 1121.13476562 356.966796875 1120.06933594 356.978515625 1119 357 c 0
 1081 357 1043 357 1005 357 c 1
 1005 228 1004 129 1004 0 c 1
 937 0 l 1
 937 129 938 228 938 357 c 1
 753 357 l 1
 753 424 l 1
 938 424 l 1xebff80
 938 513 l 2
 937.536132812 518.049804688 937.30859375 523.10546875 937.30859375 528.151367188 c 0
 937.30859375 619.127929688 1011.23632812 707.116210938 1106.96777344 707.116210938 c 0
 1108.96875 707.116210938 1110.98046875 707.078125 1113 707 c 0
1112.859375 423.431640625 m 0
 1166.19824219 423.431640625 1221.43164062 467.6875 1221.43164062 533.336914062 c 0
 1221.43164062 588.622070312 1173.14453125 640.046875 1116.92382812 640.046875 c 0
 1115.95214844 640.046875 1114.9765625 640.03125 1114 640 c 0
 1113.22851562 640.017578125 1112.45703125 640.02734375 1111.68652344 640.02734375 c 0
 1053.59472656 640.02734375 1005.06152344 591.004882812 1005.06152344 533.819335938 c 0
 1005.06152344 475.501953125 1051.71582031 423.431640625 1112.859375 423.431640625 c 0
EndSplineSet
Validated: 1
Ligature2: "+VAhbVzB4MG5/bmPb in +MOkwxjDzZYdbVwAA lookup 0-1" r w u
EndChar

StartChar: r_w_o
Encoding: 402 -1 150
Width: 1348
VWidth: 0
HStem: -199 33<539.117 613.495> -63 33<539.189 613.931> 0 21G<186 253 543 610.016 1040.81 1107.81> 0 21G<186 253 543 610.016 1040.81 1107.81> 343 67<868.724 996.055 1107.81 1292.81> 375 67<123 186 253 319> 517 67<253 319> 619 20G<543 610.016> 626 67<869.041 997.58>
VStem: 56.4443 66.5557<442 587> 186 67<0 375 442 517 584 585> 319 67<442 517 584 585> 492 33<-150.623 -77.1431 -48 -29> 543 67.0156<0 639> 629 32<-149.005 -78.8774 -48 -28> 758 66.3799<454.049 581.796> 1040.81 67<0 343 454.91 580.495>
LayerCount: 2
Fore
SplineSet
186 0 m 1xe67f80
 186 375 l 1
 56 375 l 1
 56.3330078125 398.333007812 56.4443359375 421.77734375 56.4443359375 445.295898438 c 0
 56.4443359375 492.333007812 56 539.666992188 56 587 c 1
 123 587 l 1
 123 442 l 1
 144 442 165 442 186 442 c 1
 186 585 l 1
 208.333007812 585 230.666992188 585 253 585 c 1
 253 584 l 1
 275 584 297 584 319 584 c 1
 319 585 l 1
 386 585 l 1
 386 375 l 1
 341.666992188 375 297.333007812 375 253 375 c 1
 253 0 l 1
 186 0 l 1xe67f80
319 442 m 1
 319 467 319 492 319 517 c 1
 253 517 l 1
 253 442 l 1
 275 442 297 442 319 442 c 1
543 639 m 1xe37f80
 610.015625 639 l 1
 610.015625 0 l 1
 543 0 l 1
 543 639 l 1xe37f80
629 -28 m 5
 661 -28 l 5
 661 -114 l 6
 661 -161 623 -199 577 -199 c 4
 531 -199 494 -162 492 -117 c 5
 492 -29 l 5
 525 -29 l 5
 525 -48 l 5
 539 -36 557 -30 577 -30 c 4
 596 -30 614 -36 629 -48 c 5
 629 -28 l 5
576 -63 m 4
 548 -63 525 -86 525 -114 c 4
 525 -142 548 -166 576 -166 c 4
 605 -166 628 -142 628 -114 c 4
 628 -86 605 -63 576 -63 c 4
932.8125 693 m 4xeaff80
 934.83203125 693.078125 936.842773438 693.116210938 938.844726562 693.116210938 c 4
 1034.57617188 693.116210938 1108.50292969 605.127929688 1108.50292969 514.151367188 c 4
 1108.50292969 509.10546875 1108.27636719 504.049804688 1107.8125 499 c 6
 1107.8125 410 l 5
 1292.8125 410 l 5
 1292.8125 343 l 5
 1107.8125 343 l 5
 1107.8125 0 l 5
 1040.8125 0 l 5
 1040.8125 343 l 5
 1002.8125 343 964.8125 343 926.8125 343 c 4
 925.743164062 342.978515625 924.677734375 342.966796875 923.615234375 342.966796875 c 4
 826.1484375 342.966796875 758 434.948242188 758 524.8671875 c 4
 758 567.791015625 773.529296875 610.245117188 808.8125 642 c 4
 840.008789062 674.171875 884.512695312 693.037109375 929.349609375 693.037109375 c 4
 930.50390625 693.037109375 931.658203125 693.025390625 932.8125 693 c 4xeaff80
1040.75 519.819335938 m 4
 1040.75 577.001953125 992.21875 626.02734375 934.125976562 626.02734375 c 4
 933.35546875 626.02734375 932.583984375 626.017578125 931.8125 626 c 4
 930.834960938 626.03125 929.860351562 626.046875 928.887695312 626.046875 c 4
 872.66796875 626.046875 824.379882812 574.622070312 824.379882812 519.336914062 c 4
 824.379882812 453.685546875 879.616210938 409.431640625 932.953125 409.431640625 c 4
 994.094726562 409.431640625 1040.75 461.5 1040.75 519.819335938 c 4
EndSplineSet
Validated: 1
Ligature2: "+VAhbVzB4MG5/bmPb in +MOkwxjDzZYdbVwAA lookup 0-1" r w o
EndChar

StartChar: r_w_e
Encoding: 403 -1 151
Width: 1164
VWidth: 0
HStem: -199 33<539.117 613.495> -63 33<539.189 613.931> 0 21G<186 253 543 610.016 900 967> 0 21G<186 253 543 610.016 900 967> 302 69<863.587 900> 375 67<123 186 253 319> 517 67<253 319> 578 68<863.587 900> 619 20G<543 610.016 900 967>
VStem: 56.4443 66.5557<442 587> 186 67<0 375 442 517 584 585> 319 67<442 517 584 585> 492 33<-150.623 -77.1431 -48 -29> 543 67.0156<0 639> 629 32<-149.005 -78.8774 -48 -28> 757 67.9531<408.527 539.449> 900 67<0 306.538 372 577 641.479 683> 1040.12 66.875<409.443 539.5>
LayerCount: 2
Fore
SplineSet
186 0 m 1xee7fc0
 186 375 l 1
 56 375 l 1
 56.3330078125 398.333007812 56.4443359375 421.77734375 56.4443359375 445.295898438 c 0
 56.4443359375 492.333007812 56 539.666992188 56 587 c 1
 123 587 l 1
 123 442 l 1
 144 442 165 442 186 442 c 1
 186 585 l 1
 208.333007812 585 230.666992188 585 253 585 c 1
 253 584 l 1
 275 584 297 584 319 584 c 1
 319 585 l 1
 386 585 l 1
 386 375 l 1
 341.666992188 375 297.333007812 375 253 375 c 1
 253 0 l 1
 186 0 l 1xee7fc0
319 442 m 1
 319 467 319 492 319 517 c 1
 253 517 l 1
 253 442 l 1
 275 442 297 442 319 442 c 1
543 639 m 1xecffc0
 610.015625 639 l 1
 610.015625 0 l 1
 543 0 l 1
 543 639 l 1xecffc0
629 -28 m 5
 661 -28 l 5
 661 -114 l 6
 661 -161 623 -199 577 -199 c 4
 531 -199 494 -162 492 -117 c 5
 492 -29 l 5
 525 -29 l 5
 525 -48 l 5
 539 -36 557 -30 577 -30 c 4
 596 -30 614 -36 629 -48 c 5
 629 -28 l 5
576 -63 m 4
 548 -63 525 -86 525 -114 c 4
 525 -142 548 -166 576 -166 c 4
 605 -166 628 -142 628 -114 c 4
 628 -86 605 -63 576 -63 c 4
900 683 m 1
 967 683 l 1
 967 646 l 1
 1047 630 1107 559 1107 474 c 0
 1107 390 1047 319 967 303 c 1
 967 0 l 1
 900 0 l 1
 900 302 l 1
 819 317 757 389 757 474 c 0
 757 560 819 631 900 646 c 1xed7fc0
 900 683 l 1
900 578 m 1
 851.314453125 563.137695312 824.953125 518.073242188 824.953125 473.08984375 c 0
 824.953125 430.295898438 848.809570312 387.576171875 900 371 c 5
 900 578 l 1
967 577 m 1
 967 372 l 1
 1015.87402344 388.458007812 1040.125 431.528320312 1040.125 474.54296875 c 0
 1040.125 517.779296875 1015.62402344 560.958984375 967 577 c 1
EndSplineSet
Validated: 1
Ligature2: "+VAhbVzB4MG5/bmPb in +MOkwxjDzZYdbVwAA lookup 0-1" r w e
EndChar

StartChar: r_y_i
Encoding: 404 -1 152
Width: 1444
VWidth: 0
HStem: -198 33<612.005 685.866> -61 33<492 583 612.125 685 716 806> 0 21G<186 253 614 681.016 1308 1375> 0 21G<186 253 614 681.016 1308 1375> 325 67<1135.55 1263.08> 375 67<123 186 253 319> 517 67<253 319> 608 67<893 1062 1136 1263.02> 619 20G<614 681.016>
VStem: 56.4443 66.5557<442 587> 186 67<0 375 442 517 584 585> 319 67<442 517 584 585> 565 32<-149.688 -76.6098> 614 67.0156<0 639> 700 34<-150.557 -75.3722> 1024 66.875<435.943 563.33> 1308 67<0 363 437.016 563.236>
LayerCount: 2
Fore
SplineSet
186 0 m 1xe67f80
 186 375 l 1
 56 375 l 1
 56.3330078125 398.333007812 56.4443359375 421.77734375 56.4443359375 445.295898438 c 0
 56.4443359375 492.333007812 56 539.666992188 56 587 c 1
 123 587 l 1
 123 442 l 1
 144 442 165 442 186 442 c 1
 186 585 l 1
 208.333007812 585 230.666992188 585 253 585 c 1
 253 584 l 1
 275 584 297 584 319 584 c 1
 319 585 l 1
 386 585 l 1
 386 375 l 1
 341.666992188 375 297.333007812 375 253 375 c 1
 253 0 l 1
 186 0 l 1xe67f80
319 442 m 1
 319 467 319 492 319 517 c 1
 253 517 l 1
 253 442 l 1
 275 442 297 442 319 442 c 1
614 639 m 1xe2ff80
 681.015625 639 l 1
 681.015625 0 l 1
 614 0 l 1
 614 639 l 1xe2ff80
492 -28 m 5
 806 -28 l 5
 806 -61 l 5
 716 -61 l 5
 727 -75 734 -94 734 -113 c 4
 734 -160 696 -198 649 -198 c 4
 603 -198 565 -160 565 -113 c 4
 565 -94 572 -75 583 -61 c 5
 492 -61 l 5
 492 -28 l 5
649 -62 m 4
 620 -62 597 -85 597 -113 c 4
 597 -141 620 -165 649 -165 c 4
 677 -165 700 -141 700 -113 c 4
 700 -85 677 -62 649 -62 c 4
893 675 m 1xeb7f80
 1204 675 l 1
 1299 673 1375 595 1375 500 c 2
 1375 0 l 1
 1308 0 l 1
 1308 363 l 1
 1278 339 1241 325 1200 325 c 0
 1103 325 1024 403 1024 500 c 0
 1024 541 1038 578 1062 608 c 1
 893 608 l 1
 893 675 l 1xeb7f80
1201 608 m 0
 1137.31542969 608 1090.875 556.84375 1090.875 500.287109375 c 0
 1090.875 482.24609375 1095.60058594 463.655273438 1106 446 c 0
 1124 415 1157 394 1193 392 c 1
 1200 392 l 2
 1260.99707031 392 1307.90820312 443.814453125 1307.90820312 500.703125 c 0
 1307.90820312 524.022460938 1300.02539062 548.1953125 1282 570 c 0
 1275 579 1247 608 1201 608 c 0
EndSplineSet
Validated: 1
Ligature2: "+VAhbVzB4MG5/bmPb in +MOkwxjDzZYdbVwAA lookup 0-1" r y i
EndChar

StartChar: r_y_a
Encoding: 405 -1 153
Width: 1451
VWidth: 0
HStem: -198 33<612.005 685.866> -61 33<492 583 612.125 685 716 806> 0 21G<186 253 614 681.016 916 984> 0 21G<186 253 614 681.016 916 984> 312 64<1027.29 1158.83> 375 67<123 186 253 319> 517 67<253 319> 583 65<1029.46 1158.79 1232 1402> 619 20G<614 681.016>
VStem: 56.4443 66.5557<442 587> 186 67<0 375 442 517 584 585> 319 67<442 517 584 585> 565 32<-149.688 -76.6098> 614 67.0156<0 639> 700 34<-150.557 -75.3722> 916 68<0 348 418.657 540.488> 1202.9 67.1045<420.914 539.966>
LayerCount: 2
Fore
SplineSet
186 0 m 1xe67f80
 186 375 l 1
 56 375 l 1
 56.3330078125 398.333007812 56.4443359375 421.77734375 56.4443359375 445.295898438 c 0
 56.4443359375 492.333007812 56 539.666992188 56 587 c 1
 123 587 l 1
 123 442 l 1
 144 442 165 442 186 442 c 1
 186 585 l 1
 208.333007812 585 230.666992188 585 253 585 c 1
 253 584 l 1
 275 584 297 584 319 584 c 1
 319 585 l 1
 386 585 l 1
 386 375 l 1
 341.666992188 375 297.333007812 375 253 375 c 1
 253 0 l 1
 186 0 l 1xe67f80
319 442 m 1
 319 467 319 492 319 517 c 1
 253 517 l 1
 253 442 l 1
 275 442 297 442 319 442 c 1
614 639 m 1xe0ff80
 681.015625 639 l 1
 681.015625 0 l 1
 614 0 l 1
 614 639 l 1xe0ff80
492 -28 m 5
 806 -28 l 5
 806 -61 l 5
 716 -61 l 5
 727 -75 734 -94 734 -113 c 4
 734 -160 696 -198 649 -198 c 4
 603 -198 565 -160 565 -113 c 4
 565 -94 572 -75 583 -61 c 5
 492 -61 l 5
 492 -28 l 5
649 -62 m 4
 620 -62 597 -85 597 -113 c 4
 597 -141 620 -165 649 -165 c 4
 677 -165 700 -141 700 -113 c 4
 700 -85 677 -62 649 -62 c 4
1402 648 m 1xe97f80
 1402 583 l 1
 1232 583 l 1
 1256 555 1270 519 1270 480 c 0
 1270 387 1191 312 1093 312 c 0
 1052 312 1014 325 984 348 c 1
 984 0 l 1
 916 0 l 1
 916 478 l 1
 917 478 l 1
 917 480 l 2
 917 571 993 645 1089 648 c 1
 1402 648 l 1xe97f80
1092 583 m 0
 1038.37011719 583 983.884765625 541.10546875 983.884765625 480.243164062 c 0
 983.884765625 475.284179688 984.24609375 470.198242188 985 465 c 0
 994 407 1047 376 1093 376 c 4
 1165.5703125 376 1202.89550781 437.091796875 1202.89550781 478.869140625 c 4
 1202.89550781 484.297851562 1202.26464844 489.400390625 1201 494 c 1
 1193 550 1141 583 1097 583 c 0
 1095 583 1094 583 1092 583 c 0
EndSplineSet
Validated: 1
Ligature2: "+VAhbVzB4MG5/bmPb in +MOkwxjDzZYdbVwAA lookup 0-1" r y a
EndChar

StartChar: r_y_u
Encoding: 406 -1 154
Width: 1489
VWidth: 0
HStem: -198 33<612.005 685.866> -61 33<492 583 612.125 685 716 806> 0 21G<186 253 614 681.016 1080 1147> 0 21G<186 253 614 681.016 1080 1147> 357 67<896 1081 1192.76 1320.09> 375 67<123 186 253 319> 517 67<253 319> 619 20G<614 681.016> 640 67<1191.23 1319.77>
VStem: 56.4443 66.5557<442 587> 186 67<0 375 442 517 584 585> 319 67<442 517 584 585> 565 32<-149.688 -76.6098> 614 67.0156<0 639> 700 34<-150.557 -75.3722> 1081 67.0615<0 357 468.91 594.495> 1364.43 66.8242<468.038 595.787>
LayerCount: 2
Fore
SplineSet
186 0 m 1xe7ff80
 186 375 l 1
 56 375 l 1
 56.3330078125 398.333007812 56.4443359375 421.77734375 56.4443359375 445.295898438 c 0
 56.4443359375 492.333007812 56 539.666992188 56 587 c 1
 123 587 l 1
 123 442 l 1
 144 442 165 442 186 442 c 1
 186 585 l 1
 208.333007812 585 230.666992188 585 253 585 c 1
 253 584 l 1
 275 584 297 584 319 584 c 1
 319 585 l 1
 386 585 l 1
 386 375 l 1
 341.666992188 375 297.333007812 375 253 375 c 1
 253 0 l 1
 186 0 l 1xe7ff80
319 442 m 1
 319 467 319 492 319 517 c 1
 253 517 l 1
 253 442 l 1
 275 442 297 442 319 442 c 1
614 639 m 1
 681.015625 639 l 1
 681.015625 0 l 1
 614 0 l 1
 614 639 l 1
492 -28 m 5
 806 -28 l 5
 806 -61 l 5
 716 -61 l 5
 727 -75 734 -94 734 -113 c 4
 734 -160 696 -198 649 -198 c 4
 603 -198 565 -160 565 -113 c 4
 565 -94 572 -75 583 -61 c 5
 492 -61 l 5
 492 -28 l 5
649 -62 m 4
 620 -62 597 -85 597 -113 c 4
 597 -141 620 -165 649 -165 c 4
 677 -165 700 -141 700 -113 c 4
 700 -85 677 -62 649 -62 c 4
1256 707 m 0
 1257.15429688 707.025390625 1258.30859375 707.037109375 1259.46289062 707.037109375 c 0
 1304.29980469 707.037109375 1348.80273438 688.171875 1380 656 c 0
 1415.61328125 624.237304688 1431.25585938 581.768554688 1431.25585938 538.833007812 c 0
 1431.25585938 448.924804688 1362.66113281 356.966796875 1265.19726562 356.966796875 c 0
 1264.13476562 356.966796875 1263.06933594 356.978515625 1262 357 c 0
 1224 357 1186 357 1148 357 c 1
 1148 228 1147 129 1147 0 c 1
 1080 0 l 1
 1080 129 1081 228 1081 357 c 1
 896 357 l 1
 896 424 l 1
 1081 424 l 1xebff80
 1081 513 l 2
 1080.53613281 518.049804688 1080.30859375 523.10546875 1080.30859375 528.151367188 c 0
 1080.30859375 619.127929688 1154.23632812 707.116210938 1249.96777344 707.116210938 c 0
 1251.96875 707.116210938 1253.98046875 707.078125 1256 707 c 0
1255.859375 423.431640625 m 0
 1309.19824219 423.431640625 1364.43164062 467.6875 1364.43164062 533.336914062 c 0
 1364.43164062 588.622070312 1316.14453125 640.046875 1259.92382812 640.046875 c 0
 1258.95214844 640.046875 1257.9765625 640.03125 1257 640 c 0
 1256.22851562 640.017578125 1255.45703125 640.02734375 1254.68652344 640.02734375 c 0
 1196.59472656 640.02734375 1148.06152344 591.004882812 1148.06152344 533.819335938 c 0
 1148.06152344 475.501953125 1194.71582031 423.431640625 1255.859375 423.431640625 c 0
EndSplineSet
Validated: 1
Ligature2: "+VAhbVzB4MG5/bmPb in +MOkwxjDzZYdbVwAA lookup 0-1" r y u
EndChar

StartChar: r_y_o
Encoding: 407 -1 155
Width: 1491
VWidth: 0
HStem: -198 33<612.005 685.866> -61 33<492 583 612.125 685 716 806> 0 21G<186 253 614 681.016 1183.81 1250.81> 0 21G<186 253 614 681.016 1183.81 1250.81> 343 67<1011.72 1139.05 1250.81 1435.81> 375 67<123 186 253 319> 517 67<253 319> 619 20G<614 681.016> 626 67<1012.04 1140.58>
VStem: 56.4443 66.5557<442 587> 186 67<0 375 442 517 584 585> 319 67<442 517 584 585> 565 32<-149.688 -76.6098> 614 67.0156<0 639> 700 34<-150.557 -75.3722> 901 66.3799<454.049 581.796> 1183.81 67<0 343 454.91 580.495>
LayerCount: 2
Fore
SplineSet
186 0 m 1xe67f80
 186 375 l 1
 56 375 l 1
 56.3330078125 398.333007812 56.4443359375 421.77734375 56.4443359375 445.295898438 c 0
 56.4443359375 492.333007812 56 539.666992188 56 587 c 1
 123 587 l 1
 123 442 l 1
 144 442 165 442 186 442 c 1
 186 585 l 1
 208.333007812 585 230.666992188 585 253 585 c 1
 253 584 l 1
 275 584 297 584 319 584 c 1
 319 585 l 1
 386 585 l 1
 386 375 l 1
 341.666992188 375 297.333007812 375 253 375 c 1
 253 0 l 1
 186 0 l 1xe67f80
319 442 m 1
 319 467 319 492 319 517 c 1
 253 517 l 1
 253 442 l 1
 275 442 297 442 319 442 c 1
614 639 m 1xe37f80
 681.015625 639 l 1
 681.015625 0 l 1
 614 0 l 1
 614 639 l 1xe37f80
492 -28 m 5
 806 -28 l 5
 806 -61 l 5
 716 -61 l 5
 727 -75 734 -94 734 -113 c 4
 734 -160 696 -198 649 -198 c 4
 603 -198 565 -160 565 -113 c 4
 565 -94 572 -75 583 -61 c 5
 492 -61 l 5
 492 -28 l 5
649 -62 m 4
 620 -62 597 -85 597 -113 c 4
 597 -141 620 -165 649 -165 c 4
 677 -165 700 -141 700 -113 c 4
 700 -85 677 -62 649 -62 c 4
1075.8125 693 m 4xeaff80
 1077.83203125 693.078125 1079.84277344 693.116210938 1081.84472656 693.116210938 c 4
 1177.57617188 693.116210938 1251.50292969 605.127929688 1251.50292969 514.151367188 c 4
 1251.50292969 509.10546875 1251.27636719 504.049804688 1250.8125 499 c 6
 1250.8125 410 l 5
 1435.8125 410 l 5
 1435.8125 343 l 5
 1250.8125 343 l 5
 1250.8125 0 l 5
 1183.8125 0 l 5
 1183.8125 343 l 5
 1145.8125 343 1107.8125 343 1069.8125 343 c 4
 1068.74316406 342.978515625 1067.67773438 342.966796875 1066.61523438 342.966796875 c 4
 969.1484375 342.966796875 901 434.948242188 901 524.8671875 c 4
 901 567.791015625 916.529296875 610.245117188 951.8125 642 c 4
 983.008789062 674.171875 1027.51269531 693.037109375 1072.34960938 693.037109375 c 4
 1073.50390625 693.037109375 1074.65820312 693.025390625 1075.8125 693 c 4xeaff80
1183.75 519.819335938 m 4
 1183.75 577.001953125 1135.21875 626.02734375 1077.12597656 626.02734375 c 4
 1076.35546875 626.02734375 1075.58398438 626.017578125 1074.8125 626 c 4
 1073.83496094 626.03125 1072.86035156 626.046875 1071.88769531 626.046875 c 4
 1015.66796875 626.046875 967.379882812 574.622070312 967.379882812 519.336914062 c 4
 967.379882812 453.685546875 1022.61621094 409.431640625 1075.953125 409.431640625 c 4
 1137.09472656 409.431640625 1183.75 461.5 1183.75 519.819335938 c 4
EndSplineSet
Validated: 1
Ligature2: "+VAhbVzB4MG5/bmPb in +MOkwxjDzZYdbVwAA lookup 0-1" r y o
EndChar

StartChar: r_y_e
Encoding: 408 -1 156
Width: 1307
VWidth: 0
HStem: -198 33<612.005 685.866> -61 33<492 583 612.125 685 716 806> 0 21G<186 253 614 681.016 1043 1110> 0 21G<186 253 614 681.016 1043 1110> 302 69<1006.59 1043> 375 67<123 186 253 319> 517 67<253 319> 578 68<1006.59 1043> 619 20G<614 681.016 1043 1110>
VStem: 56.4443 66.5557<442 587> 186 67<0 375 442 517 584 585> 319 67<442 517 584 585> 565 32<-149.688 -76.6098> 614 67.0156<0 639> 700 34<-150.557 -75.3722> 900 67.9531<408.527 539.449> 1043 67<0 306.538 372 577 641.479 683> 1183.12 66.875<409.443 539.5>
LayerCount: 2
Fore
SplineSet
186 0 m 1xee7fc0
 186 375 l 1
 56 375 l 1
 56.3330078125 398.333007812 56.4443359375 421.77734375 56.4443359375 445.295898438 c 0
 56.4443359375 492.333007812 56 539.666992188 56 587 c 1
 123 587 l 1
 123 442 l 1
 144 442 165 442 186 442 c 1
 186 585 l 1
 208.333007812 585 230.666992188 585 253 585 c 1
 253 584 l 1
 275 584 297 584 319 584 c 1
 319 585 l 1
 386 585 l 1
 386 375 l 1
 341.666992188 375 297.333007812 375 253 375 c 1
 253 0 l 1
 186 0 l 1xee7fc0
319 442 m 1
 319 467 319 492 319 517 c 1
 253 517 l 1
 253 442 l 1
 275 442 297 442 319 442 c 1
614 639 m 1xecffc0
 681.015625 639 l 1
 681.015625 0 l 1
 614 0 l 1
 614 639 l 1xecffc0
492 -28 m 5
 806 -28 l 5
 806 -61 l 5
 716 -61 l 5
 727 -75 734 -94 734 -113 c 4
 734 -160 696 -198 649 -198 c 4
 603 -198 565 -160 565 -113 c 4
 565 -94 572 -75 583 -61 c 5
 492 -61 l 5
 492 -28 l 5
649 -62 m 4
 620 -62 597 -85 597 -113 c 4
 597 -141 620 -165 649 -165 c 4
 677 -165 700 -141 700 -113 c 4
 700 -85 677 -62 649 -62 c 4
1043 683 m 1
 1110 683 l 1
 1110 646 l 1
 1190 630 1250 559 1250 474 c 0
 1250 390 1190 319 1110 303 c 1
 1110 0 l 1
 1043 0 l 1
 1043 302 l 1
 962 317 900 389 900 474 c 0
 900 560 962 631 1043 646 c 1xed7fc0
 1043 683 l 1
1043 578 m 1
 994.314453125 563.137695312 967.953125 518.073242188 967.953125 473.08984375 c 0
 967.953125 430.295898438 991.809570312 387.576171875 1043 371 c 5
 1043 578 l 1
1110 577 m 1
 1110 372 l 1
 1158.87402344 388.458007812 1183.125 431.528320312 1183.125 474.54296875 c 0
 1183.125 517.779296875 1158.62402344 560.958984375 1110 577 c 1
EndSplineSet
Validated: 1
Ligature2: "+VAhbVzB4MG5/bmPb in +MOkwxjDzZYdbVwAA lookup 0-1" r y e
EndChar

StartChar: p_i
Encoding: 409 -1 157
Width: 996
VWidth: 0
HStem: 0 21G<164 231 860 927> 0 21G<164 231 860 927> 325 67<687.549 815.076> 608 67<143.424 255.802 445 614 688.004 815.02>
VStem: 51 66<471.227 581.348> 164 67<0 390.425> 282 63<471.227 581.348> 576 66.875<435.943 563.33> 860 67<0 363 437.016 563.236>
LayerCount: 2
Fore
SplineSet
164 0 m 1xbf80
 164 384 l 1
 99 399 51 457 51 527 c 0
 51 608 117 674 198 674 c 0
 279 674 345 608 345 527 c 0
 345 457 296 399 231 384 c 1
 231 0 l 1
 164 0 l 1xbf80
200 444 m 0
 245 444 282 481 282 526 c 0
 282 572 245 609 200 609 c 0
 154 609 117 572 117 526 c 0
 117 481 154 444 200 444 c 0
445 675 m 1
 756 675 l 1
 851 673 927 595 927 500 c 2
 927 0 l 1
 860 0 l 1
 860 363 l 1
 830 339 793 325 752 325 c 0
 655 325 576 403 576 500 c 0
 576 541 590 578 614 608 c 1
 445 608 l 1
 445 675 l 1
753 608 m 0
 689.315429688 608 642.875 556.84375 642.875 500.287109375 c 0
 642.875 482.24609375 647.600585938 463.655273438 658 446 c 0
 676 415 709 394 745 392 c 1
 752 392 l 2
 812.997070312 392 859.908203125 443.814453125 859.908203125 500.703125 c 0
 859.908203125 524.022460938 852.025390625 548.1953125 834 570 c 0
 827 579 799 608 753 608 c 0
EndSplineSet
Validated: 1
Ligature2: "+VAhbVzB4MG5/bmPb in +MOkwxjDzZYdbVwAA lookup 0-1" p i
EndChar

StartChar: p_a
Encoding: 410 -1 158
Width: 1003
VWidth: 0
HStem: 0 21G<164 231 468 536> 0 21G<164 231 468 536> 312 64<579.288 710.833> 583 65<581.457 710.793 784 954> 609 65<144.152 255.081>
VStem: 51 66<471.227 581.348> 164 67<0 390.425> 282 63<471.227 581.348> 468 68<0 348 418.657 540.488> 754.896 67.1045<420.914 539.966>
LayerCount: 2
Fore
SplineSet
164 0 m 1xafc0
 164 384 l 1
 99 399 51 457 51 527 c 0
 51 608 117 674 198 674 c 0
 279 674 345 608 345 527 c 0
 345 457 296 399 231 384 c 1
 231 0 l 1
 164 0 l 1xafc0
200 444 m 0
 245 444 282 481 282 526 c 0
 282 572 245 609 200 609 c 0
 154 609 117 572 117 526 c 0
 117 481 154 444 200 444 c 0
954 648 m 1xb7c0
 954 583 l 1
 784 583 l 1
 808 555 822 519 822 480 c 0
 822 387 743 312 645 312 c 0
 604 312 566 325 536 348 c 1
 536 0 l 1
 468 0 l 1
 468 478 l 1
 469 478 l 1
 469 480 l 2
 469 571 545 645 641 648 c 1
 954 648 l 1xb7c0
644 583 m 0
 590.370117188 583 535.884765625 541.10546875 535.884765625 480.243164062 c 0
 535.884765625 475.284179688 536.24609375 470.198242188 537 465 c 0
 546 407 599 376 645 376 c 4
 717.5703125 376 754.895507812 437.091796875 754.895507812 478.869140625 c 4
 754.895507812 484.297851562 754.264648438 489.400390625 753 494 c 1
 745 550 693 583 649 583 c 0
 647 583 646 583 644 583 c 0
EndSplineSet
Validated: 1
Ligature2: "+VAhbVzB4MG5/bmPb in +MOkwxjDzZYdbVwAA lookup 0-1" p a
EndChar

StartChar: p_u
Encoding: 411 -1 159
Width: 1041
VWidth: 0
HStem: 0 21G<164 231 632 699> 0 21G<164 231 632 699> 357 67<448 633 744.757 872.089> 609 65<144.152 255.081> 640 67<743.233 871.77>
VStem: 51 66<471.227 581.348> 164 67<0 390.425> 282 63<471.227 581.348> 633 67.0615<0 357 468.91 594.495> 916.432 66.8242<468.038 595.787>
LayerCount: 2
Fore
SplineSet
164 0 m 1xb7c0
 164 384 l 1
 99 399 51 457 51 527 c 0
 51 608 117 674 198 674 c 0
 279 674 345 608 345 527 c 0
 345 457 296 399 231 384 c 1
 231 0 l 1
 164 0 l 1xb7c0
200 444 m 0
 245 444 282 481 282 526 c 0
 282 572 245 609 200 609 c 0
 154 609 117 572 117 526 c 0
 117 481 154 444 200 444 c 0
808 707 m 0xafc0
 809.154296875 707.025390625 810.30859375 707.037109375 811.462890625 707.037109375 c 0
 856.299804688 707.037109375 900.802734375 688.171875 932 656 c 0
 967.61328125 624.237304688 983.255859375 581.768554688 983.255859375 538.833007812 c 0
 983.255859375 448.924804688 914.661132812 356.966796875 817.197265625 356.966796875 c 0
 816.134765625 356.966796875 815.069335938 356.978515625 814 357 c 0
 776 357 738 357 700 357 c 1
 700 228 699 129 699 0 c 1
 632 0 l 1
 632 129 633 228 633 357 c 1
 448 357 l 1
 448 424 l 1
 633 424 l 1
 633 513 l 2
 632.536132812 518.049804688 632.30859375 523.10546875 632.30859375 528.151367188 c 0
 632.30859375 619.127929688 706.236328125 707.116210938 801.967773438 707.116210938 c 0
 803.96875 707.116210938 805.98046875 707.078125 808 707 c 0xafc0
807.859375 423.431640625 m 0
 861.198242188 423.431640625 916.431640625 467.6875 916.431640625 533.336914062 c 0
 916.431640625 588.622070312 868.14453125 640.046875 811.923828125 640.046875 c 0
 810.952148438 640.046875 809.9765625 640.03125 809 640 c 0
 808.228515625 640.017578125 807.45703125 640.02734375 806.686523438 640.02734375 c 0
 748.594726562 640.02734375 700.061523438 591.004882812 700.061523438 533.819335938 c 0
 700.061523438 475.501953125 746.715820312 423.431640625 807.859375 423.431640625 c 0
EndSplineSet
Validated: 1
Ligature2: "+VAhbVzB4MG5/bmPb in +MOkwxjDzZYdbVwAA lookup 0-1" p u
EndChar

StartChar: p_o
Encoding: 412 -1 160
Width: 1043
VWidth: 0
HStem: 0 21G<164 231 735.812 802.812> 0 21G<164 231 735.812 802.812> 343 67<563.724 691.055 802.812 987.812> 609 65<144.152 255.081> 626 67<564.041 692.58>
VStem: 51 66<471.227 581.348> 164 67<0 390.425> 282 63<471.227 581.348> 453 66.3799<454.049 581.796> 735.812 67<0 343 454.91 580.495>
LayerCount: 2
Fore
SplineSet
164 0 m 1xb7c0
 164 384 l 1
 99 399 51 457 51 527 c 0
 51 608 117 674 198 674 c 0
 279 674 345 608 345 527 c 0
 345 457 296 399 231 384 c 1
 231 0 l 1
 164 0 l 1xb7c0
200 444 m 0
 245 444 282 481 282 526 c 0
 282 572 245 609 200 609 c 0
 154 609 117 572 117 526 c 0
 117 481 154 444 200 444 c 0
627.8125 693 m 4xafc0
 629.83203125 693.078125 631.842773438 693.116210938 633.844726562 693.116210938 c 4
 729.576171875 693.116210938 803.502929688 605.127929688 803.502929688 514.151367188 c 4
 803.502929688 509.10546875 803.276367188 504.049804688 802.8125 499 c 6
 802.8125 410 l 5
 987.8125 410 l 5
 987.8125 343 l 5
 802.8125 343 l 5
 802.8125 0 l 5
 735.8125 0 l 5
 735.8125 343 l 5
 697.8125 343 659.8125 343 621.8125 343 c 4
 620.743164062 342.978515625 619.677734375 342.966796875 618.615234375 342.966796875 c 4
 521.1484375 342.966796875 453 434.948242188 453 524.8671875 c 4
 453 567.791015625 468.529296875 610.245117188 503.8125 642 c 4
 535.008789062 674.171875 579.512695312 693.037109375 624.349609375 693.037109375 c 4
 625.50390625 693.037109375 626.658203125 693.025390625 627.8125 693 c 4xafc0
735.75 519.819335938 m 4
 735.75 577.001953125 687.21875 626.02734375 629.125976562 626.02734375 c 4
 628.35546875 626.02734375 627.583984375 626.017578125 626.8125 626 c 4
 625.834960938 626.03125 624.860351562 626.046875 623.887695312 626.046875 c 4
 567.66796875 626.046875 519.379882812 574.622070312 519.379882812 519.336914062 c 4
 519.379882812 453.685546875 574.616210938 409.431640625 627.953125 409.431640625 c 4
 689.094726562 409.431640625 735.75 461.5 735.75 519.819335938 c 4
EndSplineSet
Validated: 1
Ligature2: "+VAhbVzB4MG5/bmPb in +MOkwxjDzZYdbVwAA lookup 0-1" p o
EndChar

StartChar: p_e
Encoding: 413 -1 161
Width: 859
VWidth: 0
HStem: 0 21G<164 231 595 662> 0 21G<164 231 595 662> 302 69<558.587 595> 578 68<558.587 595> 609 65<144.152 255.081> 663 20G<595 662>
VStem: 51 66<471.227 581.348> 164 67<0 390.425> 282 63<471.227 581.348> 452 67.9531<408.527 539.449> 595 67<0 306.538 372 577 641.479 683> 735.125 66.875<409.443 539.5>
LayerCount: 2
Fore
SplineSet
164 0 m 1xabf0
 164 384 l 1
 99 399 51 457 51 527 c 0
 51 608 117 674 198 674 c 0
 279 674 345 608 345 527 c 0
 345 457 296 399 231 384 c 1
 231 0 l 1
 164 0 l 1xabf0
200 444 m 0
 245 444 282 481 282 526 c 0
 282 572 245 609 200 609 c 0
 154 609 117 572 117 526 c 0
 117 481 154 444 200 444 c 0
595 683 m 1xb7f0
 662 683 l 1
 662 646 l 1
 742 630 802 559 802 474 c 0
 802 390 742 319 662 303 c 1
 662 0 l 1
 595 0 l 1
 595 302 l 1
 514 317 452 389 452 474 c 0
 452 560 514 631 595 646 c 1
 595 683 l 1xb7f0
595 578 m 1
 546.314453125 563.137695312 519.953125 518.073242188 519.953125 473.08984375 c 0
 519.953125 430.295898438 543.809570312 387.576171875 595 371 c 5
 595 578 l 1
662 577 m 1
 662 372 l 1
 710.874023438 388.458007812 735.125 431.528320312 735.125 474.54296875 c 0
 735.125 517.779296875 710.624023438 560.958984375 662 577 c 1
EndSplineSet
Validated: 1
Ligature2: "+VAhbVzB4MG5/bmPb in +MOkwxjDzZYdbVwAA lookup 0-1" p e
EndChar

StartChar: p_w_i
Encoding: 414 -1 162
Width: 1253
VWidth: 0
HStem: -199 33<491.117 565.495> -63 33<491.189 565.931> 0 21G<164 231 495 562.016 1117 1184> 0 21G<164 231 495 562.016 1117 1184> 325 67<944.549 1072.08> 608 67<143.424 255.802 702 871 945.004 1072.02> 619 20G<495 562.016>
VStem: 51 66<471.227 581.348> 164 67<0 390.425> 282 63<471.227 581.348> 444 33<-150.623 -77.1431 -48 -29> 495 67.0156<0 639> 581 32<-149.005 -78.8774 -48 -28> 833 66.875<435.943 563.33> 1117 67<0 363 437.016 563.236>
LayerCount: 2
Fore
SplineSet
164 0 m 1xe9fe
 164 384 l 1
 99 399 51 457 51 527 c 0
 51 608 117 674 198 674 c 0
 279 674 345 608 345 527 c 0
 345 457 296 399 231 384 c 1
 231 0 l 1
 164 0 l 1xe9fe
200 444 m 0
 245 444 282 481 282 526 c 0
 282 572 245 609 200 609 c 0
 154 609 117 572 117 526 c 0
 117 481 154 444 200 444 c 0
495 639 m 1xebfe
 562.015625 639 l 1
 562.015625 0 l 1
 495 0 l 1
 495 639 l 1xebfe
581 -28 m 5
 613 -28 l 5
 613 -114 l 6
 613 -161 575 -199 529 -199 c 4
 483 -199 446 -162 444 -117 c 5
 444 -29 l 5
 477 -29 l 5
 477 -48 l 5
 491 -36 509 -30 529 -30 c 4
 548 -30 566 -36 581 -48 c 5
 581 -28 l 5
528 -63 m 4
 500 -63 477 -86 477 -114 c 4
 477 -142 500 -166 528 -166 c 4
 557 -166 580 -142 580 -114 c 4
 580 -86 557 -63 528 -63 c 4
702 675 m 1xedfe
 1013 675 l 1
 1108 673 1184 595 1184 500 c 2
 1184 0 l 1
 1117 0 l 1
 1117 363 l 1
 1087 339 1050 325 1009 325 c 0
 912 325 833 403 833 500 c 0
 833 541 847 578 871 608 c 1
 702 608 l 1
 702 675 l 1xedfe
1010 608 m 0
 946.315429688 608 899.875 556.84375 899.875 500.287109375 c 0
 899.875 482.24609375 904.600585938 463.655273438 915 446 c 0
 933 415 966 394 1002 392 c 1
 1009 392 l 2
 1069.99707031 392 1116.90820312 443.814453125 1116.90820312 500.703125 c 0
 1116.90820312 524.022460938 1109.02539062 548.1953125 1091 570 c 0
 1084 579 1056 608 1010 608 c 0
EndSplineSet
Validated: 1
Ligature2: "+VAhbVzB4MG5/bmPb in +MOkwxjDzZYdbVwAA lookup 0-1" p w i
EndChar

StartChar: p_w_a
Encoding: 415 -1 163
Width: 1260
VWidth: 0
HStem: -199 33<491.117 565.495> -63 33<491.189 565.931> 0 21G<164 231 495 562.016 725 793> 0 21G<164 231 495 562.016 725 793> 312 64<836.288 967.833> 583 65<838.457 967.793 1041 1211> 609 65<144.152 255.081> 619 20G<495 562.016>
VStem: 51 66<471.227 581.348> 164 67<0 390.425> 282 63<471.227 581.348> 444 33<-150.623 -77.1431 -48 -29> 495 67.0156<0 639> 581 32<-149.005 -78.8774 -48 -28> 725 68<0 348 418.657 540.488> 1011.9 67.1045<420.914 539.966>
LayerCount: 2
Fore
SplineSet
164 0 m 1xeaff
 164 384 l 1
 99 399 51 457 51 527 c 0
 51 608 117 674 198 674 c 0
 279 674 345 608 345 527 c 0
 345 457 296 399 231 384 c 1
 231 0 l 1
 164 0 l 1xeaff
200 444 m 0
 245 444 282 481 282 526 c 0
 282 572 245 609 200 609 c 0
 154 609 117 572 117 526 c 0
 117 481 154 444 200 444 c 0
495 639 m 1xe9ff
 562.015625 639 l 1
 562.015625 0 l 1
 495 0 l 1
 495 639 l 1xe9ff
581 -28 m 5
 613 -28 l 5
 613 -114 l 6
 613 -161 575 -199 529 -199 c 4
 483 -199 446 -162 444 -117 c 5
 444 -29 l 5
 477 -29 l 5
 477 -48 l 5
 491 -36 509 -30 529 -30 c 4
 548 -30 566 -36 581 -48 c 5
 581 -28 l 5
528 -63 m 4
 500 -63 477 -86 477 -114 c 4
 477 -142 500 -166 528 -166 c 4
 557 -166 580 -142 580 -114 c 4
 580 -86 557 -63 528 -63 c 4
1211 648 m 1xecff
 1211 583 l 1
 1041 583 l 1
 1065 555 1079 519 1079 480 c 0
 1079 387 1000 312 902 312 c 0
 861 312 823 325 793 348 c 1
 793 0 l 1
 725 0 l 1
 725 478 l 1
 726 478 l 1
 726 480 l 2
 726 571 802 645 898 648 c 1
 1211 648 l 1xecff
901 583 m 0
 847.370117188 583 792.884765625 541.10546875 792.884765625 480.243164062 c 0
 792.884765625 475.284179688 793.24609375 470.198242188 794 465 c 0
 803 407 856 376 902 376 c 4
 974.5703125 376 1011.89550781 437.091796875 1011.89550781 478.869140625 c 4
 1011.89550781 484.297851562 1011.26464844 489.400390625 1010 494 c 1
 1002 550 950 583 906 583 c 0
 904 583 903 583 901 583 c 0
EndSplineSet
Validated: 1
Ligature2: "+VAhbVzB4MG5/bmPb in +MOkwxjDzZYdbVwAA lookup 0-1" p w a
EndChar

StartChar: p_w_u
Encoding: 416 -1 164
Width: 1298
VWidth: 0
HStem: -199 33<491.117 565.495> -63 33<491.189 565.931> 0 21G<164 231 495 562.016 889 956> 0 21G<164 231 495 562.016 889 956> 357 67<705 890 1001.76 1129.09> 609 65<144.152 255.081> 619 20G<495 562.016> 640 67<1000.23 1128.77>
VStem: 51 66<471.227 581.348> 164 67<0 390.425> 282 63<471.227 581.348> 444 33<-150.623 -77.1431 -48 -29> 495 67.0156<0 639> 581 32<-149.005 -78.8774 -48 -28> 890 67.0615<0 357 468.91 594.495> 1173.43 66.8242<468.038 595.787>
LayerCount: 2
Fore
SplineSet
164 0 m 1xecff
 164 384 l 1
 99 399 51 457 51 527 c 0
 51 608 117 674 198 674 c 0
 279 674 345 608 345 527 c 0
 345 457 296 399 231 384 c 1
 231 0 l 1
 164 0 l 1xecff
200 444 m 0
 245 444 282 481 282 526 c 0
 282 572 245 609 200 609 c 0
 154 609 117 572 117 526 c 0
 117 481 154 444 200 444 c 0
495 639 m 1xeaff
 562.015625 639 l 1
 562.015625 0 l 1
 495 0 l 1
 495 639 l 1xeaff
581 -28 m 5
 613 -28 l 5
 613 -114 l 6
 613 -161 575 -199 529 -199 c 4
 483 -199 446 -162 444 -117 c 5
 444 -29 l 5
 477 -29 l 5
 477 -48 l 5
 491 -36 509 -30 529 -30 c 4
 548 -30 566 -36 581 -48 c 5
 581 -28 l 5
528 -63 m 4
 500 -63 477 -86 477 -114 c 4
 477 -142 500 -166 528 -166 c 4
 557 -166 580 -142 580 -114 c 4
 580 -86 557 -63 528 -63 c 4
1065 707 m 0xe9ff
 1066.15429688 707.025390625 1067.30859375 707.037109375 1068.46289062 707.037109375 c 0
 1113.29980469 707.037109375 1157.80273438 688.171875 1189 656 c 0
 1224.61328125 624.237304688 1240.25585938 581.768554688 1240.25585938 538.833007812 c 0
 1240.25585938 448.924804688 1171.66113281 356.966796875 1074.19726562 356.966796875 c 0
 1073.13476562 356.966796875 1072.06933594 356.978515625 1071 357 c 0
 1033 357 995 357 957 357 c 1
 957 228 956 129 956 0 c 1
 889 0 l 1
 889 129 890 228 890 357 c 1
 705 357 l 1
 705 424 l 1
 890 424 l 1
 890 513 l 2
 889.536132812 518.049804688 889.30859375 523.10546875 889.30859375 528.151367188 c 0
 889.30859375 619.127929688 963.236328125 707.116210938 1058.96777344 707.116210938 c 0
 1060.96875 707.116210938 1062.98046875 707.078125 1065 707 c 0xe9ff
1064.859375 423.431640625 m 0
 1118.19824219 423.431640625 1173.43164062 467.6875 1173.43164062 533.336914062 c 0
 1173.43164062 588.622070312 1125.14453125 640.046875 1068.92382812 640.046875 c 0
 1067.95214844 640.046875 1066.9765625 640.03125 1066 640 c 0
 1065.22851562 640.017578125 1064.45703125 640.02734375 1063.68652344 640.02734375 c 0
 1005.59472656 640.02734375 957.061523438 591.004882812 957.061523438 533.819335938 c 0
 957.061523438 475.501953125 1003.71582031 423.431640625 1064.859375 423.431640625 c 0
EndSplineSet
Validated: 1
Ligature2: "+VAhbVzB4MG5/bmPb in +MOkwxjDzZYdbVwAA lookup 0-1" p w u
EndChar

StartChar: p_w_o
Encoding: 417 -1 165
Width: 1300
VWidth: 0
HStem: -199 33<491.117 565.495> -63 33<491.189 565.931> 0 21G<164 231 495 562.016 992.812 1059.81> 0 21G<164 231 495 562.016 992.812 1059.81> 343 67<820.724 948.055 1059.81 1244.81> 609 65<144.152 255.081> 619 20G<495 562.016> 626 67<821.041 949.58>
VStem: 51 66<471.227 581.348> 164 67<0 390.425> 282 63<471.227 581.348> 444 33<-150.623 -77.1431 -48 -29> 495 67.0156<0 639> 581 32<-149.005 -78.8774 -48 -28> 710 66.3799<454.049 581.796> 992.812 67<0 343 454.91 580.495>
LayerCount: 2
Fore
SplineSet
164 0 m 1xecff
 164 384 l 1
 99 399 51 457 51 527 c 0
 51 608 117 674 198 674 c 0
 279 674 345 608 345 527 c 0
 345 457 296 399 231 384 c 1
 231 0 l 1
 164 0 l 1xecff
200 444 m 0
 245 444 282 481 282 526 c 0
 282 572 245 609 200 609 c 0
 154 609 117 572 117 526 c 0
 117 481 154 444 200 444 c 0
495 639 m 1xeaff
 562.015625 639 l 1
 562.015625 0 l 1
 495 0 l 1
 495 639 l 1xeaff
581 -28 m 5
 613 -28 l 5
 613 -114 l 6
 613 -161 575 -199 529 -199 c 4
 483 -199 446 -162 444 -117 c 5
 444 -29 l 5
 477 -29 l 5
 477 -48 l 5
 491 -36 509 -30 529 -30 c 4
 548 -30 566 -36 581 -48 c 5
 581 -28 l 5
528 -63 m 4
 500 -63 477 -86 477 -114 c 4
 477 -142 500 -166 528 -166 c 4
 557 -166 580 -142 580 -114 c 4
 580 -86 557 -63 528 -63 c 4
884.8125 693 m 4xe9ff
 886.83203125 693.078125 888.842773438 693.116210938 890.844726562 693.116210938 c 4
 986.576171875 693.116210938 1060.50292969 605.127929688 1060.50292969 514.151367188 c 4
 1060.50292969 509.10546875 1060.27636719 504.049804688 1059.8125 499 c 6
 1059.8125 410 l 5
 1244.8125 410 l 5
 1244.8125 343 l 5
 1059.8125 343 l 5
 1059.8125 0 l 5
 992.8125 0 l 5
 992.8125 343 l 5
 954.8125 343 916.8125 343 878.8125 343 c 4
 877.743164062 342.978515625 876.677734375 342.966796875 875.615234375 342.966796875 c 4
 778.1484375 342.966796875 710 434.948242188 710 524.8671875 c 4
 710 567.791015625 725.529296875 610.245117188 760.8125 642 c 4
 792.008789062 674.171875 836.512695312 693.037109375 881.349609375 693.037109375 c 4
 882.50390625 693.037109375 883.658203125 693.025390625 884.8125 693 c 4xe9ff
992.75 519.819335938 m 4
 992.75 577.001953125 944.21875 626.02734375 886.125976562 626.02734375 c 4
 885.35546875 626.02734375 884.583984375 626.017578125 883.8125 626 c 4
 882.834960938 626.03125 881.860351562 626.046875 880.887695312 626.046875 c 4
 824.66796875 626.046875 776.379882812 574.622070312 776.379882812 519.336914062 c 4
 776.379882812 453.685546875 831.616210938 409.431640625 884.953125 409.431640625 c 4
 946.094726562 409.431640625 992.75 461.5 992.75 519.819335938 c 4
EndSplineSet
Validated: 1
Ligature2: "+VAhbVzB4MG5/bmPb in +MOkwxjDzZYdbVwAA lookup 0-1" p w o
EndChar

StartChar: p_w_e
Encoding: 418 -1 166
Width: 1116
VWidth: 0
HStem: -199 33<491.117 565.495> -63 33<491.189 565.931> 0 21G<164 231 495 562.016 852 919> 0 21G<164 231 495 562.016 852 919> 302 69<815.587 852> 578 68<815.587 852> 609 65<144.152 255.081> 619 20G<495 562.016 852 919>
VStem: 51 66<471.227 581.348> 164 67<0 390.425> 282 63<471.227 581.348> 444 33<-150.623 -77.1431 -48 -29> 495 67.0156<0 639> 581 32<-149.005 -78.8774 -48 -28> 709 67.9531<408.527 539.449> 852 67<0 306.538 372 577 641.479 683> 992.125 66.875<409.443 539.5>
LayerCount: 2
Fore
SplineSet
164 0 m 1xeaff80
 164 384 l 1
 99 399 51 457 51 527 c 0
 51 608 117 674 198 674 c 0
 279 674 345 608 345 527 c 0
 345 457 296 399 231 384 c 1
 231 0 l 1
 164 0 l 1xeaff80
200 444 m 0
 245 444 282 481 282 526 c 0
 282 572 245 609 200 609 c 0
 154 609 117 572 117 526 c 0
 117 481 154 444 200 444 c 0
495 639 m 1xe9ff80
 562.015625 639 l 1
 562.015625 0 l 1
 495 0 l 1
 495 639 l 1xe9ff80
581 -28 m 5
 613 -28 l 5
 613 -114 l 6
 613 -161 575 -199 529 -199 c 4
 483 -199 446 -162 444 -117 c 5
 444 -29 l 5
 477 -29 l 5
 477 -48 l 5
 491 -36 509 -30 529 -30 c 4
 548 -30 566 -36 581 -48 c 5
 581 -28 l 5
528 -63 m 4
 500 -63 477 -86 477 -114 c 4
 477 -142 500 -166 528 -166 c 4
 557 -166 580 -142 580 -114 c 4
 580 -86 557 -63 528 -63 c 4
852 683 m 1
 919 683 l 1
 919 646 l 1
 999 630 1059 559 1059 474 c 0
 1059 390 999 319 919 303 c 1
 919 0 l 1
 852 0 l 1
 852 302 l 1
 771 317 709 389 709 474 c 0
 709 560 771 631 852 646 c 1xecff80
 852 683 l 1
852 578 m 1
 803.314453125 563.137695312 776.953125 518.073242188 776.953125 473.08984375 c 0
 776.953125 430.295898438 800.809570312 387.576171875 852 371 c 5
 852 578 l 1
919 577 m 1
 919 372 l 1
 967.874023438 388.458007812 992.125 431.528320312 992.125 474.54296875 c 0
 992.125 517.779296875 967.624023438 560.958984375 919 577 c 1
EndSplineSet
Validated: 1
Ligature2: "+VAhbVzB4MG5/bmPb in +MOkwxjDzZYdbVwAA lookup 0-1" p w e
EndChar

StartChar: p_y_i
Encoding: 419 -1 167
Width: 1396
VWidth: 0
HStem: -198 33<564.005 637.866> -61 33<444 535 564.125 637 668 758> 0 21G<164 231 566 633.016 1260 1327> 0 21G<164 231 566 633.016 1260 1327> 325 67<1087.55 1215.08> 608 67<143.424 255.802 845 1014 1088 1215.02> 619 20G<566 633.016>
VStem: 51 66<471.227 581.348> 164 67<0 390.425> 282 63<471.227 581.348> 517 32<-149.688 -76.6098> 566 67.0156<0 639> 652 34<-150.557 -75.3722> 976 66.875<435.943 563.33> 1260 67<0 363 437.016 563.236>
LayerCount: 2
Fore
SplineSet
164 0 m 1xe9fe
 164 384 l 1
 99 399 51 457 51 527 c 0
 51 608 117 674 198 674 c 0
 279 674 345 608 345 527 c 0
 345 457 296 399 231 384 c 1
 231 0 l 1
 164 0 l 1xe9fe
200 444 m 0
 245 444 282 481 282 526 c 0
 282 572 245 609 200 609 c 0
 154 609 117 572 117 526 c 0
 117 481 154 444 200 444 c 0
566 639 m 1xebfe
 633.015625 639 l 1
 633.015625 0 l 1
 566 0 l 1
 566 639 l 1xebfe
444 -28 m 5
 758 -28 l 5
 758 -61 l 5
 668 -61 l 5
 679 -75 686 -94 686 -113 c 4
 686 -160 648 -198 601 -198 c 4
 555 -198 517 -160 517 -113 c 4
 517 -94 524 -75 535 -61 c 5
 444 -61 l 5
 444 -28 l 5
601 -62 m 4
 572 -62 549 -85 549 -113 c 4
 549 -141 572 -165 601 -165 c 4
 629 -165 652 -141 652 -113 c 4
 652 -85 629 -62 601 -62 c 4
845 675 m 1xedfe
 1156 675 l 1
 1251 673 1327 595 1327 500 c 2
 1327 0 l 1
 1260 0 l 1
 1260 363 l 1
 1230 339 1193 325 1152 325 c 0
 1055 325 976 403 976 500 c 0
 976 541 990 578 1014 608 c 1
 845 608 l 1
 845 675 l 1xedfe
1153 608 m 0
 1089.31542969 608 1042.875 556.84375 1042.875 500.287109375 c 0
 1042.875 482.24609375 1047.60058594 463.655273438 1058 446 c 0
 1076 415 1109 394 1145 392 c 1
 1152 392 l 2
 1212.99707031 392 1259.90820312 443.814453125 1259.90820312 500.703125 c 0
 1259.90820312 524.022460938 1252.02539062 548.1953125 1234 570 c 0
 1227 579 1199 608 1153 608 c 0
EndSplineSet
Validated: 1
Ligature2: "+VAhbVzB4MG5/bmPb in +MOkwxjDzZYdbVwAA lookup 0-1" p y i
EndChar

StartChar: p_y_a
Encoding: 420 -1 168
Width: 1403
VWidth: 0
HStem: -198 33<564.005 637.866> -61 33<444 535 564.125 637 668 758> 0 21G<164 231 566 633.016 868 936> 0 21G<164 231 566 633.016 868 936> 312 64<979.288 1110.83> 583 65<981.457 1110.79 1184 1354> 609 65<144.152 255.081> 619 20G<566 633.016>
VStem: 51 66<471.227 581.348> 164 67<0 390.425> 282 63<471.227 581.348> 517 32<-149.688 -76.6098> 566 67.0156<0 639> 652 34<-150.557 -75.3722> 868 68<0 348 418.657 540.488> 1154.9 67.1045<420.914 539.966>
LayerCount: 2
Fore
SplineSet
164 0 m 1xeaff
 164 384 l 1
 99 399 51 457 51 527 c 0
 51 608 117 674 198 674 c 0
 279 674 345 608 345 527 c 0
 345 457 296 399 231 384 c 1
 231 0 l 1
 164 0 l 1xeaff
200 444 m 0
 245 444 282 481 282 526 c 0
 282 572 245 609 200 609 c 0
 154 609 117 572 117 526 c 0
 117 481 154 444 200 444 c 0
566 639 m 1xe9ff
 633.015625 639 l 1
 633.015625 0 l 1
 566 0 l 1
 566 639 l 1xe9ff
444 -28 m 5
 758 -28 l 5
 758 -61 l 5
 668 -61 l 5
 679 -75 686 -94 686 -113 c 4
 686 -160 648 -198 601 -198 c 4
 555 -198 517 -160 517 -113 c 4
 517 -94 524 -75 535 -61 c 5
 444 -61 l 5
 444 -28 l 5
601 -62 m 4
 572 -62 549 -85 549 -113 c 4
 549 -141 572 -165 601 -165 c 4
 629 -165 652 -141 652 -113 c 4
 652 -85 629 -62 601 -62 c 4
1354 648 m 1xecff
 1354 583 l 1
 1184 583 l 1
 1208 555 1222 519 1222 480 c 0
 1222 387 1143 312 1045 312 c 0
 1004 312 966 325 936 348 c 1
 936 0 l 1
 868 0 l 1
 868 478 l 1
 869 478 l 1
 869 480 l 2
 869 571 945 645 1041 648 c 1
 1354 648 l 1xecff
1044 583 m 0
 990.370117188 583 935.884765625 541.10546875 935.884765625 480.243164062 c 0
 935.884765625 475.284179688 936.24609375 470.198242188 937 465 c 0
 946 407 999 376 1045 376 c 4
 1117.5703125 376 1154.89550781 437.091796875 1154.89550781 478.869140625 c 4
 1154.89550781 484.297851562 1154.26464844 489.400390625 1153 494 c 1
 1145 550 1093 583 1049 583 c 0
 1047 583 1046 583 1044 583 c 0
EndSplineSet
Validated: 1
Ligature2: "+VAhbVzB4MG5/bmPb in +MOkwxjDzZYdbVwAA lookup 0-1" p y a
EndChar

StartChar: p_y_u
Encoding: 421 -1 169
Width: 1441
VWidth: 0
HStem: -198 33<564.005 637.866> -61 33<444 535 564.125 637 668 758> 0 21G<164 231 566 633.016 1032 1099> 0 21G<164 231 566 633.016 1032 1099> 357 67<848 1033 1144.76 1272.09> 609 65<144.152 255.081> 619 20G<566 633.016> 640 67<1143.23 1271.77>
VStem: 51 66<471.227 581.348> 164 67<0 390.425> 282 63<471.227 581.348> 517 32<-149.688 -76.6098> 566 67.0156<0 639> 652 34<-150.557 -75.3722> 1033 67.0615<0 357 468.91 594.495> 1316.43 66.8242<468.038 595.787>
LayerCount: 2
Fore
SplineSet
164 0 m 1xecff
 164 384 l 1
 99 399 51 457 51 527 c 0
 51 608 117 674 198 674 c 0
 279 674 345 608 345 527 c 0
 345 457 296 399 231 384 c 1
 231 0 l 1
 164 0 l 1xecff
200 444 m 0
 245 444 282 481 282 526 c 0
 282 572 245 609 200 609 c 0
 154 609 117 572 117 526 c 0
 117 481 154 444 200 444 c 0
566 639 m 1xeaff
 633.015625 639 l 1
 633.015625 0 l 1
 566 0 l 1
 566 639 l 1xeaff
444 -28 m 5
 758 -28 l 5
 758 -61 l 5
 668 -61 l 5
 679 -75 686 -94 686 -113 c 4
 686 -160 648 -198 601 -198 c 4
 555 -198 517 -160 517 -113 c 4
 517 -94 524 -75 535 -61 c 5
 444 -61 l 5
 444 -28 l 5
601 -62 m 4
 572 -62 549 -85 549 -113 c 4
 549 -141 572 -165 601 -165 c 4
 629 -165 652 -141 652 -113 c 4
 652 -85 629 -62 601 -62 c 4
1208 707 m 0xe9ff
 1209.15429688 707.025390625 1210.30859375 707.037109375 1211.46289062 707.037109375 c 0
 1256.29980469 707.037109375 1300.80273438 688.171875 1332 656 c 0
 1367.61328125 624.237304688 1383.25585938 581.768554688 1383.25585938 538.833007812 c 0
 1383.25585938 448.924804688 1314.66113281 356.966796875 1217.19726562 356.966796875 c 0
 1216.13476562 356.966796875 1215.06933594 356.978515625 1214 357 c 0
 1176 357 1138 357 1100 357 c 1
 1100 228 1099 129 1099 0 c 1
 1032 0 l 1
 1032 129 1033 228 1033 357 c 1
 848 357 l 1
 848 424 l 1
 1033 424 l 1
 1033 513 l 2
 1032.53613281 518.049804688 1032.30859375 523.10546875 1032.30859375 528.151367188 c 0
 1032.30859375 619.127929688 1106.23632812 707.116210938 1201.96777344 707.116210938 c 0
 1203.96875 707.116210938 1205.98046875 707.078125 1208 707 c 0xe9ff
1207.859375 423.431640625 m 0
 1261.19824219 423.431640625 1316.43164062 467.6875 1316.43164062 533.336914062 c 0
 1316.43164062 588.622070312 1268.14453125 640.046875 1211.92382812 640.046875 c 0
 1210.95214844 640.046875 1209.9765625 640.03125 1209 640 c 0
 1208.22851562 640.017578125 1207.45703125 640.02734375 1206.68652344 640.02734375 c 0
 1148.59472656 640.02734375 1100.06152344 591.004882812 1100.06152344 533.819335938 c 0
 1100.06152344 475.501953125 1146.71582031 423.431640625 1207.859375 423.431640625 c 0
EndSplineSet
Validated: 1
Ligature2: "+VAhbVzB4MG5/bmPb in +MOkwxjDzZYdbVwAA lookup 0-1" p y u
EndChar

StartChar: p_y_o
Encoding: 422 -1 170
Width: 1443
VWidth: 0
HStem: -198 33<564.005 637.866> -61 33<444 535 564.125 637 668 758> 0 21G<164 231 566 633.016 1135.81 1202.81> 0 21G<164 231 566 633.016 1135.81 1202.81> 343 67<963.724 1091.05 1202.81 1387.81> 609 65<144.152 255.081> 619 20G<566 633.016> 626 67<964.041 1092.58>
VStem: 51 66<471.227 581.348> 164 67<0 390.425> 282 63<471.227 581.348> 517 32<-149.688 -76.6098> 566 67.0156<0 639> 652 34<-150.557 -75.3722> 853 66.3799<454.049 581.796> 1135.81 67<0 343 454.91 580.495>
LayerCount: 2
Fore
SplineSet
164 0 m 1xecff
 164 384 l 1
 99 399 51 457 51 527 c 0
 51 608 117 674 198 674 c 0
 279 674 345 608 345 527 c 0
 345 457 296 399 231 384 c 1
 231 0 l 1
 164 0 l 1xecff
200 444 m 0
 245 444 282 481 282 526 c 0
 282 572 245 609 200 609 c 0
 154 609 117 572 117 526 c 0
 117 481 154 444 200 444 c 0
566 639 m 1xeaff
 633.015625 639 l 1
 633.015625 0 l 1
 566 0 l 1
 566 639 l 1xeaff
444 -28 m 5
 758 -28 l 5
 758 -61 l 5
 668 -61 l 5
 679 -75 686 -94 686 -113 c 4
 686 -160 648 -198 601 -198 c 4
 555 -198 517 -160 517 -113 c 4
 517 -94 524 -75 535 -61 c 5
 444 -61 l 5
 444 -28 l 5
601 -62 m 4
 572 -62 549 -85 549 -113 c 4
 549 -141 572 -165 601 -165 c 4
 629 -165 652 -141 652 -113 c 4
 652 -85 629 -62 601 -62 c 4
1027.8125 693 m 4xe9ff
 1029.83203125 693.078125 1031.84277344 693.116210938 1033.84472656 693.116210938 c 4
 1129.57617188 693.116210938 1203.50292969 605.127929688 1203.50292969 514.151367188 c 4
 1203.50292969 509.10546875 1203.27636719 504.049804688 1202.8125 499 c 6
 1202.8125 410 l 5
 1387.8125 410 l 5
 1387.8125 343 l 5
 1202.8125 343 l 5
 1202.8125 0 l 5
 1135.8125 0 l 5
 1135.8125 343 l 5
 1097.8125 343 1059.8125 343 1021.8125 343 c 4
 1020.74316406 342.978515625 1019.67773438 342.966796875 1018.61523438 342.966796875 c 4
 921.1484375 342.966796875 853 434.948242188 853 524.8671875 c 4
 853 567.791015625 868.529296875 610.245117188 903.8125 642 c 4
 935.008789062 674.171875 979.512695312 693.037109375 1024.34960938 693.037109375 c 4
 1025.50390625 693.037109375 1026.65820312 693.025390625 1027.8125 693 c 4xe9ff
1135.75 519.819335938 m 4
 1135.75 577.001953125 1087.21875 626.02734375 1029.12597656 626.02734375 c 4
 1028.35546875 626.02734375 1027.58398438 626.017578125 1026.8125 626 c 4
 1025.83496094 626.03125 1024.86035156 626.046875 1023.88769531 626.046875 c 4
 967.66796875 626.046875 919.379882812 574.622070312 919.379882812 519.336914062 c 4
 919.379882812 453.685546875 974.616210938 409.431640625 1027.953125 409.431640625 c 4
 1089.09472656 409.431640625 1135.75 461.5 1135.75 519.819335938 c 4
EndSplineSet
Validated: 1
Ligature2: "+VAhbVzB4MG5/bmPb in +MOkwxjDzZYdbVwAA lookup 0-1" p y o
EndChar

StartChar: p_y_e
Encoding: 423 -1 171
Width: 1259
VWidth: 0
HStem: -198 33<564.005 637.866> -61 33<444 535 564.125 637 668 758> 0 21G<164 231 566 633.016 995 1062> 0 21G<164 231 566 633.016 995 1062> 302 69<958.587 995> 578 68<958.587 995> 609 65<144.152 255.081> 619 20G<566 633.016 995 1062>
VStem: 51 66<471.227 581.348> 164 67<0 390.425> 282 63<471.227 581.348> 517 32<-149.688 -76.6098> 566 67.0156<0 639> 652 34<-150.557 -75.3722> 852 67.9531<408.527 539.449> 995 67<0 306.538 372 577 641.479 683> 1135.12 66.875<409.443 539.5>
LayerCount: 2
Fore
SplineSet
164 0 m 1xeaff80
 164 384 l 1
 99 399 51 457 51 527 c 0
 51 608 117 674 198 674 c 0
 279 674 345 608 345 527 c 0
 345 457 296 399 231 384 c 1
 231 0 l 1
 164 0 l 1xeaff80
200 444 m 0
 245 444 282 481 282 526 c 0
 282 572 245 609 200 609 c 0
 154 609 117 572 117 526 c 0
 117 481 154 444 200 444 c 0
566 639 m 1xe9ff80
 633.015625 639 l 1
 633.015625 0 l 1
 566 0 l 1
 566 639 l 1xe9ff80
444 -28 m 5
 758 -28 l 5
 758 -61 l 5
 668 -61 l 5
 679 -75 686 -94 686 -113 c 4
 686 -160 648 -198 601 -198 c 4
 555 -198 517 -160 517 -113 c 4
 517 -94 524 -75 535 -61 c 5
 444 -61 l 5
 444 -28 l 5
601 -62 m 4
 572 -62 549 -85 549 -113 c 4
 549 -141 572 -165 601 -165 c 4
 629 -165 652 -141 652 -113 c 4
 652 -85 629 -62 601 -62 c 4
995 683 m 1
 1062 683 l 1
 1062 646 l 1
 1142 630 1202 559 1202 474 c 0
 1202 390 1142 319 1062 303 c 1
 1062 0 l 1
 995 0 l 1
 995 302 l 1
 914 317 852 389 852 474 c 0
 852 560 914 631 995 646 c 1xecff80
 995 683 l 1
995 578 m 1
 946.314453125 563.137695312 919.953125 518.073242188 919.953125 473.08984375 c 0
 919.953125 430.295898438 943.809570312 387.576171875 995 371 c 5
 995 578 l 1
1062 577 m 1
 1062 372 l 1
 1110.87402344 388.458007812 1135.125 431.528320312 1135.125 474.54296875 c 0
 1135.125 517.779296875 1110.62402344 560.958984375 1062 577 c 1
EndSplineSet
Validated: 1
Ligature2: "+VAhbVzB4MG5/bmPb in +MOkwxjDzZYdbVwAA lookup 0-1" p y e
EndChar

StartChar: b_i
Encoding: 424 -1 172
Width: 1055
VWidth: 0
HStem: 0 21G<195.147 262.147 919 986> 0 21G<195.147 262.147 919 986> 325 67<746.549 874.076> 608 67<174.572 286.95 504 673 747.004 874.02>
VStem: 82.1475 66<471.227 581.348> 195.147 67<0 390.425> 313.147 63<471.227 581.348> 635 66.875<435.943 563.33> 919 67<0 363 437.016 563.236>
LayerCount: 2
Fore
SplineSet
230.174804688 826.041992188 m 1x3f80
 293.625 762.3125 357.435546875 698.59375 421.15625 634.8671875 c 1
 355.763671875 634.8671875 l 1
 313.869140625 676.76171875 271.973632812 718.65625 230.079101562 760.55078125 c 1
 188.184570312 718.65625 146.291015625 676.76171875 104.397460938 634.8671875 c 1
 39 634.8671875 l 1
 102.724609375 698.591796875 166.450195312 762.317382812 230.174804688 826.041992188 c 1x3f80
195.147460938 0 m 1xbf80
 195.147460938 384 l 1
 130.147460938 399 82.1474609375 457 82.1474609375 527 c 0
 82.1474609375 608 148.147460938 674 229.147460938 674 c 0
 310.147460938 674 376.147460938 608 376.147460938 527 c 0
 376.147460938 457 327.147460938 399 262.147460938 384 c 1
 262.147460938 0 l 1
 195.147460938 0 l 1xbf80
231.147460938 444 m 0
 276.147460938 444 313.147460938 481 313.147460938 526 c 0
 313.147460938 572 276.147460938 609 231.147460938 609 c 0
 185.147460938 609 148.147460938 572 148.147460938 526 c 0
 148.147460938 481 185.147460938 444 231.147460938 444 c 0
504 675 m 1
 815 675 l 1
 910 673 986 595 986 500 c 2
 986 0 l 1
 919 0 l 1
 919 363 l 1
 889 339 852 325 811 325 c 0
 714 325 635 403 635 500 c 0
 635 541 649 578 673 608 c 1
 504 608 l 1
 504 675 l 1
812 608 m 0
 748.315429688 608 701.875 556.84375 701.875 500.287109375 c 0
 701.875 482.24609375 706.600585938 463.655273438 717 446 c 0
 735 415 768 394 804 392 c 1
 811 392 l 2
 871.997070312 392 918.908203125 443.814453125 918.908203125 500.703125 c 0
 918.908203125 524.022460938 911.025390625 548.1953125 893 570 c 0
 886 579 858 608 812 608 c 0
EndSplineSet
Validated: 1
Ligature2: "+VAhbVzB4MG5/bmPb in +MOkwxjDzZYdbVwAA lookup 0-1" b i
EndChar

StartChar: b_a
Encoding: 425 -1 173
Width: 1062
VWidth: 0
HStem: 0 21G<195.147 262.147 527 595> 0 21G<195.147 262.147 527 595> 312 64<638.288 769.833> 583 65<640.457 769.793 843 1013> 609 65<175.3 286.228>
VStem: 82.1475 66<471.227 581.348> 195.147 67<0 390.425> 313.147 63<471.227 581.348> 527 68<0 348 418.657 540.488> 813.896 67.1045<420.914 539.966>
LayerCount: 2
Fore
SplineSet
230.174804688 826.041992188 m 1x27c0
 293.625 762.3125 357.435546875 698.59375 421.15625 634.8671875 c 1
 355.763671875 634.8671875 l 1
 313.869140625 676.76171875 271.973632812 718.65625 230.079101562 760.55078125 c 1
 188.184570312 718.65625 146.291015625 676.76171875 104.397460938 634.8671875 c 1
 39 634.8671875 l 1
 102.724609375 698.591796875 166.450195312 762.317382812 230.174804688 826.041992188 c 1x27c0
195.147460938 0 m 1xafc0
 195.147460938 384 l 1
 130.147460938 399 82.1474609375 457 82.1474609375 527 c 0
 82.1474609375 608 148.147460938 674 229.147460938 674 c 0
 310.147460938 674 376.147460938 608 376.147460938 527 c 0
 376.147460938 457 327.147460938 399 262.147460938 384 c 1
 262.147460938 0 l 1
 195.147460938 0 l 1xafc0
231.147460938 444 m 0
 276.147460938 444 313.147460938 481 313.147460938 526 c 0
 313.147460938 572 276.147460938 609 231.147460938 609 c 0
 185.147460938 609 148.147460938 572 148.147460938 526 c 0
 148.147460938 481 185.147460938 444 231.147460938 444 c 0
1013 648 m 1xb7c0
 1013 583 l 1
 843 583 l 1
 867 555 881 519 881 480 c 0
 881 387 802 312 704 312 c 0
 663 312 625 325 595 348 c 1
 595 0 l 1
 527 0 l 1
 527 478 l 1
 528 478 l 1
 528 480 l 2
 528 571 604 645 700 648 c 1
 1013 648 l 1xb7c0
703 583 m 0
 649.370117188 583 594.884765625 541.10546875 594.884765625 480.243164062 c 0
 594.884765625 475.284179688 595.24609375 470.198242188 596 465 c 0
 605 407 658 376 704 376 c 4
 776.5703125 376 813.895507812 437.091796875 813.895507812 478.869140625 c 4
 813.895507812 484.297851562 813.264648438 489.400390625 812 494 c 1
 804 550 752 583 708 583 c 0
 706 583 705 583 703 583 c 0
EndSplineSet
Validated: 1
Ligature2: "+VAhbVzB4MG5/bmPb in +MOkwxjDzZYdbVwAA lookup 0-1" b a
EndChar

StartChar: b_u
Encoding: 426 -1 174
Width: 1100
VWidth: 0
HStem: 0 21G<195.147 262.147 691 758> 0 21G<195.147 262.147 691 758> 357 67<507 692 803.757 931.089> 609 65<175.3 286.228> 640.027 67.0889<802.233 930.77>
VStem: 82.1475 66<471.227 581.348> 195.147 67<0 390.425> 313.147 63<471.227 581.348> 692 67.0615<0 357 468.91 594.495> 975.432 66.8242<468.038 595.787>
LayerCount: 2
Fore
SplineSet
230.174804688 826.041992188 m 1x27c0
 293.625 762.3125 357.435546875 698.59375 421.15625 634.8671875 c 1
 355.763671875 634.8671875 l 1
 313.869140625 676.76171875 271.973632812 718.65625 230.079101562 760.55078125 c 1
 188.184570312 718.65625 146.291015625 676.76171875 104.397460938 634.8671875 c 1
 39 634.8671875 l 1
 102.724609375 698.591796875 166.450195312 762.317382812 230.174804688 826.041992188 c 1x27c0
195.147460938 0 m 1xb7c0
 195.147460938 384 l 1
 130.147460938 399 82.1474609375 457 82.1474609375 527 c 0
 82.1474609375 608 148.147460938 674 229.147460938 674 c 0
 310.147460938 674 376.147460938 608 376.147460938 527 c 0
 376.147460938 457 327.147460938 399 262.147460938 384 c 1
 262.147460938 0 l 1
 195.147460938 0 l 1xb7c0
231.147460938 444 m 0
 276.147460938 444 313.147460938 481 313.147460938 526 c 0
 313.147460938 572 276.147460938 609 231.147460938 609 c 0
 185.147460938 609 148.147460938 572 148.147460938 526 c 0
 148.147460938 481 185.147460938 444 231.147460938 444 c 0
867 707 m 0
 868.154296875 707.025390625 869.30859375 707.037109375 870.462890625 707.037109375 c 0
 915.299804688 707.037109375 959.802734375 688.171875 991 656 c 0
 1026.61328125 624.237304688 1042.25585938 581.768554688 1042.25585938 538.833007812 c 0
 1042.25585938 448.924804688 973.661132812 356.966796875 876.197265625 356.966796875 c 0
 875.134765625 356.966796875 874.069335938 356.978515625 873 357 c 0
 835 357 797 357 759 357 c 1
 759 228 758 129 758 0 c 1
 691 0 l 1
 691 129 692 228 692 357 c 1
 507 357 l 1
 507 424 l 1
 692 424 l 1
 692 513 l 2
 691.536132812 518.049804688 691.30859375 523.10546875 691.30859375 528.151367188 c 0
 691.30859375 619.127929688 765.236328125 707.116210938 860.967773438 707.116210938 c 0xafc0
 862.96875 707.116210938 864.98046875 707.078125 867 707 c 0
866.859375 423.431640625 m 0
 920.198242188 423.431640625 975.431640625 467.6875 975.431640625 533.336914062 c 0
 975.431640625 588.622070312 927.14453125 640.046875 870.923828125 640.046875 c 0
 869.952148438 640.046875 868.9765625 640.03125 868 640 c 0
 867.228515625 640.017578125 866.45703125 640.02734375 865.686523438 640.02734375 c 0
 807.594726562 640.02734375 759.061523438 591.004882812 759.061523438 533.819335938 c 0
 759.061523438 475.501953125 805.715820312 423.431640625 866.859375 423.431640625 c 0
EndSplineSet
Validated: 1
Ligature2: "+VAhbVzB4MG5/bmPb in +MOkwxjDzZYdbVwAA lookup 0-1" b u
EndChar

StartChar: b_o
Encoding: 427 -1 175
Width: 1102
VWidth: 0
HStem: 0 21G<195.147 262.147 794.812 861.812> 0 21G<195.147 262.147 794.812 861.812> 343 67<622.724 750.055 861.812 1046.81> 609 65<175.3 286.228> 626 67<623.041 751.58>
VStem: 82.1475 66<471.227 581.348> 195.147 67<0 390.425> 313.147 63<471.227 581.348> 512 66.3799<454.049 581.796> 794.812 67<0 343 454.91 580.495>
LayerCount: 2
Fore
SplineSet
230.174804688 826.041992188 m 1x27c0
 293.625 762.3125 357.435546875 698.59375 421.15625 634.8671875 c 1
 355.763671875 634.8671875 l 1
 313.869140625 676.76171875 271.973632812 718.65625 230.079101562 760.55078125 c 1
 188.184570312 718.65625 146.291015625 676.76171875 104.397460938 634.8671875 c 1
 39 634.8671875 l 1
 102.724609375 698.591796875 166.450195312 762.317382812 230.174804688 826.041992188 c 1x27c0
195.147460938 0 m 1xb7c0
 195.147460938 384 l 1
 130.147460938 399 82.1474609375 457 82.1474609375 527 c 0
 82.1474609375 608 148.147460938 674 229.147460938 674 c 0
 310.147460938 674 376.147460938 608 376.147460938 527 c 0
 376.147460938 457 327.147460938 399 262.147460938 384 c 1
 262.147460938 0 l 1
 195.147460938 0 l 1xb7c0
231.147460938 444 m 0
 276.147460938 444 313.147460938 481 313.147460938 526 c 0
 313.147460938 572 276.147460938 609 231.147460938 609 c 0
 185.147460938 609 148.147460938 572 148.147460938 526 c 0
 148.147460938 481 185.147460938 444 231.147460938 444 c 0
686.8125 693 m 4xafc0
 688.83203125 693.078125 690.842773438 693.116210938 692.844726562 693.116210938 c 4
 788.576171875 693.116210938 862.502929688 605.127929688 862.502929688 514.151367188 c 4
 862.502929688 509.10546875 862.276367188 504.049804688 861.8125 499 c 6
 861.8125 410 l 5
 1046.8125 410 l 5
 1046.8125 343 l 5
 861.8125 343 l 5
 861.8125 0 l 5
 794.8125 0 l 5
 794.8125 343 l 5
 756.8125 343 718.8125 343 680.8125 343 c 4
 679.743164062 342.978515625 678.677734375 342.966796875 677.615234375 342.966796875 c 4
 580.1484375 342.966796875 512 434.948242188 512 524.8671875 c 4
 512 567.791015625 527.529296875 610.245117188 562.8125 642 c 4
 594.008789062 674.171875 638.512695312 693.037109375 683.349609375 693.037109375 c 4
 684.50390625 693.037109375 685.658203125 693.025390625 686.8125 693 c 4xafc0
794.75 519.819335938 m 4
 794.75 577.001953125 746.21875 626.02734375 688.125976562 626.02734375 c 4
 687.35546875 626.02734375 686.583984375 626.017578125 685.8125 626 c 4
 684.834960938 626.03125 683.860351562 626.046875 682.887695312 626.046875 c 4
 626.66796875 626.046875 578.379882812 574.622070312 578.379882812 519.336914062 c 4
 578.379882812 453.685546875 633.616210938 409.431640625 686.953125 409.431640625 c 4
 748.094726562 409.431640625 794.75 461.5 794.75 519.819335938 c 4
EndSplineSet
Validated: 1
Ligature2: "+VAhbVzB4MG5/bmPb in +MOkwxjDzZYdbVwAA lookup 0-1" b o
EndChar

StartChar: b_e
Encoding: 428 -1 176
Width: 918
VWidth: 0
HStem: 0 21G<195.147 262.147 654 721> 0 21G<195.147 262.147 654 721> 302 69<617.587 654> 578 68<617.587 654> 609 65<175.3 286.228> 663 20G<654 721>
VStem: 82.1475 66<471.227 581.348> 195.147 67<0 390.425> 313.147 63<471.227 581.348> 511 67.9531<408.527 539.449> 654 67<0 306.538 372 577 641.479 683> 794.125 66.875<409.443 539.5>
LayerCount: 2
Fore
SplineSet
230.174804688 826.041992188 m 1x23f0
 293.625 762.3125 357.435546875 698.59375 421.15625 634.8671875 c 1
 355.763671875 634.8671875 l 1
 313.869140625 676.76171875 271.973632812 718.65625 230.079101562 760.55078125 c 1
 188.184570312 718.65625 146.291015625 676.76171875 104.397460938 634.8671875 c 1
 39 634.8671875 l 1
 102.724609375 698.591796875 166.450195312 762.317382812 230.174804688 826.041992188 c 1x23f0
195.147460938 0 m 1xabf0
 195.147460938 384 l 1
 130.147460938 399 82.1474609375 457 82.1474609375 527 c 0
 82.1474609375 608 148.147460938 674 229.147460938 674 c 0
 310.147460938 674 376.147460938 608 376.147460938 527 c 0
 376.147460938 457 327.147460938 399 262.147460938 384 c 1
 262.147460938 0 l 1
 195.147460938 0 l 1xabf0
231.147460938 444 m 0
 276.147460938 444 313.147460938 481 313.147460938 526 c 0
 313.147460938 572 276.147460938 609 231.147460938 609 c 0
 185.147460938 609 148.147460938 572 148.147460938 526 c 0
 148.147460938 481 185.147460938 444 231.147460938 444 c 0
654 683 m 1xb7f0
 721 683 l 1
 721 646 l 1
 801 630 861 559 861 474 c 0
 861 390 801 319 721 303 c 1
 721 0 l 1
 654 0 l 1
 654 302 l 1
 573 317 511 389 511 474 c 0
 511 560 573 631 654 646 c 1
 654 683 l 1xb7f0
654 578 m 1
 605.314453125 563.137695312 578.953125 518.073242188 578.953125 473.08984375 c 0
 578.953125 430.295898438 602.809570312 387.576171875 654 371 c 5
 654 578 l 1
721 577 m 1
 721 372 l 1
 769.874023438 388.458007812 794.125 431.528320312 794.125 474.54296875 c 0
 794.125 517.779296875 769.624023438 560.958984375 721 577 c 1
EndSplineSet
Validated: 1
Ligature2: "+VAhbVzB4MG5/bmPb in +MOkwxjDzZYdbVwAA lookup 0-1" b e
EndChar

StartChar: b_w_i
Encoding: 429 -1 177
Width: 1312
VWidth: 0
HStem: -199 33<550.117 624.495> -63 33<550.189 624.931> 0 21G<195.147 262.147 554 621.016 1176 1243> 0 21G<195.147 262.147 554 621.016 1176 1243> 325 67<1003.55 1131.08> 608 67<174.572 286.95 761 930 1004 1131.02> 619 20G<554 621.016>
VStem: 82.1475 66<471.227 581.348> 195.147 67<0 390.425> 313.147 63<471.227 581.348> 503 33<-150.623 -77.1431 -48 -29> 554 67.0156<0 639> 640 32<-149.005 -78.8774 -48 -28> 892 66.875<435.943 563.33> 1176 67<0 363 437.016 563.236>
LayerCount: 2
Fore
SplineSet
230.174804688 826.041992188 m 1xc9fe
 293.625 762.3125 357.435546875 698.59375 421.15625 634.8671875 c 1
 355.763671875 634.8671875 l 1
 313.869140625 676.76171875 271.973632812 718.65625 230.079101562 760.55078125 c 1
 188.184570312 718.65625 146.291015625 676.76171875 104.397460938 634.8671875 c 1
 39 634.8671875 l 1
 102.724609375 698.591796875 166.450195312 762.317382812 230.174804688 826.041992188 c 1xc9fe
195.147460938 0 m 1xe9fe
 195.147460938 384 l 1
 130.147460938 399 82.1474609375 457 82.1474609375 527 c 0
 82.1474609375 608 148.147460938 674 229.147460938 674 c 0
 310.147460938 674 376.147460938 608 376.147460938 527 c 0
 376.147460938 457 327.147460938 399 262.147460938 384 c 1
 262.147460938 0 l 1
 195.147460938 0 l 1xe9fe
231.147460938 444 m 0
 276.147460938 444 313.147460938 481 313.147460938 526 c 0
 313.147460938 572 276.147460938 609 231.147460938 609 c 0
 185.147460938 609 148.147460938 572 148.147460938 526 c 0
 148.147460938 481 185.147460938 444 231.147460938 444 c 0
554 639 m 1xebfe
 621.015625 639 l 1
 621.015625 0 l 1
 554 0 l 1
 554 639 l 1xebfe
640 -28 m 5
 672 -28 l 5
 672 -114 l 6
 672 -161 634 -199 588 -199 c 4
 542 -199 505 -162 503 -117 c 5
 503 -29 l 5
 536 -29 l 5
 536 -48 l 5
 550 -36 568 -30 588 -30 c 4
 607 -30 625 -36 640 -48 c 5
 640 -28 l 5
587 -63 m 4
 559 -63 536 -86 536 -114 c 4
 536 -142 559 -166 587 -166 c 4
 616 -166 639 -142 639 -114 c 4
 639 -86 616 -63 587 -63 c 4
761 675 m 1xedfe
 1072 675 l 1
 1167 673 1243 595 1243 500 c 2
 1243 0 l 1
 1176 0 l 1
 1176 363 l 1
 1146 339 1109 325 1068 325 c 0
 971 325 892 403 892 500 c 0
 892 541 906 578 930 608 c 1
 761 608 l 1
 761 675 l 1xedfe
1069 608 m 0
 1005.31542969 608 958.875 556.84375 958.875 500.287109375 c 0
 958.875 482.24609375 963.600585938 463.655273438 974 446 c 0
 992 415 1025 394 1061 392 c 1
 1068 392 l 2
 1128.99707031 392 1175.90820312 443.814453125 1175.90820312 500.703125 c 0
 1175.90820312 524.022460938 1168.02539062 548.1953125 1150 570 c 0
 1143 579 1115 608 1069 608 c 0
EndSplineSet
Validated: 1
Ligature2: "+VAhbVzB4MG5/bmPb in +MOkwxjDzZYdbVwAA lookup 0-1" b w i
EndChar

StartChar: b_w_a
Encoding: 430 -1 178
Width: 1319
VWidth: 0
HStem: -199 33<550.117 624.495> -63 33<550.189 624.931> 0 21G<195.147 262.147 554 621.016 784 852> 0 21G<195.147 262.147 554 621.016 784 852> 312 64<895.288 1026.83> 583 65<897.457 1026.79 1100 1270> 609 65<175.3 286.228> 619 20G<554 621.016>
VStem: 82.1475 66<471.227 581.348> 195.147 67<0 390.425> 313.147 63<471.227 581.348> 503 33<-150.623 -77.1431 -48 -29> 554 67.0156<0 639> 640 32<-149.005 -78.8774 -48 -28> 784 68<0 348 418.657 540.488> 1070.9 67.1045<420.914 539.966>
LayerCount: 2
Fore
SplineSet
230.174804688 826.041992188 m 1xc8ff
 293.625 762.3125 357.435546875 698.59375 421.15625 634.8671875 c 1
 355.763671875 634.8671875 l 1
 313.869140625 676.76171875 271.973632812 718.65625 230.079101562 760.55078125 c 1
 188.184570312 718.65625 146.291015625 676.76171875 104.397460938 634.8671875 c 1
 39 634.8671875 l 1
 102.724609375 698.591796875 166.450195312 762.317382812 230.174804688 826.041992188 c 1xc8ff
195.147460938 0 m 1xeaff
 195.147460938 384 l 1
 130.147460938 399 82.1474609375 457 82.1474609375 527 c 0
 82.1474609375 608 148.147460938 674 229.147460938 674 c 0
 310.147460938 674 376.147460938 608 376.147460938 527 c 0
 376.147460938 457 327.147460938 399 262.147460938 384 c 1
 262.147460938 0 l 1
 195.147460938 0 l 1xeaff
231.147460938 444 m 0
 276.147460938 444 313.147460938 481 313.147460938 526 c 0
 313.147460938 572 276.147460938 609 231.147460938 609 c 0
 185.147460938 609 148.147460938 572 148.147460938 526 c 0
 148.147460938 481 185.147460938 444 231.147460938 444 c 0
554 639 m 1xe9ff
 621.015625 639 l 1
 621.015625 0 l 1
 554 0 l 1
 554 639 l 1xe9ff
640 -28 m 5
 672 -28 l 5
 672 -114 l 6
 672 -161 634 -199 588 -199 c 4
 542 -199 505 -162 503 -117 c 5
 503 -29 l 5
 536 -29 l 5
 536 -48 l 5
 550 -36 568 -30 588 -30 c 4
 607 -30 625 -36 640 -48 c 5
 640 -28 l 5
587 -63 m 4
 559 -63 536 -86 536 -114 c 4
 536 -142 559 -166 587 -166 c 4
 616 -166 639 -142 639 -114 c 4
 639 -86 616 -63 587 -63 c 4
1270 648 m 1xecff
 1270 583 l 1
 1100 583 l 1
 1124 555 1138 519 1138 480 c 0
 1138 387 1059 312 961 312 c 0
 920 312 882 325 852 348 c 1
 852 0 l 1
 784 0 l 1
 784 478 l 1
 785 478 l 1
 785 480 l 2
 785 571 861 645 957 648 c 1
 1270 648 l 1xecff
960 583 m 0
 906.370117188 583 851.884765625 541.10546875 851.884765625 480.243164062 c 0
 851.884765625 475.284179688 852.24609375 470.198242188 853 465 c 0
 862 407 915 376 961 376 c 4
 1033.5703125 376 1070.89550781 437.091796875 1070.89550781 478.869140625 c 4
 1070.89550781 484.297851562 1070.26464844 489.400390625 1069 494 c 1
 1061 550 1009 583 965 583 c 0
 963 583 962 583 960 583 c 0
EndSplineSet
Validated: 1
Ligature2: "+VAhbVzB4MG5/bmPb in +MOkwxjDzZYdbVwAA lookup 0-1" b w a
EndChar

StartChar: b_w_u
Encoding: 431 -1 179
Width: 1357
VWidth: 0
HStem: -199 33<550.117 624.495> -63 33<550.189 624.931> 0 21G<195.147 262.147 554 621.016 948 1015> 0 21G<195.147 262.147 554 621.016 948 1015> 357 67<764 949 1060.76 1188.09> 609 65<175.3 286.228> 619 20G<554 621.016> 640.027 67.0889<1059.23 1187.77>
VStem: 82.1475 66<471.227 581.348> 195.147 67<0 390.425> 313.147 63<471.227 581.348> 503 33<-150.623 -77.1431 -48 -29> 554 67.0156<0 639> 640 32<-149.005 -78.8774 -48 -28> 949 67.0615<0 357 468.91 594.495> 1232.43 66.8242<468.038 595.787>
LayerCount: 2
Fore
SplineSet
230.174804688 826.041992188 m 1xc8ff
 293.625 762.3125 357.435546875 698.59375 421.15625 634.8671875 c 1
 355.763671875 634.8671875 l 1
 313.869140625 676.76171875 271.973632812 718.65625 230.079101562 760.55078125 c 1
 188.184570312 718.65625 146.291015625 676.76171875 104.397460938 634.8671875 c 1
 39 634.8671875 l 1
 102.724609375 698.591796875 166.450195312 762.317382812 230.174804688 826.041992188 c 1xc8ff
195.147460938 0 m 1xecff
 195.147460938 384 l 1
 130.147460938 399 82.1474609375 457 82.1474609375 527 c 0
 82.1474609375 608 148.147460938 674 229.147460938 674 c 0
 310.147460938 674 376.147460938 608 376.147460938 527 c 0
 376.147460938 457 327.147460938 399 262.147460938 384 c 1
 262.147460938 0 l 1
 195.147460938 0 l 1xecff
231.147460938 444 m 0
 276.147460938 444 313.147460938 481 313.147460938 526 c 0
 313.147460938 572 276.147460938 609 231.147460938 609 c 0
 185.147460938 609 148.147460938 572 148.147460938 526 c 0
 148.147460938 481 185.147460938 444 231.147460938 444 c 0
554 639 m 1xeaff
 621.015625 639 l 1
 621.015625 0 l 1
 554 0 l 1
 554 639 l 1xeaff
640 -28 m 5
 672 -28 l 5
 672 -114 l 6
 672 -161 634 -199 588 -199 c 4
 542 -199 505 -162 503 -117 c 5
 503 -29 l 5
 536 -29 l 5
 536 -48 l 5
 550 -36 568 -30 588 -30 c 4
 607 -30 625 -36 640 -48 c 5
 640 -28 l 5
587 -63 m 4
 559 -63 536 -86 536 -114 c 4
 536 -142 559 -166 587 -166 c 4
 616 -166 639 -142 639 -114 c 4
 639 -86 616 -63 587 -63 c 4
1124 707 m 0
 1125.15429688 707.025390625 1126.30859375 707.037109375 1127.46289062 707.037109375 c 0
 1172.29980469 707.037109375 1216.80273438 688.171875 1248 656 c 0
 1283.61328125 624.237304688 1299.25585938 581.768554688 1299.25585938 538.833007812 c 0
 1299.25585938 448.924804688 1230.66113281 356.966796875 1133.19726562 356.966796875 c 0
 1132.13476562 356.966796875 1131.06933594 356.978515625 1130 357 c 0
 1092 357 1054 357 1016 357 c 1
 1016 228 1015 129 1015 0 c 1
 948 0 l 1
 948 129 949 228 949 357 c 1
 764 357 l 1
 764 424 l 1
 949 424 l 1
 949 513 l 2
 948.536132812 518.049804688 948.30859375 523.10546875 948.30859375 528.151367188 c 0
 948.30859375 619.127929688 1022.23632812 707.116210938 1117.96777344 707.116210938 c 0xe9ff
 1119.96875 707.116210938 1121.98046875 707.078125 1124 707 c 0
1123.859375 423.431640625 m 0
 1177.19824219 423.431640625 1232.43164062 467.6875 1232.43164062 533.336914062 c 0
 1232.43164062 588.622070312 1184.14453125 640.046875 1127.92382812 640.046875 c 0
 1126.95214844 640.046875 1125.9765625 640.03125 1125 640 c 0
 1124.22851562 640.017578125 1123.45703125 640.02734375 1122.68652344 640.02734375 c 0
 1064.59472656 640.02734375 1016.06152344 591.004882812 1016.06152344 533.819335938 c 0
 1016.06152344 475.501953125 1062.71582031 423.431640625 1123.859375 423.431640625 c 0
EndSplineSet
Validated: 1
Ligature2: "+VAhbVzB4MG5/bmPb in +MOkwxjDzZYdbVwAA lookup 0-1" b w u
EndChar

StartChar: b_w_o
Encoding: 432 -1 180
Width: 1359
VWidth: 0
HStem: -199 33<550.117 624.495> -63 33<550.189 624.931> 0 21G<195.147 262.147 554 621.016 1051.81 1118.81> 0 21G<195.147 262.147 554 621.016 1051.81 1118.81> 343 67<879.724 1007.05 1118.81 1303.81> 609 65<175.3 286.228> 619 20G<554 621.016> 626 67<880.041 1008.58>
VStem: 82.1475 66<471.227 581.348> 195.147 67<0 390.425> 313.147 63<471.227 581.348> 503 33<-150.623 -77.1431 -48 -29> 554 67.0156<0 639> 640 32<-149.005 -78.8774 -48 -28> 769 66.3799<454.049 581.796> 1051.81 67<0 343 454.91 580.495>
LayerCount: 2
Fore
SplineSet
230.174804688 826.041992188 m 1xc8ff
 293.625 762.3125 357.435546875 698.59375 421.15625 634.8671875 c 1
 355.763671875 634.8671875 l 1
 313.869140625 676.76171875 271.973632812 718.65625 230.079101562 760.55078125 c 1
 188.184570312 718.65625 146.291015625 676.76171875 104.397460938 634.8671875 c 1
 39 634.8671875 l 1
 102.724609375 698.591796875 166.450195312 762.317382812 230.174804688 826.041992188 c 1xc8ff
195.147460938 0 m 1xecff
 195.147460938 384 l 1
 130.147460938 399 82.1474609375 457 82.1474609375 527 c 0
 82.1474609375 608 148.147460938 674 229.147460938 674 c 0
 310.147460938 674 376.147460938 608 376.147460938 527 c 0
 376.147460938 457 327.147460938 399 262.147460938 384 c 1
 262.147460938 0 l 1
 195.147460938 0 l 1xecff
231.147460938 444 m 0
 276.147460938 444 313.147460938 481 313.147460938 526 c 0
 313.147460938 572 276.147460938 609 231.147460938 609 c 0
 185.147460938 609 148.147460938 572 148.147460938 526 c 0
 148.147460938 481 185.147460938 444 231.147460938 444 c 0
554 639 m 1xeaff
 621.015625 639 l 1
 621.015625 0 l 1
 554 0 l 1
 554 639 l 1xeaff
640 -28 m 5
 672 -28 l 5
 672 -114 l 6
 672 -161 634 -199 588 -199 c 4
 542 -199 505 -162 503 -117 c 5
 503 -29 l 5
 536 -29 l 5
 536 -48 l 5
 550 -36 568 -30 588 -30 c 4
 607 -30 625 -36 640 -48 c 5
 640 -28 l 5
587 -63 m 4
 559 -63 536 -86 536 -114 c 4
 536 -142 559 -166 587 -166 c 4
 616 -166 639 -142 639 -114 c 4
 639 -86 616 -63 587 -63 c 4
943.8125 693 m 4xe9ff
 945.83203125 693.078125 947.842773438 693.116210938 949.844726562 693.116210938 c 4
 1045.57617188 693.116210938 1119.50292969 605.127929688 1119.50292969 514.151367188 c 4
 1119.50292969 509.10546875 1119.27636719 504.049804688 1118.8125 499 c 6
 1118.8125 410 l 5
 1303.8125 410 l 5
 1303.8125 343 l 5
 1118.8125 343 l 5
 1118.8125 0 l 5
 1051.8125 0 l 5
 1051.8125 343 l 5
 1013.8125 343 975.8125 343 937.8125 343 c 4
 936.743164062 342.978515625 935.677734375 342.966796875 934.615234375 342.966796875 c 4
 837.1484375 342.966796875 769 434.948242188 769 524.8671875 c 4
 769 567.791015625 784.529296875 610.245117188 819.8125 642 c 4
 851.008789062 674.171875 895.512695312 693.037109375 940.349609375 693.037109375 c 4
 941.50390625 693.037109375 942.658203125 693.025390625 943.8125 693 c 4xe9ff
1051.75 519.819335938 m 4
 1051.75 577.001953125 1003.21875 626.02734375 945.125976562 626.02734375 c 4
 944.35546875 626.02734375 943.583984375 626.017578125 942.8125 626 c 4
 941.834960938 626.03125 940.860351562 626.046875 939.887695312 626.046875 c 4
 883.66796875 626.046875 835.379882812 574.622070312 835.379882812 519.336914062 c 4
 835.379882812 453.685546875 890.616210938 409.431640625 943.953125 409.431640625 c 4
 1005.09472656 409.431640625 1051.75 461.5 1051.75 519.819335938 c 4
EndSplineSet
Validated: 1
Ligature2: "+VAhbVzB4MG5/bmPb in +MOkwxjDzZYdbVwAA lookup 0-1" b w o
EndChar

StartChar: b_w_e
Encoding: 433 -1 181
Width: 1175
VWidth: 0
HStem: -199 33<550.117 624.495> -63 33<550.189 624.931> 0 21G<195.147 262.147 554 621.016 911 978> 0 21G<195.147 262.147 554 621.016 911 978> 302 69<874.587 911> 578 68<874.587 911> 609 65<175.3 286.228> 619 20G<554 621.016 911 978>
VStem: 82.1475 66<471.227 581.348> 195.147 67<0 390.425> 313.147 63<471.227 581.348> 503 33<-150.623 -77.1431 -48 -29> 554 67.0156<0 639> 640 32<-149.005 -78.8774 -48 -28> 768 67.9531<408.527 539.449> 911 67<0 306.538 372 577 641.479 683> 1051.12 66.875<409.443 539.5>
LayerCount: 2
Fore
SplineSet
230.174804688 826.041992188 m 1xc8ff80
 293.625 762.3125 357.435546875 698.59375 421.15625 634.8671875 c 1
 355.763671875 634.8671875 l 1
 313.869140625 676.76171875 271.973632812 718.65625 230.079101562 760.55078125 c 1
 188.184570312 718.65625 146.291015625 676.76171875 104.397460938 634.8671875 c 1
 39 634.8671875 l 1
 102.724609375 698.591796875 166.450195312 762.317382812 230.174804688 826.041992188 c 1xc8ff80
195.147460938 0 m 1xeaff80
 195.147460938 384 l 1
 130.147460938 399 82.1474609375 457 82.1474609375 527 c 0
 82.1474609375 608 148.147460938 674 229.147460938 674 c 0
 310.147460938 674 376.147460938 608 376.147460938 527 c 0
 376.147460938 457 327.147460938 399 262.147460938 384 c 1
 262.147460938 0 l 1
 195.147460938 0 l 1xeaff80
231.147460938 444 m 0
 276.147460938 444 313.147460938 481 313.147460938 526 c 0
 313.147460938 572 276.147460938 609 231.147460938 609 c 0
 185.147460938 609 148.147460938 572 148.147460938 526 c 0
 148.147460938 481 185.147460938 444 231.147460938 444 c 0
554 639 m 1xe9ff80
 621.015625 639 l 1
 621.015625 0 l 1
 554 0 l 1
 554 639 l 1xe9ff80
640 -28 m 5
 672 -28 l 5
 672 -114 l 6
 672 -161 634 -199 588 -199 c 4
 542 -199 505 -162 503 -117 c 5
 503 -29 l 5
 536 -29 l 5
 536 -48 l 5
 550 -36 568 -30 588 -30 c 4
 607 -30 625 -36 640 -48 c 5
 640 -28 l 5
587 -63 m 4
 559 -63 536 -86 536 -114 c 4
 536 -142 559 -166 587 -166 c 4
 616 -166 639 -142 639 -114 c 4
 639 -86 616 -63 587 -63 c 4
911 683 m 1
 978 683 l 1
 978 646 l 1
 1058 630 1118 559 1118 474 c 0
 1118 390 1058 319 978 303 c 1
 978 0 l 1
 911 0 l 1
 911 302 l 1
 830 317 768 389 768 474 c 0
 768 560 830 631 911 646 c 1xecff80
 911 683 l 1
911 578 m 1
 862.314453125 563.137695312 835.953125 518.073242188 835.953125 473.08984375 c 0
 835.953125 430.295898438 859.809570312 387.576171875 911 371 c 5
 911 578 l 1
978 577 m 1
 978 372 l 1
 1026.87402344 388.458007812 1051.125 431.528320312 1051.125 474.54296875 c 0
 1051.125 517.779296875 1026.62402344 560.958984375 978 577 c 1
EndSplineSet
Validated: 1
Ligature2: "+VAhbVzB4MG5/bmPb in +MOkwxjDzZYdbVwAA lookup 0-1" b w e
EndChar

StartChar: b_y_i
Encoding: 434 -1 182
Width: 1455
VWidth: 0
HStem: -198 33<623.005 696.866> -61 33<503 594 623.125 696 727 817> 0 21G<195.147 262.147 625 692.016 1319 1386> 0 21G<195.147 262.147 625 692.016 1319 1386> 325 67<1146.55 1274.08> 608 67<174.572 286.95 904 1073 1147 1274.02> 619 20G<625 692.016>
VStem: 82.1475 66<471.227 581.348> 195.147 67<0 390.425> 313.147 63<471.227 581.348> 576 32<-149.688 -76.6098> 625 67.0156<0 639> 711 34<-150.557 -75.3722> 1035 66.875<435.943 563.33> 1319 67<0 363 437.016 563.236>
LayerCount: 2
Fore
SplineSet
230.174804688 826.041992188 m 1xc9fe
 293.625 762.3125 357.435546875 698.59375 421.15625 634.8671875 c 1
 355.763671875 634.8671875 l 1
 313.869140625 676.76171875 271.973632812 718.65625 230.079101562 760.55078125 c 1
 188.184570312 718.65625 146.291015625 676.76171875 104.397460938 634.8671875 c 1
 39 634.8671875 l 1
 102.724609375 698.591796875 166.450195312 762.317382812 230.174804688 826.041992188 c 1xc9fe
195.147460938 0 m 1xe9fe
 195.147460938 384 l 1
 130.147460938 399 82.1474609375 457 82.1474609375 527 c 0
 82.1474609375 608 148.147460938 674 229.147460938 674 c 0
 310.147460938 674 376.147460938 608 376.147460938 527 c 0
 376.147460938 457 327.147460938 399 262.147460938 384 c 1
 262.147460938 0 l 1
 195.147460938 0 l 1xe9fe
231.147460938 444 m 0
 276.147460938 444 313.147460938 481 313.147460938 526 c 0
 313.147460938 572 276.147460938 609 231.147460938 609 c 0
 185.147460938 609 148.147460938 572 148.147460938 526 c 0
 148.147460938 481 185.147460938 444 231.147460938 444 c 0
625 639 m 1xebfe
 692.015625 639 l 1
 692.015625 0 l 1
 625 0 l 1
 625 639 l 1xebfe
503 -28 m 5
 817 -28 l 5
 817 -61 l 5
 727 -61 l 5
 738 -75 745 -94 745 -113 c 4
 745 -160 707 -198 660 -198 c 4
 614 -198 576 -160 576 -113 c 4
 576 -94 583 -75 594 -61 c 5
 503 -61 l 5
 503 -28 l 5
660 -62 m 4
 631 -62 608 -85 608 -113 c 4
 608 -141 631 -165 660 -165 c 4
 688 -165 711 -141 711 -113 c 4
 711 -85 688 -62 660 -62 c 4
904 675 m 1xedfe
 1215 675 l 1
 1310 673 1386 595 1386 500 c 2
 1386 0 l 1
 1319 0 l 1
 1319 363 l 1
 1289 339 1252 325 1211 325 c 0
 1114 325 1035 403 1035 500 c 0
 1035 541 1049 578 1073 608 c 1
 904 608 l 1
 904 675 l 1xedfe
1212 608 m 0
 1148.31542969 608 1101.875 556.84375 1101.875 500.287109375 c 0
 1101.875 482.24609375 1106.60058594 463.655273438 1117 446 c 0
 1135 415 1168 394 1204 392 c 1
 1211 392 l 2
 1271.99707031 392 1318.90820312 443.814453125 1318.90820312 500.703125 c 0
 1318.90820312 524.022460938 1311.02539062 548.1953125 1293 570 c 0
 1286 579 1258 608 1212 608 c 0
EndSplineSet
Validated: 1
Ligature2: "+VAhbVzB4MG5/bmPb in +MOkwxjDzZYdbVwAA lookup 0-1" b y i
EndChar

StartChar: b_y_a
Encoding: 435 -1 183
Width: 1462
VWidth: 0
HStem: -198 33<623.005 696.866> -61 33<503 594 623.125 696 727 817> 0 21G<195.147 262.147 625 692.016 927 995> 0 21G<195.147 262.147 625 692.016 927 995> 312 64<1038.29 1169.83> 583 65<1040.46 1169.79 1243 1413> 609 65<175.3 286.228> 619 20G<625 692.016>
VStem: 82.1475 66<471.227 581.348> 195.147 67<0 390.425> 313.147 63<471.227 581.348> 576 32<-149.688 -76.6098> 625 67.0156<0 639> 711 34<-150.557 -75.3722> 927 68<0 348 418.657 540.488> 1213.9 67.1045<420.914 539.966>
LayerCount: 2
Fore
SplineSet
230.174804688 826.041992188 m 1xc8ff
 293.625 762.3125 357.435546875 698.59375 421.15625 634.8671875 c 1
 355.763671875 634.8671875 l 1
 313.869140625 676.76171875 271.973632812 718.65625 230.079101562 760.55078125 c 1
 188.184570312 718.65625 146.291015625 676.76171875 104.397460938 634.8671875 c 1
 39 634.8671875 l 1
 102.724609375 698.591796875 166.450195312 762.317382812 230.174804688 826.041992188 c 1xc8ff
195.147460938 0 m 1xeaff
 195.147460938 384 l 1
 130.147460938 399 82.1474609375 457 82.1474609375 527 c 0
 82.1474609375 608 148.147460938 674 229.147460938 674 c 0
 310.147460938 674 376.147460938 608 376.147460938 527 c 0
 376.147460938 457 327.147460938 399 262.147460938 384 c 1
 262.147460938 0 l 1
 195.147460938 0 l 1xeaff
231.147460938 444 m 0
 276.147460938 444 313.147460938 481 313.147460938 526 c 0
 313.147460938 572 276.147460938 609 231.147460938 609 c 0
 185.147460938 609 148.147460938 572 148.147460938 526 c 0
 148.147460938 481 185.147460938 444 231.147460938 444 c 0
625 639 m 1xe9ff
 692.015625 639 l 1
 692.015625 0 l 1
 625 0 l 1
 625 639 l 1xe9ff
503 -28 m 5
 817 -28 l 5
 817 -61 l 5
 727 -61 l 5
 738 -75 745 -94 745 -113 c 4
 745 -160 707 -198 660 -198 c 4
 614 -198 576 -160 576 -113 c 4
 576 -94 583 -75 594 -61 c 5
 503 -61 l 5
 503 -28 l 5
660 -62 m 4
 631 -62 608 -85 608 -113 c 4
 608 -141 631 -165 660 -165 c 4
 688 -165 711 -141 711 -113 c 4
 711 -85 688 -62 660 -62 c 4
1413 648 m 1xecff
 1413 583 l 1
 1243 583 l 1
 1267 555 1281 519 1281 480 c 0
 1281 387 1202 312 1104 312 c 0
 1063 312 1025 325 995 348 c 1
 995 0 l 1
 927 0 l 1
 927 478 l 1
 928 478 l 1
 928 480 l 2
 928 571 1004 645 1100 648 c 1
 1413 648 l 1xecff
1103 583 m 0
 1049.37011719 583 994.884765625 541.10546875 994.884765625 480.243164062 c 0
 994.884765625 475.284179688 995.24609375 470.198242188 996 465 c 0
 1005 407 1058 376 1104 376 c 4
 1176.5703125 376 1213.89550781 437.091796875 1213.89550781 478.869140625 c 4
 1213.89550781 484.297851562 1213.26464844 489.400390625 1212 494 c 1
 1204 550 1152 583 1108 583 c 0
 1106 583 1105 583 1103 583 c 0
EndSplineSet
Validated: 1
Ligature2: "+VAhbVzB4MG5/bmPb in +MOkwxjDzZYdbVwAA lookup 0-1" b y a
EndChar

